<svg width="190" height="32" viewBox="0 0 190 32" fill="none" xmlns="http://www.w3.org/2000/svg">
<path d="M42.7685 26.6341C42.2162 26.6341 41.7685 26.1864 41.7685 25.6341V7.99025H44.9215V25.6341C44.9215 26.1864 44.4738 26.6341 43.9215 26.6341H42.7685ZM36.5173 10.3207C35.965 10.3207 35.5173 9.87302 35.5173 9.32074V8.4419C35.5173 7.88962 35.965 7.4419 36.5173 7.4419H50.1727C50.725 7.4419 51.1727 7.88962 51.1727 8.4419V9.32074C51.1727 9.87302 50.725 10.3207 50.1727 10.3207H36.5173Z" fill="#F2F2F2"/>
<path d="M55.6176 26.9083C54.4295 26.9083 53.351 26.6067 52.3823 26.0035C51.4318 25.4003 50.6733 24.587 50.1066 23.5634C49.5583 22.5215 49.2841 21.3608 49.2841 20.0814C49.2841 18.7836 49.5583 17.6229 50.1066 16.5993C50.6733 15.5575 51.4318 14.735 52.3823 14.1318C53.351 13.5103 54.4295 13.1996 55.6176 13.1996C56.6229 13.1996 57.5094 13.4189 58.2771 13.8576C59.063 14.278 59.6845 14.8629 60.1414 15.6123C60.5984 16.3617 60.8269 17.2117 60.8269 18.1621V21.9457C60.8269 22.8962 60.5984 23.7462 60.1414 24.4956C59.7028 25.245 59.0904 25.839 58.3045 26.2777C57.5185 26.6981 56.6229 26.9083 55.6176 26.9083ZM56.1111 24.0569C57.226 24.0569 58.1217 23.6822 58.798 22.9328C59.4926 22.1834 59.8398 21.2238 59.8398 20.0539C59.8398 19.268 59.6845 18.5734 59.3737 17.9702C59.063 17.367 58.6243 16.9009 58.0577 16.5719C57.5094 16.2246 56.8605 16.051 56.1111 16.051C55.3799 16.051 54.7311 16.2246 54.1644 16.5719C53.6161 16.9009 53.1774 17.367 52.8484 17.9702C52.5377 18.5734 52.3823 19.268 52.3823 20.0539C52.3823 20.8399 52.5377 21.5345 52.8484 22.1377C53.1774 22.7409 53.6161 23.2161 54.1644 23.5634C54.7311 23.8924 55.3799 24.0569 56.1111 24.0569ZM60.6479 26.6341C60.0956 26.6341 59.6479 26.1864 59.6479 25.6341V23.0973L60.1689 19.8894L59.6479 16.709V14.4737C59.6479 13.9215 60.0956 13.4737 60.6479 13.4737H61.6638C62.2161 13.4737 62.6638 13.9215 62.6638 14.4737V25.6341C62.6638 26.1864 62.2161 26.6341 61.6638 26.6341H60.6479Z" fill="#F2F2F2"/>
<path d="M67.0109 26.6341C66.4586 26.6341 66.0109 26.1864 66.0109 25.6341V7.89355C66.0109 7.34127 66.4586 6.89355 67.0109 6.89355H68.0268C68.5791 6.89355 69.0268 7.34127 69.0268 7.89355V25.6341C69.0268 26.1864 68.5791 26.6341 68.0268 26.6341H67.0109Z" fill="#F2F2F2"/>
<path d="M78.4974 26.9083C77.1814 26.9083 75.9933 26.6159 74.9332 26.0309C73.8913 25.4278 73.0596 24.6052 72.4382 23.5634C71.835 22.5215 71.5334 21.3517 71.5334 20.0539C71.5334 18.7562 71.835 17.5955 72.4382 16.5719C73.0414 15.5301 73.8547 14.7075 74.8783 14.1043C75.9202 13.5012 77.0717 13.1996 78.3329 13.1996C79.5576 13.1996 80.636 13.4829 81.5682 14.0495C82.5187 14.6161 83.2589 15.393 83.789 16.38C84.3374 17.367 84.6115 18.4911 84.6115 19.7523C84.6115 19.9717 84.5933 20.2002 84.5567 20.4378C84.5384 20.6571 84.5019 20.9039 84.447 21.1781H73.6445V18.7105H82.8842L81.7601 19.6975C81.7236 18.8933 81.5682 18.217 81.294 17.6686C81.0198 17.1203 80.6269 16.6999 80.1151 16.4074C79.6216 16.115 79.0092 15.9687 78.2781 15.9687C77.5104 15.9687 76.8432 16.1332 76.2766 16.4623C75.71 16.7913 75.2713 17.2574 74.9606 17.8605C74.6498 18.4454 74.4945 19.1492 74.4945 19.9717C74.4945 20.7942 74.659 21.5162 74.988 22.1377C75.317 22.7591 75.7831 23.2435 76.3863 23.5908C76.9895 23.9198 77.6841 24.0843 78.47 24.0843C79.1463 24.0843 79.7678 23.9655 80.3344 23.7279C80.5725 23.6312 80.7955 23.5162 81.0033 23.3832C81.4919 23.0703 82.1613 23.0373 82.5686 23.4504L83.0899 23.9792C83.4543 24.3488 83.481 24.9436 83.0902 25.2852C82.5925 25.7203 82.0303 26.0694 81.4037 26.3325C80.4898 26.7164 79.521 26.9083 78.4974 26.9083Z" fill="#F2F2F2"/>
<path d="M97.0495 26.6341C96.4973 26.6341 96.0495 26.1864 96.0495 25.6341V19.0395C96.0495 18.1621 95.7662 17.4401 95.1996 16.8735C94.6513 16.3069 93.9384 16.0236 93.061 16.0236C92.4761 16.0236 91.9552 16.1515 91.4982 16.4074C91.0413 16.6633 90.6849 17.0197 90.429 17.4767C90.1731 17.9337 90.0451 18.4546 90.0451 19.0395L88.8662 18.3815C88.8662 17.3762 89.0855 16.4897 89.5242 15.722C89.9629 14.936 90.5661 14.3237 91.3337 13.885C92.1197 13.4281 92.9971 13.1996 93.9658 13.1996C94.9528 13.1996 95.8302 13.4555 96.5979 13.9673C97.3656 14.4608 97.9688 15.1097 98.4075 15.9139C98.8461 16.6999 99.0655 17.5224 99.0655 18.3815V25.6341C99.0655 26.1864 98.6178 26.6341 98.0655 26.6341H97.0495ZM88.0292 26.6341C87.4769 26.6341 87.0292 26.1864 87.0292 25.6341V14.4737C87.0292 13.9215 87.4769 13.4737 88.0292 13.4737H89.0451C89.5974 13.4737 90.0451 13.9215 90.0451 14.4737V25.6341C90.0451 26.1864 89.5974 26.6341 89.0451 26.6341H88.0292Z" fill="#F2F2F2"/>
<path d="M104.971 26.6341C104.419 26.6341 103.971 26.1864 103.971 25.6341V8.99026C103.971 8.43797 104.419 7.99025 104.971 7.99025H105.987C106.539 7.99025 106.987 8.43797 106.987 8.99025V25.6341C106.987 26.1864 106.539 26.6341 105.987 26.6341H104.971ZM101.818 16.2155C101.266 16.2155 100.818 15.7678 100.818 15.2155V14.4737C100.818 13.9215 101.266 13.4737 101.818 13.4737H113.978V16.2155H101.818Z" fill="#F2F2F2"/>
<path d="M113.604 26.6341V9.271H114.954V26.6341H113.604ZM114.47 26.6341V25.4121H128.138V26.6341H114.47ZM114.47 18.309V17.1379H124.119V18.309H114.47ZM114.47 10.493V9.271H124.17C124.507 9.271 124.781 9.54456 124.781 9.88201C124.781 10.2195 124.507 10.493 124.17 10.493H114.47Z" fill="#E7E7E7"/>
<path d="M128.138 26.6341V14.7956H129.436V26.6341H128.138ZM137.087 26.6341C136.728 26.6341 136.438 26.3434 136.438 25.9849V19.2764C136.438 18.2071 136.115 17.35 135.47 16.705C134.842 16.0601 134.036 15.7376 133.052 15.7376C132.39 15.7376 131.787 15.8819 131.244 16.1704C130.701 16.4589 130.26 16.8663 129.92 17.3924C129.598 17.9186 129.436 18.5296 129.436 19.2255L128.775 19.0727C128.775 18.1562 128.97 17.3585 129.36 16.6796C129.767 16.0007 130.311 15.4745 130.989 15.1011C131.685 14.7277 132.458 14.541 133.306 14.541C134.155 14.541 134.91 14.7277 135.572 15.1011C136.234 15.4745 136.76 16.0007 137.151 16.6796C137.541 17.3585 137.736 18.1562 137.736 19.0727V25.9849C137.736 26.3434 137.445 26.6341 137.087 26.6341ZM145.387 26.6341C145.028 26.6341 144.737 26.3434 144.737 25.9849V19.2764C144.737 18.2071 144.415 17.35 143.77 16.705C143.142 16.0601 142.336 15.7376 141.351 15.7376C140.689 15.7376 140.078 15.8819 139.518 16.1704C138.975 16.4589 138.542 16.8663 138.22 17.3924C137.897 17.9186 137.736 18.5296 137.736 19.2255L136.947 19.0727C136.964 18.1392 137.176 17.3415 137.583 16.6796C138.008 16.0007 138.568 15.4745 139.264 15.1011C139.96 14.7277 140.732 14.541 141.58 14.541C142.429 14.541 143.184 14.7277 143.846 15.1011C144.508 15.4745 145.034 16.0092 145.425 16.705C145.832 17.384 146.036 18.1817 146.036 19.0982V25.9849C146.036 26.3434 145.745 26.6341 145.387 26.6341Z" fill="#E7E7E7"/>
<path d="M155.603 26.8887C154.72 26.8887 153.905 26.7105 153.159 26.354C152.429 25.9976 151.818 25.5054 151.325 24.8774C150.833 24.2324 150.511 23.4856 150.358 22.637V18.7672C150.511 17.9016 150.833 17.1548 151.325 16.5268C151.835 15.8819 152.454 15.3897 153.184 15.0502C153.931 14.7108 154.737 14.541 155.603 14.541C156.723 14.541 157.724 14.8126 158.607 15.3557C159.489 15.8988 160.185 16.6372 160.694 17.5707C161.204 18.5042 161.458 19.5565 161.458 20.7276C161.458 21.8987 161.204 22.951 160.694 23.8845C160.185 24.801 159.489 25.5309 158.607 26.074C157.724 26.6171 156.723 26.8887 155.603 26.8887ZM155.373 25.6666C156.307 25.6666 157.13 25.4545 157.843 25.0302C158.556 24.6058 159.116 24.0203 159.523 23.2735C159.931 22.5267 160.134 21.6696 160.134 20.7021C160.134 19.7347 159.931 18.8776 159.523 18.1308C159.116 17.384 158.556 16.8069 157.843 16.3995C157.147 15.9752 156.349 15.7631 155.45 15.7631C154.533 15.7631 153.727 15.9752 153.031 16.3995C152.352 16.8069 151.818 17.384 151.427 18.1308C151.037 18.8776 150.842 19.7432 150.842 20.7276C150.842 21.695 151.028 22.5522 151.402 23.299C151.792 24.0288 152.327 24.6058 153.006 25.0302C153.702 25.4545 154.491 25.6666 155.373 25.6666ZM150.243 31.6495C149.885 31.6495 149.594 31.3589 149.594 31.0003V15.4448C149.594 15.0863 149.885 14.7956 150.243 14.7956C150.602 14.7956 150.893 15.0863 150.893 15.4448V17.7489L150.587 20.6257L150.893 23.5281V31.0003C150.893 31.3589 150.602 31.6495 150.243 31.6495Z" fill="#E7E7E7"/>
<path d="M165.198 26.6341C164.847 26.6341 164.562 26.3491 164.562 25.9976V15.4321C164.562 15.0806 164.847 14.7956 165.198 14.7956C165.55 14.7956 165.835 15.0806 165.835 15.4321V25.9976C165.835 26.3491 165.55 26.6341 165.198 26.6341ZM165.198 12.046C164.91 12.046 164.664 11.9442 164.46 11.7405C164.273 11.5199 164.18 11.2653 164.18 10.9768C164.18 10.6882 164.273 10.4506 164.46 10.2639C164.664 10.0602 164.91 9.95839 165.198 9.95839C165.487 9.95839 165.733 10.0602 165.937 10.2639C166.14 10.4506 166.242 10.6882 166.242 10.9768C166.242 11.2653 166.14 11.5199 165.937 11.7405C165.733 11.9442 165.487 12.046 165.198 12.046Z" fill="#E7E7E7"/>
<path d="M170.357 26.6341C169.999 26.6341 169.708 26.3434 169.708 25.9849V15.4448C169.708 15.0863 169.999 14.7956 170.357 14.7956C170.716 14.7956 171.006 15.0863 171.006 15.4448V25.9849C171.006 26.3434 170.716 26.6341 170.357 26.6341ZM171.006 19.5565L170.37 19.3273C170.37 17.8168 170.752 16.6456 171.516 15.814C172.279 14.9653 173.281 14.541 174.52 14.541C175.097 14.541 175.631 14.6429 176.124 14.8465C176.469 14.9847 176.795 15.1813 177.101 15.4365C177.354 15.6471 177.348 16.0252 177.123 16.2644C176.872 16.5294 176.454 16.5166 176.16 16.3008C175.984 16.1721 175.803 16.0692 175.614 15.9922C175.241 15.8394 174.8 15.7631 174.291 15.7631C173.323 15.7631 172.534 16.094 171.923 16.756C171.312 17.4009 171.006 18.3344 171.006 19.5565Z" fill="#E7E7E7"/>
<path d="M184.654 26.8887C183.482 26.8887 182.422 26.6171 181.471 26.074C180.538 25.5309 179.799 24.7926 179.256 23.859C178.713 22.9256 178.442 21.8732 178.442 20.7021C178.442 19.531 178.705 18.4872 179.231 17.5707C179.757 16.6372 180.478 15.8988 181.395 15.3557C182.328 14.8126 183.364 14.541 184.501 14.541C185.587 14.541 186.538 14.7871 187.352 15.2793C188.184 15.7546 188.829 16.4165 189.287 17.2651C189.762 18.1138 190 19.0897 190 20.1929C190 20.2948 189.992 20.4306 189.975 20.6003C189.958 20.753 189.932 20.9482 189.898 21.1858H179.358V20.0656H189.16L188.727 20.4221C188.761 19.4886 188.608 18.6739 188.269 17.978C187.929 17.2651 187.437 16.7135 186.792 16.3232C186.147 15.9328 185.375 15.7376 184.475 15.7376C183.542 15.7376 182.719 15.9498 182.006 16.3741C181.293 16.7814 180.733 17.35 180.326 18.0798C179.935 18.8097 179.74 19.6583 179.74 20.6257C179.74 21.6441 179.944 22.5352 180.351 23.299C180.775 24.0457 181.361 24.6313 182.108 25.0556C182.854 25.463 183.729 25.6666 184.73 25.6666C185.494 25.6666 186.198 25.5309 186.843 25.2593C187.3 25.0603 187.704 24.7968 188.055 24.4687C188.311 24.2295 188.717 24.1987 188.968 24.4429C189.191 24.659 189.211 25.0133 188.988 25.2289C188.514 25.687 187.952 26.062 187.301 26.354C186.487 26.7105 185.604 26.8887 184.654 26.8887Z" fill="#E7E7E7"/>
<path d="M15.824 31.5301H27.7883C28.3406 31.5301 28.7883 31.0824 28.7883 30.5301V29.005C28.7883 28.4527 28.3406 28.005 27.7883 28.005H15.824V31.5301Z" fill="url(#paint0_linear_1_6)"/>
<path d="M15.824 31.5301H27.7883C28.3406 31.5301 28.7883 31.0824 28.7883 30.5301V29.005C28.7883 28.4527 28.3406 28.005 27.7883 28.005H15.824V31.5301Z" fill="#E7E7E7"/>
<path d="M25.4703 19.6124C25.4703 19.0601 25.0226 18.6124 24.4703 18.6124H15.824V21.7381H24.4703C25.0226 21.7381 25.4703 21.2904 25.4703 20.7381V19.6124Z" fill="url(#paint1_linear_1_6)"/>
<path d="M25.4703 19.6124C25.4703 19.0601 25.0226 18.6124 24.4703 18.6124H15.824V21.7381H24.4703C25.0226 21.7381 25.4703 21.2904 25.4703 20.7381V19.6124Z" fill="#E7E7E7"/>
<path d="M22.7556 10.5999C22.7556 10.0477 22.3079 9.59995 21.7556 9.59995H15.824V12.3037H21.7556C22.3079 12.3037 22.7556 11.856 22.7556 11.3037V10.5999Z" fill="url(#paint2_linear_1_6)"/>
<path d="M22.7556 10.5999C22.7556 10.0477 22.3079 9.59995 21.7556 9.59995H15.824V12.3037H21.7556C22.3079 12.3037 22.7556 11.856 22.7556 11.3037V10.5999Z" fill="#E7E7E7"/>
<path fill-rule="evenodd" clip-rule="evenodd" d="M10.9895 7.02521L10.9685 30.5292C10.968 31.0818 11.4159 31.5301 11.9685 31.5301H15.824V28.005V21.7381V18.6124V12.3037V9.59995V4.70309L10.9895 7.02521ZM15.824 4.70309V1.58969C15.824 0.853228 15.0549 0.369419 14.391 0.688282L0.567034 7.32822C0.220447 7.4947 0 7.84514 0 8.22964V10.714C0 11.4504 0.769109 11.9343 1.43297 11.6154L10.9895 7.02521L15.824 4.70309Z" fill="url(#paint3_linear_1_6)"/>
<path fill-rule="evenodd" clip-rule="evenodd" d="M10.9895 7.02521L10.9685 30.5292C10.968 31.0818 11.4159 31.5301 11.9685 31.5301H15.824V28.005V21.7381V18.6124V12.3037V9.59995V4.70309L10.9895 7.02521ZM15.824 4.70309V1.58969C15.824 0.853228 15.0549 0.369419 14.391 0.688282L0.567034 7.32822C0.220447 7.4947 0 7.84514 0 8.22964V10.714C0 11.4504 0.769109 11.9343 1.43297 11.6154L10.9895 7.02521L15.824 4.70309Z" fill="#F2F2F2"/>
<defs>
<linearGradient id="paint0_linear_1_6" x1="1.17503" y1="9.20444" x2="49.5473" y2="34.8594" gradientUnits="userSpaceOnUse">
<stop stop-color="#DFF0FF"/>
<stop offset="1" stop-color="#E9B10C"/>
</linearGradient>
<linearGradient id="paint1_linear_1_6" x1="1.17503" y1="9.20444" x2="49.5473" y2="34.8594" gradientUnits="userSpaceOnUse">
<stop stop-color="#DFF0FF"/>
<stop offset="1" stop-color="#E9B10C"/>
</linearGradient>
<linearGradient id="paint2_linear_1_6" x1="1.17503" y1="9.20444" x2="49.5473" y2="34.8594" gradientUnits="userSpaceOnUse">
<stop stop-color="#DFF0FF"/>
<stop offset="1" stop-color="#E9B10C"/>
</linearGradient>
<linearGradient id="paint3_linear_1_6" x1="1.17503" y1="9.20444" x2="49.5473" y2="34.8594" gradientUnits="userSpaceOnUse">
<stop stop-color="#DFF0FF"/>
<stop offset="1" stop-color="#E9B10C"/>
</linearGradient>
</defs>
</svg>
