<svg width="643" height="467" viewBox="0 0 643 467" fill="none" xmlns="http://www.w3.org/2000/svg">
<path d="M405.795 237.845C405.079 241.585 404.219 245.286 403.217 248.949C403.109 249.374 402.987 249.794 402.866 250.219H388.927C387.74 250.22 386.601 250.689 385.762 251.522C384.922 252.355 384.45 253.485 384.449 254.663V294.1C384.027 294.881 383.598 295.656 383.169 296.43C380.956 300.43 378.653 304.385 376.299 308.29C337.913 371.748 284.376 424.851 220.413 462.91L224.2 454.428C222.812 454.333 221.418 454.238 220.03 454.143C189.804 452.092 159.476 449.819 129.961 443.077C99.0833 436.024 68.8773 423.79 44.6778 403.506C20.4718 383.216 2.72693 354.241 0.264058 322.891C-0.557177 312.117 0.54075 301.284 3.50748 290.888C9.18129 270.877 21.5787 252.873 39.4644 242.22C67.5595 225.491 104.207 228.9 133.825 242.816C163.436 256.726 187.54 279.753 211.074 302.379C187.313 261.94 154.229 227.668 114.538 202.376C101.386 194.021 87.4283 186.58 76.2466 175.756C65.0711 164.938 56.8254 149.771 58.8022 134.401C61.0474 116.968 75.4342 103.737 89.8462 93.5352C95.6034 89.4594 101.546 85.5931 107.674 82.0379C124.965 71.9817 143.67 64.3951 163.423 61.5826C190.182 57.7671 219.083 63.5571 239.598 81.0284C262.71 100.715 272.19 132.465 271.288 162.837C285.527 142.293 307.488 126.567 332.289 125.9C358.036 125.215 382.511 141.359 395.407 163.491C408.297 185.615 410.612 212.737 405.795 237.845Z" fill="#3F8CFF" fill-opacity="0.19"/>
<path d="M241.362 323.156C256.347 321.838 270.189 320.298 284.71 316.195C298.785 312.217 312.329 305.558 322.349 294.685C333.126 282.991 338.944 267.803 343.048 252.684C345.337 244.255 347.217 235.707 348.991 227.157C350.916 217.88 352.627 208.562 354.123 199.203C357.1 180.574 359.226 161.835 360.5 142.987C360.654 140.699 360.795 138.41 360.923 136.12C361.003 134.708 358.803 134.713 358.724 136.12C357.678 154.7 355.795 173.207 353.076 191.641C350.394 209.753 346.961 227.786 342.606 245.574C338.916 260.642 334.14 275.946 324.677 288.49C315.804 300.253 302.988 307.94 289.15 312.536C275.069 317.213 260.222 319.08 245.507 320.468C243.702 320.638 243.168 320.801 241.362 320.96C239.963 321.083 239.95 323.28 241.362 323.156L241.362 323.156Z" fill="white"/>
<path d="M4.76219 292.499C23.6684 293.546 42.3823 296.839 60.5082 302.309C78.6418 307.768 96.0677 315.344 112.425 324.879C128.23 334.1 142.902 345.133 156.144 357.754C168.995 370.011 180.449 383.65 190.295 398.423C200.186 413.233 208.384 429.104 214.733 445.739C215.507 447.775 216.253 449.821 216.97 451.878C217.434 453.204 219.559 452.634 219.091 451.294C213.151 434.308 205.32 418.042 195.745 402.801C186.172 387.559 174.938 373.424 162.247 360.654C149.353 347.686 135.002 336.248 119.481 326.568C86.8908 306.293 49.9504 294.028 11.6929 290.779C9.38509 290.586 7.07487 290.427 4.76222 290.302C3.34792 290.225 3.35227 292.422 4.76222 292.499L4.76219 292.499Z" fill="white"/>
<path d="M107.595 84.6118C119.684 88.4514 131.142 94.0435 141.603 101.209C152.292 108.581 162.041 117.228 170.634 126.958C179.688 137.194 187.739 148.274 194.673 160.046C202.029 172.476 208.419 185.451 213.787 198.857C219.315 212.62 223.964 226.72 227.707 241.07C231.511 255.591 234.483 270.317 236.607 285.175C238.721 299.876 240 314.685 240.438 329.531C240.88 343.726 240.46 357.935 239.18 372.08C238.01 385.276 235.872 398.369 232.784 411.253C230.041 422.89 226.177 434.234 221.244 445.126C220.101 447.598 218.889 450.036 217.606 452.439C216.941 453.687 218.839 454.798 219.506 453.548C224.957 443.144 229.31 432.202 232.494 420.899C236.067 408.316 238.656 395.475 240.24 382.492C241.995 368.406 242.85 354.223 242.799 340.028C242.767 325.116 241.879 310.218 240.137 295.407C238.395 280.412 235.808 265.526 232.388 250.822C228.978 236.093 224.651 221.591 219.434 207.4C214.405 193.662 208.384 180.307 201.419 167.44C194.784 155.162 187.053 143.507 178.319 132.619C170.024 122.251 160.554 112.878 150.099 104.688C140.017 96.8146 128.876 90.3964 117.004 85.6226C114.103 84.4693 111.161 83.4264 108.18 82.4937C106.827 82.0685 106.248 84.1883 107.595 84.6118H107.595Z" fill="white"/>
<path d="M247.514 466.689C346.647 466.689 427.01 463.728 427.01 460.076C427.01 456.424 346.647 453.463 247.514 453.463C148.382 453.463 68.0186 456.424 68.0186 460.076C68.0186 463.728 148.382 466.689 247.514 466.689Z" fill="#CFD1F8"/>
<path d="M270.476 445.778L278.014 447.751L289.221 419.65L278.095 416.738L270.476 445.778Z" fill="#FFB8B8"/>
<path d="M290.72 458.547L267.028 452.346L269.426 443.204L283.965 447.009C286.392 447.644 288.468 449.217 289.735 451.38C291.002 453.544 291.356 456.122 290.72 458.547Z" fill="#2F2E41"/>
<path d="M337.487 451.139L345.159 449.77L343.524 419.567L332.202 421.587L337.487 451.139Z" fill="#FFB8B8"/>
<path d="M361.225 454.245L337.115 458.546L335.451 449.243L350.245 446.604C351.469 446.385 352.723 446.41 353.937 446.676C355.151 446.942 356.3 447.444 357.32 448.153C358.339 448.863 359.209 449.766 359.879 450.811C360.549 451.857 361.006 453.023 361.225 454.245Z" fill="#2F2E41"/>
<path d="M322.382 229.015C324.272 229.475 325.81 231.399 326.733 233.627C327.585 235.968 328.162 238.4 328.452 240.874C329.178 245.48 329.875 250.468 328.374 254.734C326.615 259.735 321.927 262.354 317.861 261.124C313.795 259.893 310.561 255.272 309.456 249.954C308.45 244.58 309.099 239.028 311.315 234.03C312.47 231.404 314.062 228.981 316.178 227.796C317.216 227.169 318.453 226.958 319.64 227.205C320.828 227.452 321.877 228.139 322.578 229.127" fill="#2F2E41"/>
<path d="M333.077 312.424L347.682 443.069L335.62 447.644L313.372 360.037L282.399 440.139L269.195 440.872C269.195 440.872 287.311 316.233 300.737 313.401L333.077 312.424Z" fill="#2F2E41"/>
<path d="M320.809 245.688C329.431 245.688 336.421 238.707 336.421 230.096C336.421 221.485 329.431 214.504 320.809 214.504C312.187 214.504 305.197 221.485 305.197 230.096C305.197 238.707 312.187 245.688 320.809 245.688Z" fill="#FFB8B8"/>
<path d="M316.727 244.271C319.173 242.862 319.434 239.462 319.102 236.661C318.769 233.86 318.214 230.738 319.863 228.448C321.83 225.714 325.783 225.66 329.152 225.571C332.521 225.481 336.625 224.496 337.498 221.245C338.074 219.096 336.84 216.791 335.069 215.442C333.298 214.094 331.082 213.497 328.929 212.931C324.111 211.663 319.136 210.385 314.203 211.082C309.317 211.772 304.9 214.355 301.906 218.274C298.913 222.192 297.585 227.13 298.209 232.018C299.007 238.272 300.165 241.003 299.405 243.76C297.99 248.896 291.885 252.196 291.764 257.521C291.668 261.687 295.353 264.901 298.947 267.016C301.798 268.694 304.876 270.118 308.162 270.51C311.447 270.903 314.985 270.151 317.433 267.927C320.59 265.058 321.371 260.265 320.465 256.099C319.56 251.933 317.238 248.234 314.941 244.641" fill="#2F2E41"/>
<path d="M327.51 252.229L310.639 250.032C310.639 250.032 299.636 263.218 300.37 285.929C301.103 308.639 298.536 315.598 298.536 315.598L333.713 316.233C328.628 309.25 349.897 269.143 327.51 252.229Z" fill="#3F8CFF"/>
<path d="M336.573 319.407C336.221 319.41 335.87 319.44 335.523 319.498L313.94 296.551L316.14 289.225L305.504 284.463L298.902 300.58L329.955 325.25C329.788 326.592 330.034 327.954 330.661 329.153C331.288 330.353 332.265 331.333 333.464 331.964C334.662 332.595 336.024 332.847 337.369 332.686C338.714 332.525 339.979 331.959 340.994 331.063C342.009 330.167 342.726 328.983 343.052 327.67C343.377 326.357 343.294 324.975 342.814 323.71C342.334 322.445 341.48 321.355 340.365 320.587C339.25 319.818 337.927 319.407 336.573 319.407Z" fill="#FFB8B8"/>
<path d="M377.043 261.504C376.965 261.847 376.914 262.195 376.891 262.545L349.585 278.278L342.948 274.462L335.873 283.713L350.071 293.82L381.223 269.275C382.493 269.745 383.877 269.817 385.189 269.482C386.502 269.147 387.681 268.421 388.571 267.4C389.46 266.38 390.017 265.113 390.168 263.768C390.319 262.424 390.056 261.065 389.415 259.873C388.774 258.681 387.785 257.712 386.579 257.096C385.373 256.479 384.008 256.243 382.665 256.42C381.322 256.598 380.065 257.179 379.06 258.087C378.056 258.995 377.352 260.187 377.043 261.504Z" fill="#FFB8B8"/>
<path d="M73.9172 443.917C74.3545 443.933 74.7861 443.813 75.1536 443.574C75.521 443.335 75.8066 442.989 75.9716 442.581C76.1365 442.173 76.1729 441.724 76.0758 441.295C75.9786 440.866 75.7527 440.477 75.4286 440.182C75.3727 439.967 75.3326 439.813 75.2768 439.598C75.685 438.525 76.4024 437.6 77.3371 436.94C78.2718 436.279 79.3812 435.915 80.5231 435.893C81.665 435.872 82.7873 436.193 83.7462 436.817C84.7051 437.441 85.4569 438.339 85.9052 439.396C88.4908 445.326 91.8226 451.459 90.2567 458.033C100.793 435.008 96.8659 406.53 80.789 387.079C76.3734 384.688 72.7722 380.398 71.7979 375.386C73.9788 376.106 76.6724 374.301 75.0161 372.014C74.2993 371.14 73.5756 370.274 72.8588 369.4C81.033 360.475 91.0038 374.284 82.0273 386.31C85.0362 390.031 87.6501 394.059 89.8265 398.327C89.2901 393.778 89.8352 389.166 91.4167 384.87C93.0229 380.865 96.0725 377.476 98.7534 374.001C102.013 369.768 108.822 371.641 109.316 376.969C106.281 378.005 105.927 382.433 109.416 383.005C108.597 392.933 102.241 402.111 93.4078 406.546C96.7725 415.763 98.1453 425.596 97.4349 435.389C98.893 423.938 111.071 421.046 119.558 416.419C120.098 416.064 120.729 415.874 121.374 415.873C122.019 415.872 122.65 416.06 123.191 416.414C123.732 416.767 124.158 417.272 124.419 417.865C124.679 418.459 124.762 419.116 124.658 419.756C123.485 420.249 122.364 420.857 121.311 421.573C120.818 421.914 120.441 422.399 120.233 422.964C120.024 423.528 119.995 424.143 120.148 424.725C120.301 425.307 120.629 425.827 121.088 426.214C121.546 426.601 122.113 426.836 122.709 426.886C118.51 437.631 107.462 444.925 96.0437 444.994C94.9919 449.801 93.4463 454.484 91.4319 458.969L74.4859 459.131C74.4233 458.942 74.3668 458.747 74.3103 458.558C75.8798 458.643 77.4536 458.533 78.9967 458.233C74.8 453.33 71.5667 450.84 73.9166 443.917L73.9172 443.917Z" fill="#3F8CFF"/>
<path d="M419.829 450.153C419.517 450.165 419.208 450.079 418.946 449.909C418.683 449.738 418.479 449.49 418.362 449.199C418.244 448.908 418.218 448.587 418.287 448.281C418.356 447.974 418.518 447.696 418.749 447.485C418.789 447.332 418.818 447.222 418.858 447.069C418.566 446.302 418.054 445.641 417.386 445.169C416.718 444.698 415.926 444.438 415.11 444.422C414.295 444.407 413.493 444.636 412.808 445.082C412.123 445.528 411.586 446.169 411.266 446.924C409.419 451.16 407.039 455.54 408.158 460.236C400.632 443.79 403.437 423.448 414.921 409.555C418.075 407.847 420.647 404.782 421.343 401.203C419.785 401.717 417.861 400.428 419.044 398.794C419.556 398.17 420.073 397.551 420.585 396.927C414.746 390.552 407.624 400.415 414.036 409.005C411.887 411.663 410.02 414.54 408.465 417.589C408.848 414.339 408.459 411.045 407.329 407.977C406.182 405.116 404.004 402.695 402.089 400.214C399.761 397.19 394.897 398.528 394.544 402.334C396.712 403.073 396.965 406.236 394.473 406.645C395.057 413.736 399.598 420.292 405.907 423.46C403.504 430.044 402.523 437.067 403.031 444.062C401.989 435.883 393.29 433.817 387.228 430.512C386.843 430.258 386.392 430.123 385.931 430.122C385.471 430.121 385.02 430.255 384.633 430.508C384.247 430.761 383.943 431.121 383.756 431.545C383.57 431.969 383.511 432.438 383.585 432.895C384.423 433.247 385.224 433.682 385.976 434.193C386.329 434.437 386.598 434.784 386.746 435.187C386.895 435.59 386.916 436.029 386.807 436.445C386.698 436.861 386.463 437.232 386.136 437.508C385.808 437.785 385.404 437.952 384.978 437.989C387.977 445.664 395.869 450.874 404.024 450.923C404.776 454.356 405.88 457.701 407.318 460.905L419.423 461.021C419.467 460.886 419.508 460.746 419.548 460.612C418.427 460.672 417.303 460.593 416.201 460.379C419.198 456.877 421.508 455.098 419.829 450.153L419.829 450.153Z" fill="#3F8CFF"/>
<path d="M314.858 271.156L336.357 286.46L345.973 274.419L325.073 257.671C324.174 256.95 323.137 256.42 322.026 256.114C320.915 255.808 319.752 255.731 318.611 255.889C317.469 256.047 316.371 256.437 315.385 257.033C314.399 257.63 313.545 258.421 312.876 259.359C311.573 261.186 311.049 263.455 311.42 265.667C311.792 267.88 313.028 269.854 314.858 271.156Z" fill="#3F8CFF"/>
<path d="M310.416 267.886L300.419 292.292L314.356 298.885L325.898 274.733C326.394 273.693 326.673 272.564 326.717 271.414C326.762 270.263 326.57 269.116 326.155 268.042C325.739 266.968 325.109 265.989 324.302 265.167C323.495 264.345 322.528 263.696 321.461 263.26C320.432 262.84 319.329 262.626 318.217 262.631C317.105 262.636 316.005 262.859 314.979 263.289C313.953 263.718 313.022 264.345 312.239 265.134C311.456 265.923 310.837 266.858 310.416 267.886Z" fill="#3F8CFF"/>
<circle cx="498.808" cy="404.338" r="28.3414" fill="#7997FF"/>
<path d="M622.173 278.525C622.075 278.525 622.014 278.523 621.992 278.521L610.28 278.523V276.79H622.034C622.307 276.8 627.859 276.957 632.975 270.729C640.6 261.446 646.861 238.467 633.391 181.709C615.28 105.389 630.385 37.9655 637.721 12.5198C638.082 11.2609 638.147 9.93493 637.909 8.64665C637.672 7.35837 637.14 6.14308 636.354 5.09681C635.568 4.05053 634.55 3.20193 633.381 2.61808C632.213 2.03422 630.924 1.7311 629.618 1.73265H454.7C453.37 1.73444 452.06 2.0508 450.875 2.65605C449.689 3.26131 448.663 4.13841 447.879 5.21615C444.772 9.50462 440.508 17.7432 437.839 32.6398L436.14 32.3336C438.866 17.1133 443.269 8.63237 446.482 4.19754C447.427 2.89891 448.663 1.84203 450.091 1.1127C451.519 0.383379 453.098 0.00215785 454.7 4.71455e-06H629.619C631.192 -0.00151441 632.744 0.364108 634.153 1.06798C635.561 1.77186 636.787 2.79471 637.734 4.05571C638.681 5.31672 639.322 6.78134 639.608 8.33385C639.894 9.88636 639.815 11.4842 639.38 13.0012C632.082 38.3149 617.055 105.389 635.071 181.308C648.73 238.864 642.164 262.341 634.25 271.901C629.031 278.206 623.28 278.525 622.173 278.525Z" fill="#DFDDDD"/>
<path d="M590.442 310.256C590.344 310.256 590.282 310.253 590.261 310.252L578.548 310.253V308.521H590.303C590.577 308.529 596.128 308.688 601.244 302.459C608.868 293.177 615.129 270.198 601.66 213.44C583.548 137.12 598.654 69.6962 605.989 44.2505C606.35 42.9916 606.415 41.6656 606.178 40.3773C605.941 39.0891 605.408 37.8738 604.622 36.8275C603.837 35.7812 602.819 34.9326 601.65 34.3488C600.481 33.7649 599.193 33.4618 597.887 33.4633H422.969C421.639 33.4651 420.328 33.7815 419.143 34.3867C417.958 34.992 416.932 35.8691 416.148 36.9468C413.04 41.2353 408.776 49.4739 406.108 64.3705L404.408 64.0643C407.134 48.844 411.537 40.3631 414.751 35.9282C415.695 34.6296 416.932 33.5727 418.36 32.8434C419.787 32.1141 421.367 31.7328 422.969 31.7307H597.887C599.461 31.7292 601.013 32.0948 602.421 32.7987C603.83 33.5026 605.056 34.5254 606.003 35.7864C606.949 37.0474 607.591 38.512 607.876 40.0645C608.162 41.617 608.084 43.2149 607.648 44.7319C600.351 70.0456 585.323 137.12 603.34 213.038C616.999 270.595 610.432 294.072 602.519 303.631C597.299 309.936 591.548 310.256 590.442 310.256Z" fill="#BFBFC0"/>
<path d="M558.722 341.987C558.625 341.987 558.563 341.984 558.542 341.983L386.408 341.984C384.75 341.986 383.118 341.58 381.653 340.802C380.188 340.024 378.936 338.898 378.005 337.521C377.074 336.145 376.494 334.56 376.315 332.906C376.135 331.252 376.362 329.58 376.976 328.034C383.222 312.371 391.631 274.791 377.78 199.091C361.425 109.704 376.067 77.3992 383.122 67.659C384.066 66.3603 385.301 65.3034 386.729 64.5741C388.156 63.8448 389.734 63.4636 391.336 63.4614H566.164C567.737 63.4599 569.288 63.8255 570.696 64.5294C572.104 65.2333 573.329 66.2561 574.276 67.5171C575.222 68.7781 575.863 70.2427 576.149 71.7953C576.434 73.3478 576.356 74.9456 575.92 76.4626C568.627 101.776 553.607 168.85 571.614 244.769C585.266 302.326 578.703 325.803 570.794 335.362C565.577 341.667 559.829 341.987 558.722 341.987ZM391.336 65.1941C390.006 65.1958 388.696 65.5122 387.512 66.1175C386.327 66.7227 385.301 67.5998 384.518 68.6776C377.594 78.2372 363.243 110.051 379.478 198.778C392.71 271.094 386.292 309.333 378.579 328.678C378.059 329.955 377.864 331.341 378.011 332.712C378.158 334.083 378.643 335.395 379.422 336.531C380.194 337.678 381.235 338.616 382.453 339.265C383.671 339.914 385.029 340.252 386.408 340.251H558.584C558.856 340.264 564.406 340.419 569.519 334.19C577.14 324.908 583.397 301.928 569.935 245.17C551.833 168.851 566.931 101.427 574.262 75.9812C574.623 74.7223 574.688 73.3963 574.451 72.1081C574.214 70.8198 573.681 69.6045 572.896 68.5582C572.111 67.5119 571.094 66.6633 569.925 66.0795C568.757 65.4956 567.469 65.1925 566.164 65.1941H391.336Z" fill="black"/>
<path d="M537.328 141.025H399.587C397.749 141.025 395.986 140.282 394.686 138.96C393.386 137.638 392.656 135.844 392.656 133.974C392.656 132.104 393.386 130.31 394.686 128.988C395.986 127.666 397.749 126.923 399.587 126.923H537.328C539.166 126.923 540.929 127.666 542.229 128.988C543.528 130.31 544.259 132.104 544.259 133.974C544.259 135.844 543.528 137.638 542.229 138.96C540.929 140.282 539.166 141.025 537.328 141.025Z" fill="#3F8CFF"/>
<path d="M537.328 170.406H399.587C397.749 170.406 395.986 169.663 394.686 168.34C393.386 167.018 392.656 165.225 392.656 163.354C392.656 161.484 393.386 159.691 394.686 158.368C395.986 157.046 397.749 156.303 399.587 156.303H537.328C539.166 156.303 540.929 157.046 542.229 158.368C543.528 159.691 544.259 161.484 544.259 163.354C544.259 165.225 543.528 167.018 542.229 168.34C540.929 169.663 539.166 170.406 537.328 170.406Z" fill="#3F8CFF"/>
<path d="M537.328 199.786H399.587C397.749 199.786 395.986 199.043 394.686 197.721C393.386 196.398 392.656 194.605 392.656 192.735C392.656 190.865 393.386 189.071 394.686 187.749C395.986 186.426 397.749 185.683 399.587 185.683H537.328C539.166 185.683 540.929 186.426 542.229 187.749C543.528 189.071 544.259 190.865 544.259 192.735C544.259 194.605 543.528 196.398 542.229 197.721C540.929 199.043 539.166 199.786 537.328 199.786Z" fill="#3F8CFF"/>
<path d="M546.785 229.166H410.111C408.287 229.166 406.538 228.423 405.248 227.101C403.959 225.779 403.234 223.985 403.234 222.115C403.234 220.245 403.959 218.451 405.248 217.129C406.538 215.807 408.287 215.064 410.111 215.064H546.785C548.609 215.064 550.358 215.807 551.647 217.129C552.937 218.451 553.661 220.245 553.661 222.115C553.661 223.985 552.937 225.779 551.647 227.101C550.358 228.423 548.609 229.166 546.785 229.166Z" fill="#3F8CFF"/>
<path d="M546.785 258.547H410.111C408.287 258.547 406.538 257.804 405.248 256.481C403.959 255.159 403.234 253.365 403.234 251.495C403.234 249.625 403.959 247.832 405.248 246.509C406.538 245.187 408.287 244.444 410.111 244.444H546.785C548.609 244.444 550.358 245.187 551.647 246.509C552.937 247.832 553.661 249.625 553.661 251.495C553.661 253.365 552.937 255.159 551.647 256.481C550.358 257.804 548.609 258.547 546.785 258.547Z" fill="#3F8CFF"/>
<path d="M464.473 111.645H399.578C397.743 111.645 395.982 110.902 394.684 109.58C393.386 108.257 392.656 106.464 392.656 104.594C392.656 102.724 393.386 100.93 394.684 99.6078C395.982 98.2855 397.743 97.5426 399.578 97.5426H464.473C466.309 97.5426 468.07 98.2855 469.368 99.6078C470.666 100.93 471.395 102.724 471.395 104.594C471.395 106.464 470.666 108.257 469.368 109.58C468.07 110.902 466.309 111.645 464.473 111.645Z" fill="#3F8CFF"/>
<path d="M456.311 305.777C457.708 299.995 464.269 298.1 469.633 298.312C473.022 298.536 476.384 299.056 479.679 299.866C483.125 300.62 486.539 301.513 489.935 302.46C496.163 304.196 502.326 306.296 508.657 307.654C513.927 308.784 519.654 309.447 524.91 307.887C529.962 306.387 534.248 302.705 535.622 297.614C536.918 292.816 535.139 287.57 530.385 285.378C526.049 283.379 520.571 284.395 518.422 288.917C515.999 294.015 518.42 299.575 522.257 303.264C524.438 305.266 526.827 307.04 529.384 308.557C531.98 310.286 534.87 311.552 537.918 312.294C542.923 313.339 548.885 311.799 551.466 307.124C552.04 306.065 552.385 304.903 552.48 303.709C552.633 302.083 550.036 302.093 549.884 303.709C549.447 308.364 543.871 310.544 539.701 310.034C536.886 309.578 534.199 308.558 531.806 307.038C529.497 305.722 527.309 304.212 525.267 302.527C521.73 299.534 518.415 294.61 520.791 289.94C522.725 286.138 527.767 286.176 530.833 288.628C534.547 291.598 533.885 296.988 531.435 300.514C528.723 304.419 523.807 306.056 519.172 306.233C514.136 306.424 509.142 305.295 504.329 303.958C498.349 302.298 492.428 300.439 486.418 298.876C483.007 297.989 479.569 297.188 476.096 296.564C472.812 295.857 469.439 295.629 466.086 295.887C460.67 296.498 455.142 299.581 453.808 305.102C453.425 306.69 455.927 307.368 456.311 305.777L456.311 305.777Z" fill="black"/>
</svg>
