<svg width="28" height="27" viewBox="0 0 28 27" fill="none" xmlns="http://www.w3.org/2000/svg">
<path d="M13.8389 10.152C13.1767 10.152 12.5294 10.3484 11.9788 10.7162C11.4282 11.0841 10.9991 11.607 10.7457 12.2188C10.4923 12.8305 10.426 13.5037 10.5552 14.1532C10.6844 14.8026 11.0032 15.3992 11.4715 15.8674C11.9397 16.3356 12.5363 16.6545 13.1857 16.7837C13.8352 16.9129 14.5083 16.8466 15.1201 16.5931C15.7319 16.3397 16.2547 15.9106 16.6226 15.36C16.9905 14.8095 17.1869 14.1622 17.1869 13.5C17.1869 13.0603 17.1003 12.625 16.932 12.2188C16.7638 11.8126 16.5172 11.4435 16.2063 11.1326C15.8954 10.8217 15.5263 10.5751 15.1201 10.4069C14.7139 10.2386 14.2785 10.152 13.8389 10.152ZM27.2444 6.8445C27.2373 5.80197 27.0453 4.76897 26.6774 3.7935C26.4064 3.0797 25.9871 2.43148 25.4473 1.8916C24.9074 1.35172 24.2592 0.932469 23.5454 0.6615C22.5699 0.293576 21.5369 0.101602 20.4944 0.0944999C18.7529 -9.05246e-08 18.2399 0 13.8389 0C9.43787 0 8.92487 -9.05246e-08 7.18337 0.0944999C6.14084 0.101602 5.10784 0.293576 4.13237 0.6615C3.41857 0.932469 2.77034 1.35172 2.23047 1.8916C1.69059 2.43148 1.27134 3.0797 1.00037 3.7935C0.632443 4.76897 0.440469 5.80197 0.433367 6.8445C0.338867 8.586 0.338867 9.099 0.338867 13.5C0.338867 17.901 0.338867 18.414 0.433367 20.1555C0.447898 21.2017 0.639613 22.2379 1.00037 23.22C1.27014 23.9305 1.68904 24.575 2.22887 25.11C2.76643 25.6531 3.41604 26.0724 4.13237 26.3385C5.10784 26.7064 6.14084 26.8984 7.18337 26.9055C8.92487 27 9.43787 27 13.8389 27C18.2399 27 18.7529 27 20.4944 26.9055C21.5369 26.8984 22.5699 26.7064 23.5454 26.3385C24.2617 26.0724 24.9113 25.6531 25.4489 25.11C25.9887 24.575 26.4076 23.9305 26.6774 23.22C27.0449 22.2397 27.2369 21.2024 27.2444 20.1555C27.3389 18.414 27.3389 17.901 27.3389 13.5C27.3389 9.099 27.3389 8.586 27.2444 6.8445ZM23.8154 17.6445C23.772 18.4776 23.5942 19.2982 23.2889 20.0745C23.0268 20.7221 22.6372 21.3103 22.1432 21.8043C21.6492 22.2983 21.0609 22.6879 20.4134 22.95C19.6297 23.2384 18.8045 23.3979 17.9699 23.4225C16.9034 23.4225 16.6199 23.4225 13.8389 23.4225C11.0579 23.4225 10.7744 23.4225 9.70787 23.4225C8.8732 23.3979 8.04803 23.2384 7.26437 22.95C6.59491 22.7012 5.99034 22.3043 5.49587 21.789C5.00672 21.3047 4.62896 20.7196 4.38887 20.0745C4.09937 19.2917 3.94419 18.4655 3.92987 17.631C3.92987 16.5645 3.92987 16.281 3.92987 13.5C3.92987 10.719 3.92987 10.4355 3.92987 9.369C3.94419 8.53446 4.09937 7.70834 4.38887 6.9255C4.63765 6.25604 5.03454 5.65147 5.54987 5.157C6.03632 4.67049 6.62077 4.29313 7.26437 4.05C8.04803 3.76165 8.8732 3.60208 9.70787 3.5775C10.7744 3.5775 11.0579 3.5775 13.8389 3.5775C16.6199 3.5775 16.9034 3.5775 17.9699 3.5775C18.8045 3.60208 19.6297 3.76165 20.4134 4.05C21.0828 4.29878 21.6874 4.69567 22.1819 5.211C22.671 5.69531 23.0488 6.28038 23.2889 6.9255C23.5772 7.70916 23.7368 8.53434 23.7614 9.369C23.7614 10.4355 23.7614 10.719 23.7614 13.5C23.7614 16.281 23.8559 16.5645 23.8154 17.631V17.6445ZM21.6554 7.6005C21.4946 7.16443 21.2412 6.76842 20.9126 6.43979C20.584 6.11116 20.1879 5.85774 19.7519 5.697C19.1531 5.48945 18.5225 5.38892 17.8889 5.4C16.8359 5.4 16.5389 5.4 13.8389 5.4C11.1389 5.4 10.8419 5.4 9.78887 5.4C9.15203 5.40622 8.52131 5.52506 7.92587 5.751C7.49647 5.90444 7.10465 6.14751 6.77646 6.46407C6.44826 6.78063 6.1912 7.16342 6.02237 7.587C5.82632 8.18824 5.73054 8.81765 5.73887 9.45C5.73887 10.503 5.73887 10.8 5.73887 13.5C5.73887 16.2 5.73887 16.497 5.73887 17.55C5.75225 18.1861 5.87086 18.8156 6.08987 19.413C6.2506 19.8491 6.50403 20.2451 6.83266 20.5737C7.16128 20.9023 7.5573 21.1558 7.99337 21.3165C8.56937 21.5283 9.1755 21.6468 9.78887 21.6675C10.8419 21.6675 11.1389 21.6675 13.8389 21.6675C16.5389 21.6675 16.8359 21.6675 17.8889 21.6675C18.5257 21.6613 19.1564 21.5424 19.7519 21.3165C20.1879 21.1558 20.584 20.9023 20.9126 20.5737C21.2412 20.2451 21.4946 19.8491 21.6554 19.413C21.8813 18.8176 22.0001 18.1868 22.0064 17.55C22.0064 16.497 22.0064 16.2 22.0064 13.5C22.0064 10.8 22.0064 10.503 22.0064 9.45C22.0068 8.81253 21.8877 8.18062 21.6554 7.587V7.6005ZM13.8389 18.657C13.1623 18.657 12.4923 18.5235 11.8674 18.2642C11.2425 18.0049 10.6749 17.6248 10.1971 17.1457C9.71929 16.6667 9.3407 16.0981 9.08301 15.4725C8.82532 14.8469 8.69359 14.1766 8.69537 13.5C8.69537 12.4795 8.99817 11.4819 9.56542 10.6335C10.1327 9.78517 10.9389 9.1242 11.882 8.73427C12.8251 8.34435 13.8627 8.24302 14.8634 8.4431C15.8642 8.64318 16.783 9.13568 17.5037 9.85825C18.2244 10.5808 18.7145 11.501 18.9119 12.5022C19.1094 13.5035 19.0053 14.5408 18.6129 15.4829C18.2205 16.425 17.5575 17.2294 16.7076 17.7945C15.8578 18.3595 14.8594 18.6597 13.8389 18.657ZM19.2389 9.3555C18.9404 9.32391 18.6643 9.183 18.4635 8.95991C18.2628 8.73682 18.1518 8.44734 18.1518 8.14725C18.1518 7.84716 18.2628 7.55768 18.4635 7.33459C18.6643 7.1115 18.9404 6.97059 19.2389 6.939C19.5373 6.97059 19.8135 7.1115 20.0142 7.33459C20.2149 7.55768 20.326 7.84716 20.326 8.14725C20.326 8.44734 20.2149 8.73682 20.0142 8.95991C19.8135 9.183 19.5373 9.32391 19.2389 9.3555Z" fill="#3F8CFF"/>
</svg>
