<svg width="59" height="48" viewBox="0 0 59 48" fill="none" xmlns="http://www.w3.org/2000/svg">
<path d="M50.15 0H8.85C6.50283 0 4.2518 0.948212 2.59211 2.63604C0.932408 4.32387 0 6.61305 0 9V39C0 41.3869 0.932408 43.6761 2.59211 45.364C4.2518 47.0518 6.50283 48 8.85 48H50.15C52.4972 48 54.7482 47.0518 56.4079 45.364C58.0676 43.6761 59 41.3869 59 39V9C59 6.61305 58.0676 4.32387 56.4079 2.63604C54.7482 0.948212 52.4972 0 50.15 0V0ZM8.85 6H50.15C50.9324 6 51.6827 6.31607 52.236 6.87868C52.7892 7.44129 53.1 8.20435 53.1 9L29.5 23.64L5.9 9C5.9 8.20435 6.2108 7.44129 6.76404 6.87868C7.31727 6.31607 8.06761 6 8.85 6V6ZM53.1 39C53.1 39.7956 52.7892 40.5587 52.236 41.1213C51.6827 41.6839 50.9324 42 50.15 42H8.85C8.06761 42 7.31727 41.6839 6.76404 41.1213C6.2108 40.5587 5.9 39.7956 5.9 39V15.84L27.966 29.55C28.4145 29.8133 28.9232 29.9519 29.441 29.9519C29.9588 29.9519 30.4675 29.8133 30.916 29.55L53.1 15.84V39Z" fill="black"/>
</svg>
