<svg width="806" height="428" viewBox="0 0 806 428" fill="none" xmlns="http://www.w3.org/2000/svg">
<g clip-path="url(#clip0_6_2075)">
<path d="M800.821 426.926H351.99C349.156 426.926 346.811 424.582 346.811 421.75V5.17545C346.811 2.3436 349.156 0 351.99 0H800.821C803.655 0 806 2.3436 806 5.17545V421.653C806 424.582 803.655 426.926 800.821 426.926ZM351.99 2.05065C350.231 2.05065 348.863 3.41775 348.863 5.17545V421.653C348.863 423.41 350.231 424.778 351.99 424.778H800.821C802.58 424.778 803.948 423.41 803.948 421.653V5.17545C803.948 3.41775 802.58 2.05065 800.821 2.05065H351.99Z" fill="#E6E6E6"/>
<path d="M564.044 108.196C562.089 108.196 560.526 109.759 560.526 111.712C560.526 113.665 562.089 115.227 564.044 115.227H758.41C760.365 115.227 761.928 113.665 761.928 111.712C761.928 109.759 760.365 108.196 758.41 108.196H564.044Z" fill="#E6E6E6"/>
<path d="M564.044 129.484C562.089 129.484 560.526 131.046 560.526 132.999C560.526 134.952 562.089 136.515 564.044 136.515H663.23C665.185 136.515 666.748 134.952 666.748 132.999C666.748 131.046 665.185 129.484 663.23 129.484H564.044Z" fill="#E6E6E6"/>
<path d="M394.205 232.212C392.251 232.212 390.687 233.774 390.687 235.727C390.687 237.68 392.251 239.243 394.205 239.243H758.605C760.56 239.243 762.123 237.68 762.123 235.727C762.123 233.774 760.56 232.212 758.605 232.212H394.205Z" fill="#E6E6E6"/>
<path d="M394.205 253.499C392.251 253.499 390.687 255.062 390.687 257.015C390.687 258.968 392.251 260.53 394.205 260.53H663.425C665.38 260.53 666.943 258.968 666.943 257.015C666.943 255.062 665.38 253.499 663.425 253.499H394.205Z" fill="#E6E6E6"/>
<path d="M394.205 274.201C392.251 274.201 390.687 275.764 390.687 277.717C390.687 279.67 392.251 281.232 394.205 281.232H758.605C760.56 281.232 762.123 279.67 762.123 277.717C762.123 275.764 760.56 274.201 758.605 274.201H394.205Z" fill="#E6E6E6"/>
<path d="M394.205 295.489C392.251 295.489 390.687 297.051 390.687 299.004C390.687 300.957 392.251 302.52 394.205 302.52H663.425C665.38 302.52 666.943 300.957 666.943 299.004C666.943 297.051 665.38 295.489 663.425 295.489H394.205Z" fill="#E6E6E6"/>
<path d="M514.988 182.801H233.259C230.425 182.801 228.08 180.457 228.08 177.625V54.0004C228.08 51.1686 230.425 48.825 233.259 48.825H514.988C517.822 48.825 520.167 51.1686 520.167 54.0004V177.528C520.167 180.457 517.822 182.801 514.988 182.801Z" fill="url(#paint0_linear_6_2075)"/>
<path d="M756.358 378.101H649.549C646.715 378.101 644.37 375.757 644.37 372.925V355.837C644.37 353.005 646.715 350.661 649.549 350.661H756.358C759.192 350.661 761.537 353.005 761.537 355.837V372.925C761.537 375.757 759.192 378.101 756.358 378.101Z" fill="#008CCF"/>
<path d="M123.519 209.069C118.926 205.651 117.558 199.206 120.49 194.714C120.783 194.323 121.076 193.835 121.467 193.445L121.76 102.142L135.343 104.681L135.929 194.421C139.056 198.034 139.643 203.21 137.102 207.018C134.268 211.705 128.112 212.486 123.519 209.069Z" fill="#FFB8B8"/>
<path d="M194.171 413.352H208.145L214.79 359.45H194.171V413.352Z" fill="#FFB8B8"/>
<path d="M190.555 408.763H218.112C227.787 408.763 235.702 416.575 235.702 426.34V426.926H190.555V408.763Z" fill="#2F2E41"/>
<path d="M64.0068 413.352H77.9809L84.6259 359.45H64.0068V413.352Z" fill="#FFB8B8"/>
<path d="M60.4893 408.763H88.0465C97.7208 408.763 105.636 416.575 105.636 426.34V426.926H60.4893V408.763Z" fill="#2F2E41"/>
<path d="M193.292 398.314L192.119 391.284C190.946 390.893 189.871 390.014 189.187 388.94C187.917 386.987 187.722 384.155 188.601 380.64L179.122 300.957L129.969 249.789L98.3071 326.053L85.7989 386.401V395.092L60.7824 398.314L61.9551 390.112C60.9778 389.721 60.1961 389.038 59.7075 388.061C58.2417 385.718 58.3394 382.007 59.8052 377.027L59.9029 376.831L59.8052 376.05C59.7075 375.562 60.0984 326.249 74.7565 301.836L89.4146 227.72C89.0237 226.646 87.167 220.591 90.5872 210.338C94.0074 200.183 103.486 183.875 129.578 163.661L129.675 163.564H129.773C130.066 163.466 158.796 157.802 173.65 177.235L173.747 177.332V177.528C173.747 178.7 173.747 206.627 171.5 212.877L206.777 277.619C207.461 278.303 213.618 285.431 211.468 304.18L217.135 367.945C217.819 369.215 223.683 380.933 217.233 385.522L218.406 393.53L193.292 398.314Z" fill="#2F2E41"/>
<path d="M134.366 130.46C127.721 130.46 118.926 128.117 113.551 117.375L113.454 117.18L126.744 89.0568C130.359 81.3425 139.545 78.0224 147.265 81.7331C154.692 85.2485 158.112 94.037 154.887 101.556L143.454 128.996L143.258 129.093C140.327 129.972 137.395 130.46 134.366 130.46Z" fill="#008CCF"/>
<path d="M171.109 186.121L129.284 166.396L135.05 96.2829L145.506 83.4908L147.558 83.1002C156.841 81.1472 166.613 81.6354 175.604 84.6626L175.799 84.7602L192.998 121.477C193.096 121.672 205.506 143.546 188.405 155.068L171.109 186.121Z" fill="#008CCF"/>
<path d="M228.568 163.857C228.08 164.052 227.591 164.345 227.103 164.638L183.031 144.522L181.858 132.804L163.975 132.218V153.115C163.975 156.631 166.223 159.658 169.643 160.634L222.51 176.063C223.976 181.531 229.643 184.754 235.116 183.289C240.588 181.824 243.813 176.161 242.347 170.692C240.881 165.224 235.213 162.001 229.741 163.466C229.35 163.564 228.959 163.661 228.568 163.857Z" fill="#FFB8B8"/>
<path d="M174.725 137.687C169.741 137.687 164.073 135.929 158.601 130.558L158.405 130.363L162.119 99.5054C163.096 91.0098 170.816 85.0532 179.22 86.0297C187.428 87.0062 193.389 94.2323 192.803 102.435L190.653 132.12L190.458 132.218C190.36 132.413 183.519 137.687 174.725 137.687Z" fill="#008CCF"/>
<path d="M163.487 73.7258C178.976 73.7258 191.533 61.1783 191.533 45.7002C191.533 30.2221 178.976 17.6747 163.487 17.6747C147.997 17.6747 135.441 30.2221 135.441 45.7002C135.441 61.1783 147.997 73.7258 163.487 73.7258Z" fill="#FFB8B8"/>
<path d="M192.119 30.8574C190.751 22.7524 184.203 16.1122 176.483 13.2804C168.764 10.5462 160.066 11.425 152.444 14.5498C151.174 15.0381 149.903 15.624 148.731 16.3075C145.995 11.0344 139.154 8.00728 132.998 8.30023C125.473 8.69083 118.731 12.6945 112.183 16.4052C105.636 20.1159 98.6978 23.8266 91.1733 23.7289C77.4925 23.5336 67.4272 10.9368 54.3326 7.12843C38.7951 2.73418 22.4757 11.718 18.0783 27.342C15.6353 35.7399 17.1011 44.8213 22.0848 52.0474C27.6549 41.9895 40.7495 38.6694 52.0851 40.0365C63.4207 41.4036 73.9745 46.3837 85.1147 49.0203C96.2548 51.6568 109.154 51.5592 117.753 44.0401C122.639 39.7435 125.473 33.6892 129.773 28.8067C132.607 25.4866 136.711 22.7524 140.913 22.0689C136.809 25.7796 133.682 30.4668 131.727 35.6422C128.405 45.2119 130.164 56.637 137.102 63.9607C144.529 71.7727 156.255 73.921 167.102 73.8234L167.298 73.6281C163.975 68.6479 161.337 61.8124 165.05 57.0276C168.666 52.3404 175.799 53.0239 181.272 50.9733C188.992 47.9461 193.487 38.9623 192.119 30.8574Z" fill="#2F2E41"/>
<path d="M267.755 428H0.977207C0.390883 428 0 427.609 0 427.023C0 426.438 0.390883 426.047 0.977207 426.047H267.755C268.341 426.047 268.732 426.438 268.732 427.023C268.732 427.609 268.341 428 267.755 428Z" fill="#CCCCCC"/>
<path d="M361.469 92.1816C360.198 92.1816 359.221 93.744 359.221 95.697C359.221 97.65 360.198 99.2124 361.469 99.2124H465.932C467.202 99.2124 468.18 97.65 468.18 95.697C468.18 93.744 467.202 92.1816 465.932 92.1816H361.469Z" fill="white"/>
<path d="M361.469 112.688C360.198 112.688 359.221 114.251 359.221 116.204C359.221 118.157 360.198 119.719 361.469 119.719H465.932C467.202 119.719 468.18 118.157 468.18 116.204C468.18 114.251 467.202 112.688 465.932 112.688H361.469Z" fill="white"/>
<path d="M361.469 132.902C360.198 132.902 359.221 134.464 359.221 136.417C359.221 138.37 360.198 139.932 361.469 139.932H406.42C407.691 139.932 408.668 138.37 408.668 136.417C408.668 134.464 407.691 132.902 406.42 132.902H361.469Z" fill="white"/>
<path d="M308.406 144.131C324.058 144.131 336.745 131.453 336.745 115.813C336.745 100.173 324.058 87.4944 308.406 87.4944C292.755 87.4944 280.067 100.173 280.067 115.813C280.067 131.453 292.755 144.131 308.406 144.131Z" fill="white"/>
</g>
<defs>
<linearGradient id="paint0_linear_6_2075" x1="228.034" y1="115.805" x2="520.164" y2="115.805" gradientUnits="userSpaceOnUse">
<stop stop-color="#88B8FF"/>
<stop offset="1" stop-color="#6FA8FF"/>
</linearGradient>
<clipPath id="clip0_6_2075">
<rect width="806" height="428" fill="white"/>
</clipPath>
</defs>
</svg>
