<svg width="606" height="743" viewBox="0 0 606 743" fill="none" xmlns="http://www.w3.org/2000/svg">
<path d="M579.972 244.594C565.814 244.594 554.438 233.218 554.438 219.061C554.438 204.9 565.814 193.524 579.972 193.524C594.132 193.524 605.506 204.9 605.506 219.061C605.506 233.218 594.132 244.594 579.972 244.594ZM579.972 195.847C567.205 195.847 556.761 206.294 556.761 219.061C556.761 231.828 567.205 242.271 579.972 242.271C592.739 242.271 603.185 231.828 603.185 219.061C603.185 206.294 592.855 195.847 579.972 195.847Z" fill="#3F3D56"/>
<path d="M142.411 171.472C128.251 171.472 116.876 160.099 116.876 145.939C116.876 131.779 128.251 120.405 142.411 120.405C156.571 120.405 167.945 131.779 167.945 145.939C167.945 160.099 156.571 171.472 142.411 171.472ZM142.411 122.726C129.644 122.726 119.198 133.172 119.198 145.939C119.198 158.706 129.644 169.152 142.411 169.152C155.178 169.152 165.624 158.706 165.624 145.939C165.624 133.172 155.294 122.726 142.411 122.726Z" fill="#3F3D56"/>
<path d="M5.91895 274.306C5.91895 273.842 5.91894 273.379 6.03503 272.912L7.07958 208.73L8.70449 208.614H8.82057L141.134 213.953C146.821 214.185 151.231 219.061 150.999 224.747L148.678 276.163C148.446 281.849 143.571 286.262 137.884 286.03L12.1864 280.922C8.70449 280.691 5.91895 277.788 5.91895 274.306Z" fill="#8DADFF"/>
<path d="M0 269.545C0 269.43 0 269.198 0 269.082L2.20522 218.71C2.43735 212.791 7.54418 208.15 13.4635 208.382L134.286 213.721C139.973 213.953 144.384 218.825 144.152 224.515L141.83 275.93C141.598 281.617 136.724 286.029 131.037 285.794L10.3297 280.34C4.5265 280.108 0 275.351 0 269.545Z" fill="#2F2E41"/>
<path d="M112.698 254.342C116.737 254.342 120.01 251.069 120.01 247.03C120.01 242.992 116.737 239.718 112.698 239.718C108.66 239.718 105.386 242.992 105.386 247.03C105.386 251.069 108.66 254.342 112.698 254.342Z" fill="#8DADFF"/>
<path d="M554.322 630.739L542.019 459.659L544.342 402.557L496.29 413.235L513.933 637.355C507.895 649.772 513.119 664.746 525.538 670.781C537.957 676.815 552.929 671.595 558.966 659.175C563.723 649.772 561.75 638.282 554.322 630.739Z" fill="#9E616A"/>
<path d="M126.162 299.028L80.2005 269.198C76.1383 255.968 62.2106 248.54 48.9793 252.485C35.748 256.547 28.3198 270.476 32.2659 283.706C35.8639 295.43 47.4703 302.858 59.6572 301.233C60.0052 301.233 60.3534 301.117 60.5857 301.001L109.797 336.865L126.162 299.028Z" fill="#9E616A"/>
<path d="M188.256 401.861L79.0396 321.195L118.618 290.438L166.784 326.882L344.246 254.922C349.469 253.995 354.924 255.272 359.218 258.52C363.514 261.654 366.298 266.298 366.996 271.521L367.112 272.101L334.614 322.936L188.256 401.861Z" fill="#88C6FF"/>
<path d="M508.941 577.93L478.184 364.024V363.793L509.755 239.603L512.771 239.255C530.413 237.282 546.778 249.119 550.376 266.53L552.697 584.544L508.941 577.93Z" fill="#88C6FF"/>
<path d="M518.689 206.059H358.638V133.752C358.638 89.5313 394.386 53.7837 438.605 53.7837C482.828 53.7837 518.573 89.5313 518.573 133.752V206.059H518.689Z" fill="#2F2E41"/>
<path d="M436.865 208.151C472.955 208.151 502.209 178.894 502.209 142.805C502.209 106.717 472.955 77.4612 436.865 77.4612C400.777 77.4612 371.521 106.717 371.521 142.805C371.521 178.894 400.777 208.151 436.865 208.151Z" fill="#9E616A"/>
<path d="M468.32 87.3262C492.356 87.3262 511.844 67.8398 511.844 43.8023C511.844 19.7644 492.356 0.27832 468.32 0.27832C444.281 0.27832 424.796 19.7644 424.796 43.8023C424.796 67.8398 444.281 87.3262 468.32 87.3262Z" fill="#2F2E41"/>
<path d="M509.871 146.287H339.721V145.358C339.721 101.254 377.906 65.3901 424.796 65.3901C471.684 65.3901 509.871 101.254 509.871 145.358V146.287Z" fill="#2F2E41"/>
<path d="M537.146 247.494V247.262C536.564 239.487 529.718 233.568 521.94 234.148C521.824 234.148 521.708 234.148 521.592 234.148L350.863 251.558C345.292 252.138 340.532 255.852 338.791 261.191L326.14 298.912C323.24 302.16 284.241 346.845 307.455 408.012L316.16 457.921L300.259 487.632C267.644 522.566 248.726 604.391 243.851 725.794C282.036 737.286 321.847 743.089 361.657 743.089C362.005 743.089 362.352 743.089 362.584 743.089L373.378 665.673L396.591 741.695C434.544 738.561 471.918 729.974 507.432 716.393L480.157 528.253L474.702 457.338L536.914 247.726L537.146 247.494Z" fill="#2F2E41"/>
</svg>
