<svg width="644" height="432" viewBox="0 0 644 432" fill="none" xmlns="http://www.w3.org/2000/svg">
<g clip-path="url(#clip0_6_2111)">
<path d="M513.082 191.164L514.995 175.838C516.43 164.48 526.748 156.407 538.09 157.844C549.433 159.28 557.496 169.612 556.061 180.969L554.147 196.295C553.942 197.8 552.576 198.895 551.073 198.69L515.542 194.243C513.97 194.106 512.877 192.737 513.082 191.164Z" fill="#2E3241"/>
<path d="M530.096 195.748C538.473 195.748 545.265 188.947 545.265 180.559C545.265 172.17 538.473 165.37 530.096 165.37C521.718 165.37 514.927 172.17 514.927 180.559C514.927 188.947 521.718 195.748 530.096 195.748Z" fill="#FFB8B8"/>
<path d="M509.938 176.454C511.1 167.491 519.231 161.128 528.182 162.222L531.257 162.633C540.208 163.796 546.563 171.938 545.469 180.901L545.401 181.175L538.91 180.354L537.475 173.854L536.245 180.011L532.897 179.601L532.145 176.317L531.53 179.396L509.802 176.659L509.938 176.454Z" fill="#2E3241"/>
<path d="M455.891 234.747C457.667 238.168 461.835 239.536 465.32 237.826C465.662 237.62 466.003 237.415 466.345 237.141L480.147 245.215L487.117 238.031L467.507 226.879C464.978 223.937 460.537 223.594 457.599 226.194C455.071 228.315 454.387 231.873 455.891 234.747Z" fill="#FFB8B8"/>
<path d="M501.056 249.32C490.875 249.32 472.973 244.736 472.016 244.531L471.674 244.462L474.476 230.163L501.807 235.568L516.635 214.632L533.649 212.921L533.17 213.537C532.965 213.811 510.963 242.752 507.547 247.61C506.795 248.841 504.267 249.32 501.056 249.32Z" fill="#3F3D56"/>
<path d="M503.789 302.824L503.379 302.619C503.311 302.55 494.633 298.377 490.191 290.167C485.75 282.025 506.59 247.336 508.025 244.941V233.926L515.541 213.674L525.108 208.269L516.908 227.426L503.789 302.824Z" fill="#3F3D56"/>
<path d="M494.223 421.19H485.067L480.694 385.885H494.223V421.19Z" fill="#FFB8B8"/>
<path d="M496.546 430.084H467.097V429.674C467.097 423.311 472.221 418.179 478.576 418.179H496.546V430.084Z" fill="#2E3241"/>
<path d="M592.343 413.185L583.666 415.99L568.565 383.833L581.342 379.659L592.343 413.185Z" fill="#FFB8B8"/>
<path d="M597.331 420.848L569.317 430.016L569.18 429.674C567.198 423.653 570.478 417.153 576.491 415.169L593.573 409.558L597.331 420.848Z" fill="#2E3241"/>
<path d="M574.646 407.369L548.613 363.854L526.611 317.329L506.796 358.449L498.938 411.679L471.401 412.09L471.538 411.679L513.697 243.847L546.768 248.773L545.265 270.599L546.153 271.899C553.601 282.504 561.322 293.519 556.881 305.356L569.453 342.644L597.195 404.769L574.646 407.369Z" fill="#2E3241"/>
<path d="M515.2 280.109C510.417 280.109 504.951 274.636 507.752 265.262L507.547 265.125L514.38 235.021C508.435 226.537 516.293 219.489 516.977 218.874L520.735 212.169L537.202 201.7L545.538 271.146L545.401 271.283C539.457 277.03 519.231 280.109 515.2 280.109Z" fill="#8DC8FF"/>
<path d="M548.954 295.777C548.271 295.777 547.656 295.709 546.973 295.572C546.358 295.435 545.265 294.614 543.693 289.346C537.339 268.546 529.754 205.942 535.22 199.853L535.357 199.716L544.308 201.222C545.06 200.674 548.954 197.937 552.576 198.416C554.079 198.622 555.446 199.443 556.334 200.606L556.402 200.674L559.272 241.452L569.726 289.414L569.453 289.551C568.975 289.893 555.924 295.777 548.954 295.777Z" fill="#3F3D56"/>
<path d="M542.941 279.835C546.768 279.698 549.843 276.483 549.706 272.583C549.706 272.172 549.638 271.762 549.569 271.351L562.689 262.251L559.135 252.878L540.755 265.946C536.997 266.972 534.879 270.872 535.904 274.635C536.792 277.851 539.662 279.972 542.941 279.835Z" fill="#FFB8B8"/>
<path d="M558.316 269.641L546.631 261.02L563.099 238.51L550.458 216.205L556.129 199.99L556.471 200.674C556.607 201.016 573.485 233.173 576.491 238.373C579.566 243.71 559.409 268.341 558.589 269.367L558.316 269.641Z" fill="#3F3D56"/>
<path d="M294.839 370.833L284.863 366.659L278.03 316.576H186.948L179.5 366.454L170.549 370.901C169.524 371.449 169.046 372.68 169.592 373.775C169.934 374.528 170.686 374.938 171.506 374.938H293.951C295.113 374.938 296.069 373.98 296.069 372.817C296.138 371.928 295.591 371.175 294.839 370.833Z" fill="#E6E6E6"/>
<path d="M456.711 323.213H9.22459C4.3049 323.213 0.410156 319.245 0.410156 314.319V251.167H465.525V314.319C465.525 319.245 461.562 323.213 456.711 323.213Z" fill="#CCCCCC"/>
<path d="M466.003 280.998H0V10.6734C0 4.78936 4.78302 0 10.6593 0H455.276C461.22 0 466.003 4.78936 466.003 10.6734V280.998Z" fill="#2E3241"/>
<path d="M438.193 261.43H27.8098C23.2318 261.43 19.6103 257.736 19.542 253.152V27.8466C19.542 23.2625 23.2318 19.6363 27.8098 19.5679H438.125C442.703 19.5679 446.324 23.2625 446.393 27.8466V253.152C446.393 257.736 442.703 261.43 438.193 261.43Z" fill="white"/>
<path d="M348.068 375.417H117.526C117.047 375.417 116.637 375.075 116.501 374.665C116.364 374.117 116.706 373.501 117.252 373.365C117.321 373.365 117.457 373.296 117.526 373.296H348.068C348.614 373.296 349.024 373.638 349.161 374.117C349.297 374.665 348.956 375.212 348.341 375.349C348.204 375.417 348.136 375.417 348.068 375.417Z" fill="#CCCCCC"/>
<path d="M433.82 56.0354H334.743V131.844H433.82V56.0354Z" fill="#F2F2F2"/>
<path d="M428.901 59.7986H339.663V128.081H428.901V59.7986Z" fill="white"/>
<path d="M385.853 110.429C399.041 109.745 409.085 98.5239 408.402 85.3874C407.787 73.414 398.357 63.7669 386.4 62.8774C386.263 62.8774 386.127 62.9459 385.99 63.0143C385.853 63.0827 385.785 63.288 385.785 63.4248L385.238 109.882C385.307 110.155 385.512 110.429 385.853 110.429Z" fill="#008CCF"/>
<path d="M367.131 70.6089C367.336 70.6089 367.473 70.6773 367.609 70.8141L383.598 87.1664C383.735 87.3032 383.803 87.5085 383.803 87.6453L383.53 109.882C383.53 110.087 383.462 110.292 383.325 110.361C383.188 110.497 382.983 110.566 382.778 110.566C369.591 109.608 359.683 98.0451 360.708 84.8401C361.118 79.6402 363.168 74.7141 366.584 70.8141C366.789 70.6773 366.926 70.6089 367.131 70.6089Z" fill="#E6E6E6"/>
<path d="M383.394 62.6721C383.599 62.6721 383.735 62.7405 383.872 62.8774C384.009 63.0142 384.077 63.2195 384.077 63.3563L383.872 83.4032C383.872 83.8137 383.53 84.0874 383.189 84.0874C382.984 84.0874 382.847 84.019 382.71 83.8821L368.771 69.5825C368.498 69.3088 368.498 68.8299 368.771 68.6246C372.803 65.0668 377.996 63.0142 383.394 62.6721Z" fill="url(#paint0_linear_6_2111)"/>
<path d="M376.219 120.076C376.219 122.471 374.237 124.318 371.914 124.318C369.591 124.318 367.678 122.334 367.678 120.008C367.678 117.613 369.659 115.766 371.982 115.766C374.374 115.766 376.219 117.681 376.219 120.076Z" fill="#8DC8FF"/>
<path d="M388.45 120.213C388.45 122.607 386.468 124.455 384.145 124.455C381.822 124.455 379.909 122.471 379.909 120.144C379.909 117.75 381.89 115.902 384.213 115.902C386.537 115.902 388.45 117.818 388.45 120.213Z" fill="#3F3D56"/>
<path d="M400.612 120.35C400.612 122.744 398.631 124.592 396.308 124.592C393.916 124.592 392.071 122.608 392.071 120.281C392.071 117.887 394.053 116.039 396.376 116.039C398.768 116.039 400.681 117.955 400.612 120.35Z" fill="#E6E6E6"/>
<path d="M432.727 143.749H333.65V219.558H432.727V143.749Z" fill="#F2F2F2"/>
<path d="M427.807 147.512H338.57V215.795H427.807V147.512Z" fill="white"/>
<path d="M353.739 169.954C355.776 169.954 357.428 168.3 357.428 166.259C357.428 164.219 355.776 162.564 353.739 162.564C351.701 162.564 350.049 164.219 350.049 166.259C350.049 168.3 351.701 169.954 353.739 169.954Z" fill="#3F3D56"/>
<path d="M413.253 163.386C414.62 163.386 415.781 164.48 415.781 165.917C415.781 167.354 414.688 168.449 413.253 168.449H374.306C372.939 168.449 371.778 167.354 371.778 165.917C371.778 164.48 372.871 163.386 374.306 163.386H413.253ZM413.253 162.77H374.306C372.597 162.77 371.163 164.138 371.163 165.917C371.163 167.696 372.529 169.064 374.306 169.064H413.253C414.961 169.064 416.396 167.696 416.396 165.917C416.396 164.138 414.961 162.77 413.253 162.77Z" fill="#3F3D56"/>
<path d="M397.879 168.996H368.566C366.858 168.996 365.423 167.627 365.423 165.848C365.423 164.138 366.789 162.701 368.566 162.701H397.879C399.587 162.701 401.022 164.138 401.022 165.848C401.022 167.627 399.587 168.996 397.879 168.996Z" fill="url(#paint1_linear_6_2111)"/>
<path d="M353.739 185.348C355.776 185.348 357.428 183.694 357.428 181.653C357.428 179.613 355.776 177.959 353.739 177.959C351.701 177.959 350.049 179.613 350.049 181.653C350.049 183.694 351.701 185.348 353.739 185.348Z" fill="#3F3D56"/>
<path d="M413.253 178.78C414.62 178.78 415.781 179.875 415.781 181.311C415.781 182.748 414.688 183.843 413.253 183.843H374.306C372.939 183.843 371.778 182.748 371.778 181.311C371.778 179.875 372.871 178.78 374.306 178.78H413.253ZM413.253 178.164H374.306C372.597 178.164 371.163 179.532 371.163 181.311C371.163 183.09 372.529 184.459 374.306 184.459H413.253C414.961 184.459 416.396 183.09 416.396 181.311C416.396 179.532 414.961 178.164 413.253 178.164Z" fill="#3F3D56"/>
<path d="M408.948 184.39H368.566C366.858 184.39 365.423 183.022 365.423 181.243C365.423 179.533 366.789 178.096 368.566 178.096H408.948C410.657 178.096 412.091 179.533 412.091 181.243C412.091 183.022 410.657 184.39 408.948 184.39Z" fill="url(#paint2_linear_6_2111)"/>
<path d="M353.739 200.743C355.776 200.743 357.428 199.088 357.428 197.048C357.428 195.007 355.776 193.353 353.739 193.353C351.701 193.353 350.049 195.007 350.049 197.048C350.049 199.088 351.701 200.743 353.739 200.743Z" fill="#3F3D56"/>
<path d="M413.253 194.174C414.62 194.174 415.781 195.269 415.781 196.706C415.781 198.142 414.688 199.237 413.253 199.237H374.306C372.939 199.237 371.778 198.142 371.778 196.706C371.778 195.269 372.871 194.174 374.306 194.174H413.253ZM413.253 193.558H374.306C372.597 193.558 371.163 194.927 371.163 196.706C371.163 198.485 372.529 199.853 374.306 199.853H413.253C414.961 199.853 416.396 198.485 416.396 196.706C416.396 194.927 414.961 193.558 413.253 193.558Z" fill="#3F3D56"/>
<path d="M384.965 199.853H368.566C366.858 199.853 365.423 198.485 365.423 196.706C365.423 194.995 366.789 193.558 368.566 193.558H384.965C386.673 193.558 388.108 194.995 388.108 196.706C388.108 198.416 386.673 199.785 384.965 199.853Z" fill="url(#paint3_linear_6_2111)"/>
<path d="M311.785 69.4456H34.9844V211.484H311.785V69.4456Z" fill="#F2F2F2"/>
<path d="M302.561 76.4929H44.209V204.437H302.561V76.4929Z" fill="white"/>
<path d="M270.514 184.938H82.1999C81.8583 184.938 81.585 184.664 81.585 184.322V93.9398C81.585 93.5977 81.8583 93.324 82.1999 93.324C82.5416 93.324 82.8149 93.5977 82.8149 93.9398V183.706H270.583C270.924 183.706 271.198 183.98 271.198 184.322C271.129 184.664 270.856 184.938 270.514 184.938Z" fill="#3F3D56"/>
<path d="M122.445 178.438H105.295C104.338 178.438 103.518 177.685 103.518 176.659V152.986C103.518 152.028 104.27 151.207 105.295 151.207H122.445C123.402 151.207 124.222 151.959 124.222 152.986V176.659C124.153 177.617 123.402 178.438 122.445 178.438Z" fill="#88BFFF"/>
<path d="M153.672 178.438H136.521C135.565 178.438 134.745 177.685 134.745 176.659V130.613C134.745 129.655 135.496 128.834 136.521 128.834H153.672C154.628 128.834 155.448 129.586 155.448 130.613V176.659C155.38 177.617 154.628 178.438 153.672 178.438Z" fill="#00AEEF"/>
<path d="M184.898 178.438H167.747C166.791 178.438 165.971 177.685 165.971 176.659V152.986C165.971 152.028 166.722 151.207 167.747 151.207H184.898C185.854 151.207 186.674 151.959 186.674 152.986V176.659C186.606 177.617 185.854 178.438 184.898 178.438Z" fill="#88BFFF"/>
<path d="M216.124 178.438H198.974C198.017 178.438 197.266 177.685 197.197 176.796V121.718C197.197 120.76 198.017 120.008 198.974 120.076H216.124C217.081 120.076 217.833 120.829 217.901 121.718V176.796C217.833 177.685 217.081 178.438 216.124 178.438Z" fill="#00AEEF"/>
<path d="M247.35 178.438H230.268C229.312 178.438 228.492 177.685 228.492 176.659V105.845C228.492 104.887 229.243 104.066 230.268 104.066H247.35C248.307 104.066 249.127 104.819 249.127 105.845V176.727C249.127 177.617 248.307 178.438 247.35 178.438Z" fill="#00AEEF"/>
<path d="M113.836 144.228C115.798 144.228 117.389 142.635 117.389 140.67C117.389 138.705 115.798 137.113 113.836 137.113C111.874 137.113 110.283 138.705 110.283 140.67C110.283 142.635 111.874 144.228 113.836 144.228Z" fill="#3F3D56"/>
<path d="M145.062 121.171C147.025 121.171 148.615 119.578 148.615 117.613C148.615 115.648 147.025 114.055 145.062 114.055C143.1 114.055 141.509 115.648 141.509 117.613C141.509 119.578 143.1 121.171 145.062 121.171Z" fill="#3F3D56"/>
<path d="M176.357 144.228C178.319 144.228 179.91 142.635 179.91 140.67C179.91 138.705 178.319 137.113 176.357 137.113C174.394 137.113 172.804 138.705 172.804 140.67C172.804 142.635 174.394 144.228 176.357 144.228Z" fill="#3F3D56"/>
<path d="M207.583 110.018C209.546 110.018 211.136 108.426 211.136 106.461C211.136 104.496 209.546 102.903 207.583 102.903C205.621 102.903 204.03 104.496 204.03 106.461C204.03 108.426 205.621 110.018 207.583 110.018Z" fill="#3F3D56"/>
<path d="M238.809 97.0187C240.772 97.0187 242.363 95.4258 242.363 93.4609C242.363 91.496 240.772 89.9031 238.809 89.9031C236.847 89.9031 235.256 91.496 235.256 93.4609C235.256 95.4258 236.847 97.0187 238.809 97.0187Z" fill="#3F3D56"/>
<path d="M176.425 141.423L145.062 117.955L114.177 141.149L113.494 140.191L145.062 116.518L176.22 139.849L207.241 105.913H207.31L238.604 93.2556L239.014 94.3503L207.925 106.939L176.425 141.423Z" fill="#3F3D56"/>
<path d="M643.317 432H382.984C382.574 432 382.3 431.726 382.3 431.316C382.3 430.905 382.574 430.632 382.984 430.632H643.317C643.727 430.632 644 430.905 644 431.316C644 431.726 643.727 432 643.317 432Z" fill="#CCCCCC"/>
</g>
<defs>
<linearGradient id="paint0_linear_6_2111" x1="368.539" y1="73.4318" x2="384.097" y2="73.4318" gradientUnits="userSpaceOnUse">
<stop stop-color="#88BFFF"/>
<stop offset="1" stop-color="#00AEEF"/>
</linearGradient>
<linearGradient id="paint1_linear_6_2111" x1="365.421" y1="165.88" x2="401.009" y2="165.88" gradientUnits="userSpaceOnUse">
<stop stop-color="#8894FF"/>
<stop offset="1" stop-color="#00AEEF"/>
</linearGradient>
<linearGradient id="paint2_linear_6_2111" x1="365.421" y1="181.285" x2="412.086" y2="181.285" gradientUnits="userSpaceOnUse">
<stop stop-color="#88BFFF"/>
<stop offset="1" stop-color="#00AEEF"/>
</linearGradient>
<linearGradient id="paint3_linear_6_2111" x1="365.421" y1="196.689" x2="388.086" y2="196.689" gradientUnits="userSpaceOnUse">
<stop stop-color="#88A9FF"/>
<stop offset="1" stop-color="#00AEEF"/>
</linearGradient>
<clipPath id="clip0_6_2111">
<rect width="644" height="432" fill="white"/>
</clipPath>
</defs>
</svg>
