<svg width="825" height="365" viewBox="0 0 825 365" fill="none" xmlns="http://www.w3.org/2000/svg">
<g clip-path="url(#clip0_6_2177)">
<path d="M259.659 13.8308C271.491 8.83861 286.261 9.32964 295.972 17.8409C282.262 20.296 269.777 27.4978 260.801 38.2187C257.374 42.3924 253.946 47.3846 248.724 48.3666C245.46 49.0213 242.032 47.8756 239.176 46.0752C236.402 44.2747 234.117 41.7377 231.832 39.2826L231.016 38.9552C238.605 28.5617 247.826 18.8229 259.659 13.8308Z" fill="#F0F0F0"/>
<path d="M295.809 18.0861C285.445 15.9583 274.592 17.1041 264.882 21.4415C262.76 22.3417 260.801 23.5693 259.088 25.0424C257.456 26.5973 256.232 28.4796 255.66 30.6074C255.008 32.5716 254.6 34.6994 253.539 36.4998C252.396 38.3821 250.438 39.6097 248.316 39.937C245.705 40.4281 243.012 39.937 240.401 39.446C237.545 38.7913 234.525 38.1366 231.669 38.8731C231.343 38.955 231.18 38.3821 231.588 38.3003C236.647 37.0727 241.543 39.8552 246.684 39.6097C249.051 39.5278 251.417 38.6276 252.804 36.6635C254.028 34.9449 254.436 32.7352 255.089 30.6893C255.66 28.5615 256.803 26.6792 258.272 25.1243C259.904 23.5693 261.781 22.2599 263.902 21.2778C268.554 19.0682 273.531 17.5951 278.591 16.9404C284.384 16.122 290.341 16.3675 296.054 17.5133C296.298 17.5951 296.135 18.168 295.809 18.0861Z" fill="white"/>
<path d="M267.901 19.8867C266.84 16.2858 268.553 12.5213 271.899 10.8845C272.226 10.7208 272.47 11.2119 272.144 11.3755C269.043 12.8486 267.493 16.4495 268.472 19.7231C268.553 20.0504 268.064 20.2141 267.901 19.8867Z" fill="white"/>
<path d="M255.823 29.6257C259.006 31.4262 262.841 31.9172 266.35 31.0988C266.676 31.017 266.84 31.5898 266.432 31.6717C262.678 32.5719 258.761 31.999 255.415 30.1167C255.252 29.9531 255.497 29.462 255.823 29.6257Z" fill="white"/>
<path d="M284.14 16.8589C284.221 18.332 285.119 19.5595 286.343 20.2961C286.669 20.4598 286.343 20.9508 286.016 20.7871C284.629 20.0506 283.732 18.5775 283.568 17.0225C283.568 16.8589 283.65 16.6952 283.813 16.6952C283.976 16.6134 284.058 16.6952 284.14 16.8589Z" fill="white"/>
<path d="M294.748 61.379C294.584 61.2972 294.34 61.1335 294.095 61.0517C291.32 59.6604 288.546 58.5147 285.608 57.6145C285.363 57.5326 285.119 57.4508 284.955 57.3689C277.856 55.2411 270.512 54.4227 263.167 54.9956C260.23 55.2411 257.374 55.6503 254.518 56.3869C250.601 57.2871 246.357 58.6784 242.44 58.2692C242.032 58.2692 241.624 58.1873 241.216 58.1055L230.771 39.9373C230.771 39.8555 230.771 39.8555 230.771 39.7736L230.282 39.0371C230.445 38.9553 230.608 38.9553 230.69 38.8734C230.771 38.8734 230.853 38.7916 230.935 38.7916C231.016 38.7916 231.016 38.7916 231.098 38.7097C231.098 38.7097 231.098 38.7097 231.179 38.7097C231.261 38.7097 231.261 38.7097 231.343 38.6279C232.159 38.3824 233.056 38.1369 233.872 37.8914C240.319 36.0091 247.01 34.9452 253.702 34.6997C253.865 34.6997 254.11 34.6997 254.273 34.6997C257.292 34.6178 260.311 34.7815 263.249 35.1907C264.881 35.4362 266.513 35.7636 268.064 36.1728C272.225 37.2367 276.142 38.8734 279.733 41.1649C286.914 45.666 292.544 52.4586 294.503 60.6425C294.666 60.9698 294.748 61.2154 294.748 61.379Z" fill="#F0F0F0"/>
<path d="M294.503 61.4609C287.485 53.4407 278.183 47.8757 267.819 45.5024C265.616 44.9295 263.331 44.7658 261.046 44.9295C258.843 45.175 256.721 45.9934 254.926 47.3028C253.212 48.5304 251.662 49.9217 249.703 50.7401C247.663 51.4766 245.379 51.3948 243.502 50.3309C241.054 49.1033 239.258 47.1392 237.545 45.175C235.586 42.9654 233.628 40.5921 230.935 39.4463C230.608 39.2827 230.853 38.7916 231.18 38.9553C235.994 41.0013 238.198 46.2389 242.441 49.1033C244.399 50.4127 246.766 51.2311 249.132 50.4127C251.172 49.758 252.804 48.2849 254.518 47.0573C256.232 45.7479 258.272 44.8477 260.393 44.5203C262.678 44.2748 264.963 44.3567 267.166 44.8477C272.226 45.9116 277.04 47.712 281.528 50.249C286.669 53.1134 291.239 56.878 295.074 61.2972C295.238 61.4609 294.748 61.7883 294.503 61.4609Z" fill="white"/>
<path d="M271.246 46.0751C272.552 42.5561 276.224 40.592 279.814 41.3285C280.141 41.4103 280.059 41.9832 279.733 41.9014C276.306 41.2467 272.96 43.1289 271.736 46.3207C271.573 46.648 271.083 46.4025 271.246 46.0751Z" fill="white"/>
<path d="M255.66 46.566C257.129 49.9214 259.822 52.622 263.249 54.0951C263.576 54.2588 263.331 54.7498 263.005 54.5862C259.496 53.0312 256.721 50.2487 255.171 46.7297C255.008 46.4841 255.579 46.2386 255.66 46.566Z" fill="white"/>
<path d="M285.935 53.4404C285.2 54.668 285.037 56.223 285.608 57.5324C285.772 57.8597 285.2 58.0234 285.037 57.696C284.384 56.223 284.466 54.5862 285.364 53.1949C285.445 53.0312 285.608 53.0312 285.772 53.0312C285.935 53.1949 286.016 53.3586 285.935 53.4404Z" fill="white"/>
<path d="M706.269 345.441H696.966L692.56 309.595H706.269V345.441Z" fill="#A0616A"/>
<path d="M708.553 354.443H678.687V354.033C678.687 347.568 683.91 342.331 690.356 342.331H708.635L708.553 354.443Z" fill="#2F2E41"/>
<path d="M778.405 341.431L769.265 342.822L759.555 308.04L771.55 305.913L778.405 341.431Z" fill="#A0616A"/>
<path d="M782.077 349.942L752.537 354.443L752.456 354.034C751.476 347.65 755.883 341.676 762.248 340.776L780.282 338.075L782.077 349.942Z" fill="#2F2E41"/>
<path d="M513.932 354.443H236.892V76.6011H513.932V354.443Z" fill="white"/>
<path d="M513.932 354.443H236.892V76.6011H513.932V354.443ZM241.053 350.351H509.933V80.693H241.053V350.351Z" fill="#F0F0F0"/>
<path d="M471.662 196.085H294.013V202.387H471.662V196.085Z" fill="url(#paint0_linear_6_2177)"/>
<path d="M471.662 212.371H294.013V218.673H471.662V212.371Z" fill="url(#paint1_linear_6_2177)"/>
<path d="M471.662 228.739H294.013V235.04H471.662V228.739Z" fill="url(#paint2_linear_6_2177)"/>
<path d="M283.242 204.187C285.495 204.187 287.322 202.355 287.322 200.095C287.322 197.835 285.495 196.003 283.242 196.003C280.988 196.003 279.162 197.835 279.162 200.095C279.162 202.355 280.988 204.187 283.242 204.187Z" fill="url(#paint3_linear_6_2177)"/>
<path d="M471.662 125.622H294.013V131.924H471.662V125.622Z" fill="#F0F0F0"/>
<path d="M471.662 141.908H294.013V148.21H471.662V141.908Z" fill="#F0F0F0"/>
<path d="M471.662 158.276H294.013V164.577H471.662V158.276Z" fill="#F0F0F0"/>
<path d="M283.242 133.07C285.495 133.07 287.322 131.238 287.322 128.978C287.322 126.718 285.495 124.886 283.242 124.886C280.988 124.886 279.162 126.718 279.162 128.978C279.162 131.238 280.988 133.07 283.242 133.07Z" fill="#F0F0F0"/>
<path d="M471.662 267.203H294.013V273.505H471.662V267.203Z" fill="#F0F0F0"/>
<path d="M471.662 283.571H294.013V289.872H471.662V283.571Z" fill="#F0F0F0"/>
<path d="M471.662 299.938H294.013V306.24H471.662V299.938Z" fill="#F0F0F0"/>
<path d="M283.242 274.65C285.495 274.65 287.322 272.818 287.322 270.558C287.322 268.298 285.495 266.466 283.242 266.466C280.988 266.466 279.162 268.298 279.162 270.558C279.162 272.818 280.988 274.65 283.242 274.65Z" fill="#E5E5E5"/>
<path d="M662.693 244.697H501.447C498.999 244.697 497.04 240.687 497.04 235.695V115.392C497.04 110.4 498.999 106.39 501.447 106.39H662.611C665.059 106.39 667.018 110.4 667.018 115.392V235.695C667.018 240.687 665.059 244.697 662.693 244.697Z" fill="white"/>
<path d="M662.693 244.697H501.447C498.999 244.697 497.04 240.687 497.04 235.695V115.392C497.04 110.4 498.999 106.39 501.447 106.39H662.611C665.059 106.39 667.018 110.4 667.018 115.392V235.695C667.018 240.687 665.059 244.697 662.693 244.697ZM501.447 110.073C499.978 110.073 498.835 112.446 498.835 115.474V235.777C498.835 238.723 499.978 241.178 501.447 241.178H662.611C664.08 241.178 665.223 238.805 665.223 235.777V115.474C665.223 112.528 664.08 110.073 662.611 110.073H501.447Z" fill="#E6E6E6"/>
<path d="M603.939 204.515H560.527V207.788H603.939V204.515Z" fill="url(#paint4_linear_6_2177)"/>
<path d="M609.325 213.026H554.733V216.299H609.325V213.026Z" fill="url(#paint5_linear_6_2177)"/>
<path d="M610.386 163.268C610.386 178.981 597.656 191.666 582.07 191.666C577.418 191.666 572.767 190.52 568.687 188.311C554.896 180.863 549.755 163.595 557.181 149.847C564.607 136.098 581.825 130.86 595.534 138.307C604.674 143.218 610.386 152.793 610.386 163.268Z" fill="#CACACA"/>
<path d="M582.233 161.877C586.47 161.877 589.904 158.433 589.904 154.184C589.904 149.935 586.47 146.491 582.233 146.491C577.997 146.491 574.562 149.935 574.562 154.184C574.562 158.433 577.997 161.877 582.233 161.877Z" fill="white"/>
<path d="M595.371 177.835C586.721 180.863 577.337 180.863 568.769 177.753L574.481 166.378H589.904L595.371 177.835Z" fill="white"/>
<path d="M468.479 287.663H589.496V234.549H587.619V285.862H468.479V287.663Z" fill="#3F3D56"/>
<path d="M588.516 253.372C594.15 253.372 598.717 248.792 598.717 243.142C598.717 237.493 594.15 232.913 588.516 232.913C582.883 232.913 578.316 237.493 578.316 243.142C578.316 248.792 582.883 253.372 588.516 253.372Z" fill="#3F3D56"/>
<path d="M244.889 171.043H83.6424C81.1943 171.043 79.2358 167.032 79.2358 162.04V41.7376C79.2358 36.7454 81.1943 32.7354 83.6424 32.7354H244.807C247.255 32.7354 249.214 36.7454 249.214 41.7376V162.04C249.214 167.032 247.255 171.043 244.889 171.043Z" fill="white"/>
<path d="M244.889 171.043H83.6424C81.1943 171.043 79.2358 167.032 79.2358 162.04V41.7376C79.2358 36.7454 81.1943 32.7354 83.6424 32.7354H244.807C247.255 32.7354 249.214 36.7454 249.214 41.7376V162.04C249.214 167.032 247.255 171.043 244.889 171.043ZM83.6424 36.4181C82.1735 36.4181 81.0311 38.7914 81.0311 41.8194V162.122C81.0311 165.068 82.1735 167.523 83.6424 167.523H244.807C246.276 167.523 247.418 165.15 247.418 162.122V41.8194C247.418 38.8732 246.276 36.4181 244.807 36.4181H83.6424Z" fill="#E6E6E6"/>
<path d="M200.089 70.3812C192.908 62.7702 183.034 58.2691 172.589 57.8599V98.0426L200.089 70.3812Z" fill="#00AEEF"/>
<path d="M200.089 75.3735L172.589 102.953H211.024C211.024 92.7233 207.107 82.8208 200.089 75.3735Z" fill="#E4E4E4"/>
<path d="M211.024 105.817C211.024 108.354 210.779 110.809 210.371 113.264C210.371 113.428 210.289 113.674 210.289 113.837C209.392 118.093 207.841 122.267 205.638 126.031C205.556 126.195 205.393 126.441 205.311 126.604C203.108 130.205 200.415 133.397 197.233 136.179C197.07 136.343 196.906 136.425 196.743 136.588C189.97 142.317 181.484 145.591 172.589 145.918V105.735H211.024V105.817Z" fill="#F0F0F0"/>
<path d="M168.672 146C169.243 146 169.733 146 170.222 146V105.817L141.172 135.034C148.598 142.154 158.472 146.082 168.672 146Z" fill="#88DBFF"/>
<path d="M168.754 62.77C146.64 62.77 128.687 80.7745 128.687 102.953H170.386V62.8519C169.815 62.77 169.243 62.77 168.754 62.77Z" fill="url(#paint6_linear_6_2177)"/>
<path d="M159.206 105.817L150.801 114.247L150.556 114.492L143.212 121.858L142.967 122.103L135.052 130.042L134.807 130.287L130.237 134.87C122.24 127.259 117.67 116.702 117.67 105.654L159.206 105.817Z" fill="url(#paint7_linear_6_2177)"/>
<path d="M294.503 215.644H173.568V162.531H175.445V213.844H294.503V215.644Z" fill="#3F3D56"/>
<path d="M174.466 181.354C180.099 181.354 184.666 176.774 184.666 171.124C184.666 165.475 180.099 160.895 174.466 160.895C168.832 160.895 164.266 165.475 164.266 171.124C164.266 176.774 168.832 181.354 174.466 181.354Z" fill="#3F3D56"/>
<path d="M749.844 167.687L739.562 170.388L740.215 187.165L740.297 217.609C737.522 219.491 736.87 223.337 738.746 226.12C740.623 228.902 744.459 229.557 747.233 227.675C750.008 225.792 750.66 221.946 748.783 219.163C748.62 219 748.539 218.836 748.375 218.591L751.558 187.983L749.844 167.687Z" fill="#A0616A"/>
<path d="M752.7 177.754L737.685 172.68V172.434C737.685 172.27 735.482 158.031 735.482 148.21C735.401 146 736.298 143.872 738.012 142.399C740.297 140.272 743.642 139.781 746.498 141.008C749.518 142.236 751.558 145.182 751.721 148.537L752.7 177.754Z" fill="#E4E4E4"/>
<path d="M724.711 176.362L701.699 170.388L691.091 206.315L690.683 340.203L708.309 340.121L715.653 231.767L762.574 331.855L781.506 329.564L740.297 222.273C740.297 222.273 742.582 203.287 735.401 193.794L736.951 183.973L724.711 176.362Z" fill="#2F2E41"/>
<path d="M737.522 186.592H735.808L700.475 172.434L717.366 134.624L725.363 136.097L723.894 130.205L741.684 125.868L744.785 138.225L749.354 142.399C751.721 144.527 752.537 147.882 751.558 150.91L740.949 182.418C741.276 184.382 739.97 186.183 738.093 186.51C737.93 186.592 737.685 186.592 737.522 186.592Z" fill="#E4E4E4"/>
<path d="M710.92 158.276L701.617 153.12L690.601 165.723L669.629 187.82C666.283 187.329 663.183 189.538 662.693 192.894C662.203 196.249 664.407 199.359 667.752 199.85C671.098 200.341 674.199 198.131 674.689 194.776C674.689 194.53 674.77 194.367 674.77 194.121L698.108 174.234L710.92 158.276Z" fill="#A0616A"/>
<path d="M706.024 167.605L698.68 153.529L698.843 153.366C698.925 153.284 707.166 141.417 713.939 134.297C715.408 132.66 717.53 131.76 719.733 131.842C722.834 131.924 725.608 133.806 726.833 136.752C728.138 139.78 727.649 143.299 725.445 145.755L706.024 167.605Z" fill="#E4E4E4"/>
<path d="M728.464 123.576C736.261 123.576 742.582 117.238 742.582 109.418C742.582 101.599 736.261 95.2603 728.464 95.2603C720.668 95.2603 714.347 101.599 714.347 109.418C714.347 117.238 720.668 123.576 728.464 123.576Z" fill="#A0616A"/>
<path d="M711.491 101.07C713.858 96.8149 714.755 95.0144 717.856 92.4774C720.549 90.186 723.895 89.5313 726.588 91.6591C734.748 88.14 744.214 91.9046 747.723 100.088C751.232 108.272 747.478 117.766 739.318 121.285C731.157 124.804 721.691 121.039 718.183 112.855C717.285 110.809 716.877 108.681 716.877 106.472C716.877 105.899 716.877 105.244 716.959 104.671C714.674 104.344 713.858 101.398 711.491 101.07Z" fill="#2F2E41"/>
<path d="M87.8041 224.729C90.3337 223.255 91.1498 219.982 89.5993 217.445C89.4361 217.199 89.2729 216.954 89.0281 216.708L95.8827 147.391L84.3768 148.128L81.1943 216.381C79.0726 218.427 79.0726 221.864 81.1943 223.91C82.9895 225.711 85.6824 226.038 87.8041 224.729Z" fill="#FFB8B8"/>
<path d="M79.8071 144.854L82.8264 167.851L82.4184 181.927L95.0668 183.073L97.5964 171.37L98.9837 140.353C99.2285 135.525 95.638 131.269 90.8234 130.778C85.8457 130.205 81.276 133.724 80.6232 138.716L79.8071 144.854Z" fill="#2F2E41"/>
<path d="M128.197 346.995H135.868L139.54 317.288H128.197V346.995Z" fill="#FFB7B7"/>
<path d="M126.239 344.458H141.335C146.639 344.458 150.964 348.796 150.964 354.115V354.443H126.239V344.458Z" fill="#2F2E41"/>
<path d="M64.874 346.995H72.5446L76.2168 317.288H64.874V346.995Z" fill="#FFB7B7"/>
<path d="M62.9155 344.458H78.012C83.3161 344.458 87.6411 348.796 87.6411 354.115V354.443H62.9155V344.458Z" fill="#2F2E41"/>
<path d="M94.7401 119.812C103.934 119.812 111.387 112.337 111.387 103.116C111.387 93.896 103.934 86.4214 94.7401 86.4214C85.5463 86.4214 78.0933 93.896 78.0933 103.116C78.0933 112.337 85.5463 119.812 94.7401 119.812Z" fill="#FFB8B8"/>
<path d="M96.862 126.604L85.356 127.914C79.6439 136.016 78.175 146.328 81.4391 155.739L90.1706 181.027C90.1706 181.027 78.0934 205.333 78.0934 227.921C78.0934 250.508 55.0815 331.037 55.0815 331.037L87.4777 334.393L101.595 248.626L121.098 334.065L143.375 330.464L131.135 218.427L123.056 181.518L122.73 163.514C122.73 163.514 126.157 150.01 117.589 141.417L107.062 126.686L96.862 126.604Z" fill="#2F2E41"/>
<path d="M178.22 186.019C178.056 182.827 175.364 180.29 172.181 180.454C171.855 180.454 171.528 180.536 171.202 180.618L108.45 137.489L103.146 148.946L166.795 187.983C167.693 191.093 170.957 192.893 174.058 191.993C176.588 191.175 178.301 188.72 178.22 186.019Z" fill="#FFB8B8"/>
<path d="M97.433 151.647L121.016 160.813L134.317 168.669L142.07 157.13L132.196 148.455L103.227 130.778C98.6571 127.996 92.7817 129.223 89.7624 133.561C86.5799 138.062 87.5592 144.363 92.0473 147.637L97.433 151.647Z" fill="#2F2E41"/>
<path d="M114.08 97.2241H89.6812V86.5033C95.0669 84.3755 100.289 82.575 103.472 86.5033C109.347 86.5033 114.08 91.2499 114.08 97.2241Z" fill="#2F2E41"/>
<path d="M94.0058 85.4392C79.399 85.5211 75.3188 103.771 75.3188 114.165C75.3188 119.975 77.9301 122.021 82.0102 122.676L83.4791 114.983L86.8248 123.085C87.9672 123.085 89.1913 123.085 90.4153 123.085L91.5577 120.712L94.0874 123.003C104.369 123.003 119.221 122.103 112.611 114.246C103.88 103.607 106.736 85.3574 94.0058 85.4392Z" fill="#2F2E41"/>
<path d="M763.635 142.972C762.982 140.517 762.901 137.98 763.39 135.443C764.043 130.614 765.594 125.95 766.981 121.285C768.368 116.62 769.674 111.873 769.837 107.045C770 102.216 768.939 97.1425 766.083 93.2142C763.227 89.286 758.249 86.749 753.435 87.4855C748.865 88.2221 744.867 92.314 744.867 96.8969C744.051 98.37 745.111 100.416 746.58 101.316C748.131 102.216 750.089 102.38 751.803 102.871C755.312 104.017 758.168 106.554 759.718 109.827C761.187 113.183 761.595 116.866 760.861 120.466C760.208 123.904 758.576 127.095 757.352 130.451C756.128 133.806 755.393 137.407 756.291 140.844C757.923 146 763.145 149.192 768.45 148.292C766.083 147.391 764.288 145.427 763.635 142.972Z" fill="#2F2E41"/>
<path d="M824.184 354.852H12.2403C11.7507 354.852 11.4243 354.525 11.4243 354.034C11.4243 353.543 11.7507 353.215 12.2403 353.215H824.184C824.674 353.215 825 353.543 825 354.034C825 354.525 824.674 354.852 824.184 354.852Z" fill="#CACACA"/>
<path d="M638.947 315.078C637.396 302.312 629.481 289.708 617.322 285.535C622.137 298.711 622.137 313.114 617.322 326.208C615.445 331.282 612.834 336.684 614.629 341.84C615.69 345.031 618.383 347.405 621.402 348.96C624.421 350.514 627.686 351.169 630.95 351.906L631.602 352.479C636.743 340.694 640.497 327.845 638.947 315.078Z" fill="#F0F0F0"/>
<path d="M617.159 285.78C624.258 293.719 628.665 303.703 629.725 314.26C629.97 316.552 629.889 318.843 629.481 321.053C628.991 323.262 627.93 325.226 626.38 326.863C624.992 328.418 623.36 329.809 622.381 331.692C621.402 333.656 621.239 335.865 621.973 337.911C622.871 340.448 624.584 342.494 626.38 344.458C628.338 346.668 630.46 348.878 631.276 351.742C631.357 352.069 631.929 351.906 631.847 351.578C630.378 346.504 625.482 343.64 623.197 339.139C622.136 337.011 621.647 334.556 622.708 332.346C623.605 330.382 625.237 328.909 626.706 327.354C628.257 325.799 629.317 323.917 629.97 321.789C630.541 319.58 630.705 317.288 630.46 314.997C630.052 309.841 628.828 304.849 626.869 300.02C624.666 294.537 621.565 289.545 617.648 285.125C617.322 285.125 616.914 285.535 617.159 285.78Z" fill="white"/>
<path d="M629.562 310.905C633.153 310.004 635.601 306.649 635.356 302.966C635.356 302.639 634.785 302.639 634.785 302.966C635.03 306.403 632.745 309.595 629.399 310.332C629.073 310.414 629.236 310.986 629.562 310.905Z" fill="white"/>
<path d="M627.196 326.29C624.013 324.408 621.728 321.38 620.668 317.861C620.586 317.534 620.015 317.697 620.096 318.025C621.157 321.707 623.605 324.817 626.869 326.781C627.277 326.945 627.522 326.454 627.196 326.29Z" fill="white"/>
<path d="M624.095 295.356C622.789 296.01 621.239 295.928 620.015 295.11C619.688 294.946 619.443 295.437 619.77 295.601C621.157 296.42 622.789 296.501 624.258 295.847C624.421 295.765 624.503 295.601 624.421 295.519C624.34 295.356 624.176 295.274 624.095 295.356Z" fill="white"/>
<path d="M580.274 308.368C580.438 308.531 580.682 308.613 580.846 308.777C583.375 310.496 585.823 312.378 588.108 314.424C588.271 314.588 588.435 314.751 588.598 314.915C593.984 319.989 598.39 326.045 601.573 332.674C602.797 335.293 603.858 338.075 604.755 340.858C605.898 344.786 606.877 349.042 609.162 352.233C609.406 352.561 609.651 352.888 609.896 353.215H630.786C630.868 353.215 630.868 353.133 630.95 353.133H631.766C631.766 352.97 631.684 352.806 631.684 352.724C631.684 352.642 631.602 352.561 631.602 352.479C631.602 352.397 631.602 352.397 631.602 352.315C631.602 352.315 631.602 352.315 631.602 352.233C631.602 352.151 631.602 352.151 631.602 352.07C631.358 351.251 631.194 350.351 630.95 349.533C629.317 342.986 626.951 336.684 623.769 330.71C623.687 330.546 623.605 330.382 623.442 330.137C621.973 327.518 620.341 324.981 618.464 322.608C617.485 321.298 616.343 320.071 615.2 318.843C612.263 315.815 608.835 313.196 605.082 311.232C597.574 307.222 588.924 305.749 580.846 308.204C580.682 308.286 580.519 308.286 580.274 308.368Z" fill="#F0F0F0"/>
<path d="M580.356 308.613C590.801 310.659 600.267 315.979 607.53 323.835C609.08 325.472 610.468 327.354 611.447 329.4C612.344 331.446 612.671 333.656 612.426 335.947C612.263 337.993 611.773 340.121 612.1 342.249C612.426 344.377 613.732 346.341 615.527 347.487C617.73 348.96 620.423 349.614 622.953 350.105C625.809 350.678 628.828 351.169 631.276 352.97C631.603 353.215 631.929 352.724 631.603 352.479C627.441 349.369 621.81 350.024 617.241 347.814C615.119 346.75 613.242 345.113 612.752 342.658C612.263 340.53 612.752 338.403 612.916 336.275C613.16 334.147 612.916 331.937 612.181 329.891C611.284 327.764 610.06 325.881 608.509 324.163C605.082 320.316 601.083 317.043 596.677 314.424C591.617 311.396 586.15 309.268 580.356 308.122C580.03 308.04 579.948 308.613 580.356 308.613Z" fill="white"/>
<path d="M605.326 321.216C607.693 318.352 607.611 314.178 605.163 311.396C604.918 311.15 604.51 311.477 604.755 311.723C607.04 314.342 607.122 318.188 604.918 320.889C604.592 321.134 605.082 321.462 605.326 321.216Z" fill="white"/>
<path d="M612.671 334.884C608.999 335.293 605.327 334.311 602.389 332.101C602.062 331.856 601.736 332.347 602.062 332.592C605.163 334.884 608.999 335.866 612.752 335.456C613.079 335.456 612.997 334.884 612.671 334.884Z" fill="white"/>
<path d="M591.535 312.132C590.883 313.442 589.577 314.26 588.19 314.424C587.863 314.424 587.945 314.997 588.271 314.997C589.822 314.833 591.291 313.851 592.025 312.46C592.107 312.296 592.107 312.132 591.943 312.05C591.78 311.968 591.617 311.969 591.535 312.132Z" fill="white"/>
<path d="M168.182 315.078C169.733 302.312 177.648 289.708 189.807 285.535C184.992 298.711 184.992 313.114 189.807 326.208C191.684 331.282 194.295 336.684 192.5 341.84C191.439 345.031 188.746 347.405 185.727 348.96C182.708 350.514 179.443 351.169 176.179 351.906L175.527 352.479C170.386 340.694 166.632 327.845 168.182 315.078Z" fill="#F0F0F0"/>
<path d="M189.889 285.78C182.789 293.719 178.383 303.703 177.322 314.26C177.077 316.552 177.159 318.843 177.567 321.053C178.056 323.262 179.117 325.226 180.668 326.863C182.055 328.418 183.687 329.809 184.666 331.692C185.645 333.656 185.809 335.865 185.074 337.911C184.177 340.448 182.463 342.494 180.668 344.458C178.709 346.668 176.588 348.878 175.772 351.742C175.69 352.069 175.119 351.906 175.2 351.578C176.669 346.504 181.565 343.64 183.85 339.139C184.911 337.011 185.401 334.556 184.34 332.346C183.442 330.382 181.81 328.909 180.341 327.354C178.791 325.799 177.73 323.917 177.077 321.789C176.506 319.58 176.343 317.288 176.588 314.997C176.996 309.841 178.22 304.849 180.178 300.02C182.381 294.537 185.482 289.545 189.399 285.125C189.807 285.125 190.134 285.535 189.889 285.78Z" fill="white"/>
<path d="M177.485 310.905C173.895 310.004 171.447 306.649 171.692 302.966C171.692 302.639 172.263 302.639 172.263 302.966C172.018 306.403 174.303 309.595 177.649 310.332C178.057 310.414 177.893 310.986 177.485 310.905Z" fill="white"/>
<path d="M179.933 326.29C183.115 324.408 185.4 321.38 186.461 317.861C186.543 317.534 187.114 317.697 187.032 318.025C185.972 321.707 183.523 324.817 180.259 326.781C179.851 326.945 179.607 326.454 179.933 326.29Z" fill="white"/>
<path d="M183.034 295.356C184.34 296.01 185.89 295.928 187.114 295.11C187.441 294.946 187.686 295.437 187.359 295.601C185.972 296.42 184.34 296.501 182.871 295.847C182.708 295.765 182.626 295.601 182.708 295.519C182.708 295.356 182.871 295.274 183.034 295.356Z" fill="white"/>
<path d="M226.773 308.368C226.61 308.531 226.365 308.613 226.202 308.777C223.672 310.496 221.224 312.378 218.939 314.424C218.776 314.588 218.613 314.751 218.449 314.915C213.064 319.989 208.657 326.045 205.475 332.674C204.251 335.293 203.19 338.075 202.292 340.858C201.15 344.786 200.17 349.042 197.886 352.233C197.641 352.561 197.396 352.888 197.151 353.215H176.261C176.179 353.215 176.179 353.133 176.098 353.133H175.282C175.282 352.97 175.363 352.806 175.363 352.724C175.363 352.642 175.445 352.561 175.445 352.479C175.445 352.397 175.445 352.397 175.445 352.315C175.445 352.315 175.445 352.315 175.445 352.233C175.445 352.151 175.445 352.151 175.445 352.07C175.69 351.251 175.853 350.351 176.098 349.533C177.73 342.986 180.096 336.684 183.279 330.71C183.36 330.546 183.442 330.382 183.605 330.137C185.074 327.518 186.706 324.981 188.583 322.608C189.562 321.298 190.705 320.071 191.847 318.843C194.785 315.815 198.212 313.196 201.966 311.232C209.473 307.222 218.123 305.749 226.202 308.204C226.365 308.286 226.61 308.286 226.773 308.368Z" fill="#F0F0F0"/>
<path d="M226.773 308.613C216.328 310.659 206.862 315.979 199.6 323.835C198.049 325.472 196.662 327.354 195.683 329.4C194.785 331.446 194.459 333.656 194.703 335.947C194.867 337.993 195.356 340.121 195.03 342.249C194.703 344.377 193.398 346.341 191.602 347.487C189.399 348.96 186.706 349.614 184.177 350.105C181.321 350.678 178.301 351.169 175.853 352.97C175.527 353.215 175.2 352.724 175.527 352.479C179.689 349.369 185.319 350.024 189.889 347.814C192.01 346.75 193.887 345.113 194.377 342.658C194.867 340.53 194.377 338.403 194.214 336.275C193.969 334.147 194.214 331.937 194.948 329.891C195.846 327.764 197.07 325.881 198.62 324.163C202.048 320.316 206.046 317.043 210.453 314.424C215.512 311.396 220.979 309.268 226.773 308.122C227.099 308.04 227.099 308.613 226.773 308.613Z" fill="white"/>
<path d="M201.803 321.216C199.436 318.352 199.518 314.178 201.966 311.396C202.211 311.15 202.619 311.477 202.374 311.723C200.089 314.342 200.007 318.188 202.211 320.889C202.455 321.134 202.047 321.462 201.803 321.216Z" fill="white"/>
<path d="M194.458 334.884C198.131 335.293 201.803 334.311 204.74 332.101C205.067 331.856 205.393 332.347 205.067 332.592C201.966 334.884 198.131 335.866 194.377 335.456C193.969 335.456 194.132 334.884 194.458 334.884Z" fill="white"/>
<path d="M215.512 312.132C216.165 313.442 217.47 314.26 218.858 314.424C219.184 314.424 219.102 314.997 218.776 314.997C217.226 314.833 215.757 313.851 215.022 312.46C214.941 312.296 214.941 312.132 215.104 312.05C215.267 311.968 215.43 311.969 215.512 312.132Z" fill="white"/>
</g>
<defs>
<linearGradient id="paint0_linear_6_2177" x1="294.052" y1="199.198" x2="471.721" y2="199.198" gradientUnits="userSpaceOnUse">
<stop stop-color="#88A9FF"/>
<stop offset="1" stop-color="#00AEEF"/>
</linearGradient>
<linearGradient id="paint1_linear_6_2177" x1="294.052" y1="215.553" x2="471.721" y2="215.553" gradientUnits="userSpaceOnUse">
<stop stop-color="#88B0FF"/>
<stop offset="1" stop-color="#00AEEF"/>
</linearGradient>
<linearGradient id="paint2_linear_6_2177" x1="294.052" y1="231.907" x2="471.721" y2="231.907" gradientUnits="userSpaceOnUse">
<stop stop-color="#8296FF"/>
<stop offset="1" stop-color="#00AEEF"/>
</linearGradient>
<linearGradient id="paint3_linear_6_2177" x1="279.174" y1="200.12" x2="287.36" y2="200.12" gradientUnits="userSpaceOnUse">
<stop stop-color="#889BFF"/>
<stop offset="1" stop-color="#00AEEF"/>
</linearGradient>
<linearGradient id="paint4_linear_6_2177" x1="560.514" y1="206.173" x2="603.903" y2="206.173" gradientUnits="userSpaceOnUse">
<stop stop-color="#88A9FF"/>
<stop offset="1" stop-color="#00AEEF"/>
</linearGradient>
<linearGradient id="paint5_linear_6_2177" x1="554.709" y1="214.671" x2="609.314" y2="214.671" gradientUnits="userSpaceOnUse">
<stop stop-color="#88A2FF"/>
<stop offset="1" stop-color="#00AEEF"/>
</linearGradient>
<linearGradient id="paint6_linear_6_2177" x1="128.663" y1="82.8824" x2="170.354" y2="82.8824" gradientUnits="userSpaceOnUse">
<stop stop-color="#889BFF"/>
<stop offset="1" stop-color="#00AEEF"/>
</linearGradient>
<linearGradient id="paint7_linear_6_2177" x1="117.516" y1="120.453" x2="159.167" y2="120.453" gradientUnits="userSpaceOnUse">
<stop stop-color="#88A2FF"/>
<stop offset="1" stop-color="#00AEEF"/>
</linearGradient>
<clipPath id="clip0_6_2177">
<rect width="825" height="365" fill="white"/>
</clipPath>
</defs>
</svg>
