<svg width="673" height="546" viewBox="0 0 673 546" fill="none" xmlns="http://www.w3.org/2000/svg">
<g clip-path="url(#clip0_6_2011)">
<path d="M642.927 357.19C642.184 358.427 641.441 359.664 640.605 360.901C610.141 408.073 539.181 437.349 419.552 421.845C351.657 412.609 322.678 446.421 294.721 481.14C294.257 481.717 293.793 482.377 293.235 482.954C263.885 519.323 234.814 555.691 162.275 543.651C85.2774 532.848 37.8159 477.346 30.3855 418.052C30.2926 417.31 30.1997 416.567 30.1069 415.908C26.0202 377.478 38.7447 337.728 71.3455 307.709C91.036 289.566 118.993 279.918 147.786 280.248C156.516 280.412 165.154 279.835 173.699 278.516C175.557 278.186 177.414 277.856 179.179 277.526C215.959 270.104 232.863 247.92 243.266 220.87C243.545 220.211 243.73 219.551 244.009 218.974C267.879 154.484 256.826 63.9336 386.487 77.2109C502.493 84.6331 587.664 141.783 629.46 207.676C629.831 208.335 630.296 208.995 630.667 209.655C642.184 227.963 650.358 247.673 654.909 268.207C655.188 269.362 655.373 270.516 655.652 271.671C661.596 302.349 657.695 332.12 642.927 357.19Z" fill="#F2F2F2"/>
<path d="M631.03 167.457C622.674 177.39 613.295 186.301 603.082 194.191C563.062 224.824 512.457 241.439 462.502 244.967C436.781 246.73 411.061 245.059 385.805 239.768C360.178 234.385 335.757 224.916 312.08 213.87C289.052 203.102 266.674 191.035 243.833 179.989C244.111 179.246 244.297 178.504 244.575 177.854C269.553 189.828 293.973 203.102 319.229 214.52C343 225.288 367.606 234.106 393.326 238.747C419.047 243.389 445.231 244.41 471.23 241.811C521.092 236.798 571.697 218.419 610.046 185.558C617.195 179.432 623.881 172.563 629.916 165.322C630.195 165.972 630.659 166.715 631.03 167.457Z" fill="white"/>
<path d="M457.952 69.3127C457.859 69.3127 457.859 69.3127 457.766 69.3127C396.297 73.2114 348.106 124.451 348.106 186.18C348.106 247.816 396.297 299.149 457.766 302.955C458.509 303.047 459.252 302.769 459.809 302.212C460.366 301.748 460.645 301.005 460.645 300.263V72.0046C460.645 70.5194 459.437 69.3127 457.952 69.3127Z" fill="#CCCCCC"/>
<path d="M551.919 264.154C550.991 264.154 550.155 263.782 549.505 263.133L470.023 183.674C469.373 183.024 469.001 182.189 469.001 181.26V72.0047C469.001 71.0765 469.373 70.1482 470.116 69.4984C470.766 68.8487 471.787 68.4774 472.716 68.5702C534.556 72.4688 583.118 124.08 583.118 186.087C583.118 214.306 572.997 241.504 554.612 262.854C553.962 263.597 553.126 263.968 552.105 264.061C552.012 264.154 552.012 264.154 551.919 264.154Z" fill="#CCCCCC"/>
<path d="M472.437 303.697C471.601 303.697 470.673 303.326 470.116 302.769C469.466 302.119 469.001 301.191 469.001 300.263V201.682C469.001 199.825 470.58 198.247 472.437 198.247C473.366 198.247 474.201 198.619 474.851 199.269L544.213 268.609C545.512 269.909 545.512 272.137 544.213 273.436L544.12 273.529C524.342 291.259 499.179 301.934 472.716 303.604C472.623 303.697 472.53 303.697 472.437 303.697Z" fill="url(#paint0_linear_6_2011)"/>
<path d="M656.008 237.355C644.865 257.127 629.173 274.485 611.16 288.316C571.14 318.949 520.535 335.564 470.58 339.092C444.859 340.855 419.139 339.185 393.883 333.894C368.256 328.51 343.835 319.041 320.158 307.995C296.016 296.763 272.71 283.953 248.661 272.536C224.705 261.118 200.006 251.279 174.192 244.967C176.049 244.595 177.907 244.224 179.671 243.853C181.342 244.317 183.013 244.781 184.685 245.245C235.197 259.355 279.766 287.202 327.122 308.645C350.892 319.413 375.498 328.231 401.218 332.872C426.939 337.514 453.123 338.535 479.122 335.936C528.984 330.923 579.589 312.544 617.938 279.683C633.073 266.688 645.701 251.093 655.172 233.549C655.543 234.756 655.822 236.055 656.008 237.355Z" fill="white"/>
<path d="M154.786 410.567C204.556 424.491 248.475 451.689 295.18 473.039C294.716 473.689 294.252 474.431 293.695 475.081C292.488 474.524 291.373 473.967 290.166 473.41C266.024 462.178 242.718 449.369 218.669 437.951C194.156 426.255 168.993 416.323 142.622 409.918C106.131 401.099 68.3399 398.407 31.0129 401.935C30.9201 401.099 30.8272 400.264 30.7344 399.521C72.3326 395.623 114.395 399.336 154.786 410.567Z" fill="white"/>
<path d="M354.699 488.819H0.928532C0.371413 488.819 0 488.448 0 487.891C0 487.334 0.371413 486.963 0.928532 486.963H354.699C355.256 486.963 355.628 487.334 355.628 487.891C355.628 488.448 355.256 488.819 354.699 488.819Z" fill="#CCCCCC"/>
<path d="M144.015 363.598C156.63 363.598 166.857 353.374 166.857 340.763C166.857 328.151 156.63 317.928 144.015 317.928C131.4 317.928 121.173 328.151 121.173 340.763C121.173 353.374 131.4 363.598 144.015 363.598Z" fill="#A0616A"/>
<path d="M229.347 501.629L229.904 513.047L186.263 520.473L185.521 503.764L229.347 501.629Z" fill="#A0616A"/>
<path d="M240.211 498.288L241.419 524.093H240.954C237.333 524.372 233.805 523.443 230.74 521.587C227.955 519.823 226.376 517.317 226.191 514.625L225.448 498.845L240.211 498.288Z" fill="#2F2E41"/>
<path d="M228.14 520.38H239.561L244.947 476.474H228.14V520.38Z" fill="#A0616A"/>
<path d="M225.262 516.667H247.639C255.532 516.667 261.939 523.072 261.939 530.962V531.426H225.262V516.667Z" fill="#2F2E41"/>
<path d="M120.709 509.705C125.444 506.828 126.93 500.701 124.052 495.967C123.773 495.503 123.402 494.946 123.03 494.575L132.13 404.162L110.495 405.648L108.359 494.018C104.46 497.916 104.46 504.321 108.359 508.22C111.609 511.562 116.716 512.211 120.709 509.705Z" fill="#A0616A"/>
<path d="M131.945 419.943L109.567 417.251C107.153 416.972 105.389 414.745 105.667 412.238C105.667 412.053 105.76 411.774 105.76 411.589L111.703 389.867C112.538 383.091 118.759 378.264 125.631 379.1C132.409 379.935 137.237 386.154 136.402 392.931L136.959 415.394C137.052 417.901 135.102 419.943 132.595 419.943C132.409 419.943 132.223 419.943 131.945 419.943Z" fill="#88B0FF"/>
<path d="M128.88 522.515C120.338 521.958 113.931 514.532 114.488 505.992C114.674 503.207 115.602 500.608 117.181 498.38L131.851 483.157L185.242 435.352L213.748 411.681C219.226 407.133 227.212 407.968 231.761 413.352C232.969 414.837 233.897 416.601 234.361 418.458L249.311 478.794C249.868 480.836 248.661 482.971 246.711 483.714L230.461 489.562C228.326 490.305 225.912 489.191 225.076 487.056C225.076 486.963 224.983 486.87 224.983 486.684L218.762 463.478L184.313 496.338L195.084 500.33C197.127 501.072 198.241 503.3 197.684 505.342L194.249 517.595C193.784 519.359 192.206 520.566 190.349 520.659L128.88 522.515Z" fill="#2F2E41"/>
<path d="M127.395 488.263L126.002 436.651L117.088 414.002C110.217 396.551 118.759 376.779 136.309 369.817C138.073 369.074 140.023 368.518 141.88 368.146C142.623 367.961 143.365 367.868 144.108 367.682C162.586 364.062 180.507 376.036 184.128 394.416C184.314 395.53 184.499 396.644 184.592 397.758L188.771 436.559V436.651C182.085 466.356 162.772 482.693 127.952 488.077L127.395 488.263Z" fill="url(#paint1_linear_6_2011)"/>
<path d="M148.472 452.432C148.936 452.339 149.493 452.339 150.051 452.339L175.864 414.188L170.943 404.162L185.149 394.787L195.549 411.774C197.313 414.559 196.941 418.179 194.713 420.685L159.429 459.394C160.914 464.592 157.943 469.976 152.836 471.461C147.636 472.946 142.251 469.976 140.765 464.87C139.28 459.765 142.251 454.288 147.358 452.803C147.636 452.617 148.008 452.525 148.472 452.432Z" fill="#A0616A"/>
<path d="M173.543 413.445C172.336 413.074 171.407 412.331 170.85 411.217L161.936 392.281C158.408 386.897 159.8 379.749 165.186 376.222C170.479 372.695 177.628 374.087 181.25 379.378L195.363 394.973C196.942 396.644 196.756 399.336 195.085 400.914C194.899 401.006 194.806 401.192 194.62 401.285L177.071 412.981C175.957 413.631 174.657 413.816 173.543 413.445Z" fill="#88B0FF"/>
<path d="M446.531 358.492H371.227C368.999 358.492 367.142 356.636 367.142 354.408C367.142 352.18 368.999 350.324 371.227 350.324H446.531C448.76 350.324 450.617 352.18 450.617 354.408C450.617 356.636 448.76 358.492 446.531 358.492Z" fill="#CCCCCC"/>
<path d="M348.756 362.577C344.021 362.577 340.121 358.771 340.121 353.944C340.121 349.21 343.928 345.311 348.756 345.311C353.492 345.311 357.392 349.117 357.392 353.944C357.299 358.678 353.492 362.577 348.756 362.577Z" fill="#3F3D56"/>
<path d="M446.531 382.998H371.227C368.999 382.998 367.142 381.142 367.142 378.914C367.142 376.686 368.999 374.83 371.227 374.83H446.531C448.76 374.83 450.617 376.686 450.617 378.914C450.617 381.142 448.76 382.998 446.531 382.998Z" fill="#CCCCCC"/>
<path d="M348.756 387.083C344.021 387.083 340.121 383.277 340.121 378.45C340.121 373.623 343.928 369.817 348.756 369.817C353.585 369.817 357.392 373.623 357.392 378.45C357.299 383.277 353.492 387.083 348.756 387.083Z" fill="#3F3D56"/>
<path d="M446.531 407.597H371.227C368.999 407.597 367.142 405.741 367.142 403.513C367.142 401.285 368.999 399.428 371.227 399.428H446.531C448.76 399.428 450.617 401.285 450.617 403.513C450.617 405.741 448.76 407.597 446.531 407.597Z" fill="#CCCCCC"/>
<path d="M348.756 411.681C344.021 411.681 340.121 407.876 340.121 403.049C340.121 398.315 343.928 394.416 348.756 394.416C353.492 394.416 357.392 398.222 357.392 403.049C357.299 407.783 353.492 411.681 348.756 411.681Z" fill="#3F3D56"/>
<path d="M468.166 378.821H499.272C499.736 378.821 500.107 378.45 500.107 377.986V185.837C500.107 185.373 499.736 185.001 499.272 185.001C498.807 185.001 498.436 185.373 498.436 185.837V377.15H468.166C467.702 377.15 467.33 377.522 467.33 377.986C467.33 378.45 467.702 378.821 468.166 378.821Z" fill="#3F3D56"/>
<path d="M601.41 128.371C595.561 128.835 590.546 124.472 590.082 118.717C589.618 112.869 593.982 107.856 599.739 107.392C605.589 106.928 610.603 111.291 611.067 117.046C611.531 122.801 607.167 127.907 601.41 128.371ZM601.225 126.793C606.146 126.421 609.767 122.059 609.396 117.139C609.024 112.219 604.66 108.599 599.739 108.97C594.818 109.341 591.196 113.704 591.568 118.624C592.032 123.451 596.303 127.164 601.225 126.793Z" fill="#CCCCCC"/>
<path d="M637.716 101.358C641.305 101.358 644.215 98.4493 644.215 94.8607C644.215 91.272 641.305 88.3629 637.716 88.3629C634.126 88.3629 631.216 91.272 631.216 94.8607C631.216 98.4493 634.126 101.358 637.716 101.358Z" fill="#CCCCCC"/>
<path d="M669.564 77.8736C671.462 77.8736 673 76.3359 673 74.439C673 72.5422 671.462 71.0045 669.564 71.0045C667.667 71.0045 666.129 72.5422 666.129 74.439C666.129 76.3359 667.667 77.8736 669.564 77.8736Z" fill="#CCCCCC"/>
<path d="M551.827 267.802C548.577 272.629 542.077 274.021 537.249 270.772C532.42 267.523 531.028 261.026 534.277 256.199C537.527 251.372 544.027 249.979 548.855 253.228C553.684 256.384 554.984 262.882 551.827 267.802ZM535.577 257.034C532.885 261.118 533.999 266.688 538.084 269.38C542.17 272.072 547.741 270.958 550.434 266.874C553.127 262.789 552.012 257.22 547.927 254.528C543.841 251.836 538.27 252.95 535.577 257.034Z" fill="#CCCCCC"/>
<path d="M564.455 306.51C568.045 306.51 570.955 303.601 570.955 300.012C570.955 296.424 568.045 293.514 564.455 293.514C560.865 293.514 557.955 296.424 557.955 300.012C557.955 303.601 560.865 306.51 564.455 306.51Z" fill="#CCCCCC"/>
<path d="M582.561 336.771C584.458 336.771 585.997 335.234 585.997 333.337C585.997 331.44 584.458 329.902 582.561 329.902C580.664 329.902 579.125 331.44 579.125 333.337C579.125 335.234 580.664 336.771 582.561 336.771Z" fill="#CCCCCC"/>
<path d="M289.98 158.817C287.381 153.619 289.516 147.307 294.716 144.708C299.916 142.109 306.23 144.244 308.83 149.442C311.43 154.64 309.294 160.952 304.094 163.552C298.894 166.151 292.58 164.016 289.98 158.817ZM307.437 150.185C305.208 145.729 299.916 143.965 295.459 146.193C291.002 148.421 289.238 153.712 291.466 158.168C293.695 162.623 298.987 164.387 303.444 162.159C307.808 159.931 309.573 154.547 307.437 150.185Z" fill="#CCCCCC"/>
<path d="M255.717 160.024C259.307 160.024 262.217 157.115 262.217 153.526C262.217 149.938 259.307 147.029 255.717 147.029C252.128 147.029 249.218 149.938 249.218 153.526C249.218 157.115 252.128 160.024 255.717 160.024Z" fill="#CCCCCC"/>
<path d="M217.834 155.94C219.731 155.94 221.269 154.402 221.269 152.505C221.269 150.609 219.731 149.071 217.834 149.071C215.936 149.071 214.398 150.609 214.398 152.505C214.398 154.402 215.936 155.94 217.834 155.94Z" fill="#CCCCCC"/>
<path d="M168.157 342.805L167.229 340.391C164.629 333.708 158.315 328.603 151.629 327.581C144.758 326.653 138.073 329.809 134.359 335.564C132.78 338.256 131.573 341.134 130.737 344.104C130.459 345.033 130.18 345.59 129.53 345.868C128.88 346.147 128.23 345.682 127.116 345.033C126.373 344.569 125.538 344.847 125.073 345.497C124.888 345.775 124.795 346.147 124.888 346.518L126.002 354.594L125.073 353.758C118.945 348.282 117.645 337.978 122.102 331.48L111.981 333.522L112.445 332.687C116.624 324.611 123.866 318.485 132.502 315.7L122.845 313.565L123.866 313.008C132.502 307.717 143.922 307.81 152.929 313.379C162.122 319.227 167.786 329.345 168.157 340.206V342.805Z" fill="#2F2E41"/>
</g>
<defs>
<linearGradient id="paint0_linear_6_2011" x1="468.997" y1="251.001" x2="545.234" y2="251.001" gradientUnits="userSpaceOnUse">
<stop stop-color="#AECAFF"/>
<stop offset="1" stop-color="#63A1FF"/>
</linearGradient>
<linearGradient id="paint1_linear_6_2011" x1="114.681" y1="427.718" x2="188.711" y2="427.718" gradientUnits="userSpaceOnUse">
<stop stop-color="#63A1FF"/>
<stop offset="1" stop-color="#B9D1FF"/>
</linearGradient>
<clipPath id="clip0_6_2011">
<rect width="673" height="546" fill="white"/>
</clipPath>
</defs>
</svg>
