<svg width="275" height="223" viewBox="0 0 275 223" fill="none" xmlns="http://www.w3.org/2000/svg">
<g clip-path="url(#clip0_2_49)">
<path d="M262.712 145.885C262.408 146.391 262.105 146.896 261.763 147.401C249.315 166.667 220.319 178.624 171.436 172.292C143.693 168.52 131.852 182.329 120.428 196.51C120.239 196.745 120.049 197.015 119.821 197.251C107.828 212.104 95.9492 226.958 66.3084 222.041C34.8459 217.628 15.4523 194.96 12.4161 170.743C12.3781 170.44 12.3402 170.137 12.3022 169.867C10.6323 154.171 15.8318 137.936 29.1531 125.676C37.199 118.266 48.6226 114.325 60.3879 114.46C63.9554 114.527 67.485 114.292 70.9766 113.753C71.7356 113.618 72.4947 113.483 73.2158 113.349C88.2449 110.317 95.1522 101.257 99.4029 90.209C99.5167 89.9395 99.5927 89.6701 99.7065 89.4343C109.46 63.095 104.944 26.1121 157.925 31.5349C205.328 34.5663 240.13 57.9079 257.209 84.8199C257.361 85.0893 257.55 85.3588 257.702 85.6282C262.408 93.1057 265.748 101.156 267.608 109.542C267.722 110.014 267.797 110.486 267.911 110.957C270.34 123.487 268.746 135.646 262.712 145.885Z" fill="#F2F2F2"/>
<path d="M257.85 68.3937C254.436 72.4503 250.604 76.0899 246.43 79.3124C230.077 91.8235 209.399 98.6098 188.987 100.05C178.477 100.771 167.967 100.088 157.647 97.9274C147.175 95.7285 137.196 91.8614 127.521 87.3498C118.112 82.952 108.968 78.0234 99.6344 73.5119C99.7482 73.2086 99.8241 72.9053 99.9379 72.6399C110.144 77.5306 120.123 82.952 130.443 87.6152C140.156 92.0131 150.21 95.6147 160.72 97.5103C171.23 99.406 181.93 99.823 192.553 98.7614C212.928 96.7142 233.606 89.2075 249.276 75.7866C252.197 73.2844 254.929 70.4789 257.395 67.5217C257.509 67.7871 257.699 68.0904 257.85 68.3937Z" fill="white"/>
<path d="M187.127 28.309C187.09 28.309 187.09 28.309 187.052 28.309C161.934 29.9013 142.243 50.8289 142.243 76.0406C142.243 101.214 161.934 122.18 187.052 123.734C187.355 123.772 187.659 123.658 187.886 123.431C188.114 123.241 188.228 122.938 188.228 122.635V29.4085C188.228 28.8019 187.735 28.309 187.127 28.309Z" fill="#CCCCCC"/>
<path d="M225.524 107.887C225.145 107.887 224.803 107.735 224.538 107.47L192.06 75.017C191.794 74.7516 191.643 74.4104 191.643 74.0313V29.4085C191.643 29.0294 191.794 28.6503 192.098 28.3849C192.363 28.1195 192.781 27.9679 193.16 28.0058C218.429 29.5981 238.273 50.6773 238.273 76.0027C238.273 87.528 234.137 98.6363 226.625 107.356C226.359 107.659 226.018 107.811 225.6 107.849C225.562 107.887 225.562 107.887 225.524 107.887Z" fill="#CCCCCC"/>
<path d="M193.046 124.038C192.705 124.038 192.325 123.886 192.098 123.658C191.832 123.393 191.643 123.014 191.643 122.635V82.3719C191.643 81.6137 192.288 80.9692 193.046 80.9692C193.426 80.9692 193.767 81.1208 194.033 81.3862L222.375 109.707C222.906 110.237 222.906 111.147 222.375 111.678L222.337 111.716C214.256 118.957 203.974 123.317 193.16 124C193.122 124.038 193.084 124.038 193.046 124.038Z" fill="url(#paint0_linear_2_49)"/>
<path d="M268.057 96.9417C263.504 105.017 257.092 112.107 249.731 117.756C233.378 130.267 212.7 137.053 192.288 138.494C181.778 139.214 171.268 138.531 160.948 136.37C150.476 134.172 140.497 130.304 130.822 125.793C120.958 121.206 111.434 115.974 101.607 111.31C91.8184 106.647 81.726 102.629 71.1783 100.05C71.9371 99.8988 72.6959 99.7472 73.4168 99.5955C74.0997 99.7851 74.7827 99.9747 75.4656 100.164C96.1058 105.927 114.318 117.301 133.668 126.058C143.381 130.456 153.435 134.058 163.945 135.953C174.455 137.849 185.155 138.266 195.778 137.205C216.153 135.157 236.831 127.651 252.501 114.23C258.685 108.922 263.845 102.553 267.715 95.3873C267.867 95.8801 267.981 96.4109 268.057 96.9417Z" fill="white"/>
<path d="M63.2485 167.686C83.5852 173.373 101.531 184.481 120.616 193.201C120.426 193.466 120.237 193.77 120.009 194.035C119.516 193.808 119.06 193.58 118.567 193.353C108.702 188.765 99.1791 183.533 89.3523 178.87C79.3357 174.093 69.0536 170.037 58.2782 167.421C43.3672 163.819 27.925 162.72 12.6725 164.16C12.6345 163.819 12.5966 163.478 12.5587 163.174C29.5564 161.582 46.7439 163.099 63.2485 167.686Z" fill="white"/>
<path d="M144.937 199.646H0.379415C0.151766 199.646 0 199.494 0 199.267C0 199.039 0.151766 198.888 0.379415 198.888H144.937C145.164 198.888 145.316 199.039 145.316 199.267C145.316 199.494 145.164 199.646 144.937 199.646Z" fill="#CCCCCC"/>
<path d="M58.8473 148.502C64.0021 148.502 68.1809 144.327 68.1809 139.176C68.1809 134.025 64.0021 129.85 58.8473 129.85C53.6925 129.85 49.5137 134.025 49.5137 139.176C49.5137 144.327 53.6925 148.502 58.8473 148.502Z" fill="#A0616A"/>
<path d="M93.7155 204.878L93.9432 209.541L76.1107 212.574L75.8071 205.75L93.7155 204.878Z" fill="#A0616A"/>
<path d="M98.1547 203.513L98.6479 214.053H98.4582C96.9785 214.166 95.5367 213.787 94.2846 213.029C93.1464 212.309 92.5014 211.285 92.4255 210.186L92.122 203.741L98.1547 203.513Z" fill="#2F2E41"/>
<path d="M93.2223 212.536H97.8891L100.09 194.604H93.2223V212.536Z" fill="#A0616A"/>
<path d="M92.0461 211.02H101.19C104.415 211.02 107.033 213.636 107.033 216.858V217.048H92.0461V211.02Z" fill="#2F2E41"/>
<path d="M49.324 208.176C51.259 207.001 51.866 204.499 50.6899 202.565C50.576 202.376 50.4243 202.148 50.2725 201.997L53.9908 165.07L45.1504 165.677L44.2777 201.769C42.6842 203.361 42.6842 205.977 44.2777 207.57C45.6057 208.935 47.6925 209.2 49.324 208.176Z" fill="#A0616A"/>
<path d="M53.9149 171.515L44.771 170.416C43.7845 170.302 43.0636 169.392 43.1774 168.368C43.1774 168.293 43.2154 168.179 43.2154 168.103L45.6436 159.232C45.9851 156.464 48.5272 154.493 51.3348 154.834C54.1046 155.175 56.0775 157.715 55.736 160.483L55.9637 169.657C56.0016 170.681 55.2049 171.515 54.1805 171.515C54.1046 171.515 54.0287 171.515 53.9149 171.515Z" fill="#88B0FF"/>
<path d="M52.6628 213.408C49.1722 213.181 46.5542 210.148 46.7819 206.66C46.8577 205.522 47.2372 204.461 47.8822 203.551L53.8769 197.333L75.6933 177.809L87.3413 168.141C89.5799 166.283 92.8428 166.624 94.702 168.823C95.1952 169.43 95.5746 170.15 95.7643 170.909L101.873 195.551C102.101 196.386 101.607 197.258 100.811 197.561L94.1708 199.949C93.2981 200.253 92.3117 199.798 91.9702 198.926C91.9702 198.888 91.9322 198.85 91.9322 198.774L89.3902 189.296L75.3139 202.717L79.7151 204.347C80.5498 204.65 81.0051 205.56 80.7774 206.394L79.3736 211.399C79.1839 212.119 78.5389 212.612 77.7801 212.65L52.6628 213.408Z" fill="#2F2E41"/>
<path d="M52.0558 199.419L51.4866 178.339L47.8443 169.089C45.0366 161.961 48.5272 153.886 55.6981 151.043C56.419 150.739 57.2158 150.512 57.9746 150.36C58.2782 150.284 58.5817 150.246 58.8852 150.171C66.4356 148.692 73.7583 153.583 75.238 161.089C75.3139 161.544 75.3898 161.999 75.4277 162.454L77.1351 178.301V178.339C74.4033 190.471 66.5115 197.144 52.2834 199.343L52.0558 199.419Z" fill="url(#paint1_linear_2_49)"/>
<path d="M60.6685 184.784C60.8582 184.747 61.0858 184.747 61.3135 184.747L71.8612 169.165L69.8503 165.07L75.6554 161.241L79.9048 168.179C80.6257 169.316 80.4739 170.795 79.5633 171.818L65.1456 187.628C65.7526 189.751 64.5385 191.95 62.4517 192.556C60.327 193.163 58.1264 191.95 57.5193 189.865C56.9123 187.779 58.1264 185.543 60.2132 184.936C60.327 184.86 60.4788 184.822 60.6685 184.784Z" fill="#A0616A"/>
<path d="M70.9127 168.861C70.4194 168.71 70.04 168.406 69.8124 167.951L66.17 160.217C64.7282 158.018 65.2973 155.099 67.4979 153.658C69.6606 152.218 72.5821 152.786 74.0618 154.947L79.8289 161.317C80.4739 161.999 80.398 163.099 79.7151 163.743C79.6392 163.781 79.6013 163.857 79.5254 163.895L72.3544 168.672C71.8991 168.937 71.368 169.013 70.9127 168.861Z" fill="#88B0FF"/>
<path d="M182.461 146.417H151.69C150.78 146.417 150.021 145.659 150.021 144.749C150.021 143.839 150.78 143.081 151.69 143.081H182.461C183.371 143.081 184.13 143.839 184.13 144.749C184.13 145.659 183.371 146.417 182.461 146.417Z" fill="#CCCCCC"/>
<path d="M142.508 148.085C140.573 148.085 138.98 146.531 138.98 144.56C138.98 142.626 140.535 141.034 142.508 141.034C144.443 141.034 146.037 142.588 146.037 144.56C145.999 146.493 144.443 148.085 142.508 148.085Z" fill="#3F3D56"/>
<path d="M182.461 156.426H151.69C150.78 156.426 150.021 155.668 150.021 154.758C150.021 153.848 150.78 153.09 151.69 153.09H182.461C183.371 153.09 184.13 153.848 184.13 154.758C184.13 155.668 183.371 156.426 182.461 156.426Z" fill="#CCCCCC"/>
<path d="M142.508 158.094C140.573 158.094 138.98 156.54 138.98 154.568C138.98 152.597 140.535 151.042 142.508 151.042C144.481 151.042 146.037 152.597 146.037 154.568C145.999 156.54 144.443 158.094 142.508 158.094Z" fill="#3F3D56"/>
<path d="M182.461 166.473H151.69C150.78 166.473 150.021 165.715 150.021 164.805C150.021 163.895 150.78 163.136 151.69 163.136H182.461C183.371 163.136 184.13 163.895 184.13 164.805C184.13 165.715 183.371 166.473 182.461 166.473Z" fill="#CCCCCC"/>
<path d="M142.508 168.141C140.573 168.141 138.98 166.587 138.98 164.615C138.98 162.682 140.535 161.089 142.508 161.089C144.443 161.089 146.037 162.644 146.037 164.615C145.999 166.549 144.443 168.141 142.508 168.141Z" fill="#3F3D56"/>
<path d="M191.301 154.72H204.011C204.201 154.72 204.353 154.568 204.353 154.379V75.9004C204.353 75.7108 204.201 75.5591 204.011 75.5591C203.822 75.5591 203.67 75.7108 203.67 75.9004V154.038H191.301C191.111 154.038 190.96 154.189 190.96 154.379C190.96 154.568 191.111 154.72 191.301 154.72Z" fill="#3F3D56"/>
<path d="M245.747 52.4298C243.357 52.6193 241.308 50.8375 241.118 48.4869C240.929 46.0984 242.712 44.0512 245.064 43.8616C247.454 43.672 249.503 45.4539 249.693 47.8045C249.883 50.155 248.099 52.2402 245.747 52.4298ZM245.671 51.7853C247.682 51.6336 249.162 49.8517 249.01 47.8424C248.858 45.833 247.075 44.3545 245.064 44.5061C243.053 44.6578 241.574 46.4396 241.725 48.449C241.915 50.4204 243.66 51.9369 245.671 51.7853Z" fill="#CCCCCC"/>
<path d="M260.582 41.3973C262.049 41.3973 263.238 40.2091 263.238 38.7435C263.238 37.2778 262.049 36.0896 260.582 36.0896C259.115 36.0896 257.926 37.2778 257.926 38.7435C257.926 40.2091 259.115 41.3973 260.582 41.3973Z" fill="#CCCCCC"/>
<path d="M273.596 31.8055C274.371 31.8055 275 31.1775 275 30.4028C275 29.628 274.371 29 273.596 29C272.821 29 272.192 29.628 272.192 30.4028C272.192 31.1775 272.821 31.8055 273.596 31.8055Z" fill="#CCCCCC"/>
<path d="M225.486 109.377C224.158 111.348 221.502 111.917 219.53 110.59C217.557 109.263 216.987 106.609 218.315 104.638C219.643 102.666 222.299 102.098 224.272 103.425C226.245 104.714 226.776 107.368 225.486 109.377ZM218.847 104.979C217.746 106.647 218.202 108.922 219.871 110.021C221.54 111.121 223.817 110.666 224.917 108.998C226.018 107.33 225.562 105.055 223.893 103.955C222.223 102.856 219.947 103.311 218.847 104.979Z" fill="#CCCCCC"/>
<path d="M230.646 125.186C232.113 125.186 233.302 123.998 233.302 122.532C233.302 121.067 232.113 119.879 230.646 119.879C229.18 119.879 227.99 121.067 227.99 122.532C227.99 123.998 229.18 125.186 230.646 125.186Z" fill="#CCCCCC"/>
<path d="M238.045 137.546C238.82 137.546 239.449 136.918 239.449 136.143C239.449 135.368 238.82 134.74 238.045 134.74C237.27 134.74 236.641 135.368 236.641 136.143C236.641 136.918 237.27 137.546 238.045 137.546Z" fill="#CCCCCC"/>
<path d="M118.491 64.865C117.429 62.7419 118.302 60.1639 120.426 59.1023C122.551 58.0408 125.131 58.9128 126.193 61.0358C127.256 63.1589 126.383 65.737 124.258 66.7985C122.134 67.8601 119.554 66.9881 118.491 64.865ZM125.624 61.3391C124.714 59.5194 122.551 58.799 120.73 59.7089C118.909 60.6188 118.188 62.7798 119.098 64.5996C120.009 66.4194 122.172 67.1397 123.993 66.2298C125.776 65.3199 126.497 63.121 125.624 61.3391Z" fill="#CCCCCC"/>
<path d="M104.491 65.3579C105.958 65.3579 107.147 64.1697 107.147 62.704C107.147 61.2383 105.958 60.0502 104.491 60.0502C103.024 60.0502 101.835 61.2383 101.835 62.704C101.835 64.1697 103.024 65.3579 104.491 65.3579Z" fill="#CCCCCC"/>
<path d="M89.0108 63.6897C89.7861 63.6897 90.4146 63.0617 90.4146 62.287C90.4146 61.5123 89.7861 60.8842 89.0108 60.8842C88.2355 60.8842 87.6069 61.5123 87.6069 62.287C87.6069 63.0617 88.2355 63.6897 89.0108 63.6897Z" fill="#CCCCCC"/>
<path d="M68.7121 140.01L68.3326 139.024C67.2703 136.295 64.6903 134.209 61.9585 133.792C59.1508 133.413 56.419 134.702 54.9013 137.053C54.2563 138.152 53.7631 139.328 53.4216 140.541C53.3078 140.92 53.194 141.147 52.9284 141.261C52.6628 141.375 52.3972 141.185 51.9419 140.92C51.6384 140.73 51.2969 140.844 51.1072 141.109C51.0313 141.223 50.9934 141.375 51.0313 141.526L51.4866 144.825L51.1072 144.484C48.6031 142.247 48.0719 138.039 49.8931 135.385L45.7574 136.219L45.9472 135.878C47.6545 132.579 50.614 130.077 54.1425 128.94L50.1966 128.068L50.614 127.84C54.1425 125.679 58.8093 125.717 62.4896 127.992C66.2459 130.38 68.5603 134.513 68.7121 138.948V140.01Z" fill="#2F2E41"/>
</g>
<defs>
<linearGradient id="paint0_linear_2_49" x1="191.641" y1="102.515" x2="222.792" y2="102.515" gradientUnits="userSpaceOnUse">
<stop stop-color="#AECAFF"/>
<stop offset="1" stop-color="#63A1FF"/>
</linearGradient>
<linearGradient id="paint1_linear_2_49" x1="46.8607" y1="174.691" x2="77.1106" y2="174.691" gradientUnits="userSpaceOnUse">
<stop stop-color="#63A1FF"/>
<stop offset="1" stop-color="#B9D1FF"/>
</linearGradient>
<clipPath id="clip0_2_49">
<rect width="275" height="223" fill="white"/>
</clipPath>
</defs>
</svg>
