<svg width="755" height="755" viewBox="0 0 755 755" fill="none" xmlns="http://www.w3.org/2000/svg">
<g clip-path="url(#clip0_6_2271)">
<mask id="mask0_6_2271" style="mask-type:luminance" maskUnits="userSpaceOnUse" x="34" y="-114" width="867" height="870">
<path d="M901 -114H34V755.089H901V-114Z" fill="white"/>
</mask>
<g mask="url(#mask0_6_2271)">
<path d="M613.972 256.594C599.814 256.594 588.438 245.218 588.438 231.061C588.438 216.9 599.814 205.524 613.972 205.524C628.132 205.524 639.506 216.9 639.506 231.061C639.506 245.218 628.132 256.594 613.972 256.594ZM613.972 207.847C601.205 207.847 590.761 218.294 590.761 231.061C590.761 243.828 601.205 254.271 613.972 254.271C626.739 254.271 637.185 243.828 637.185 231.061C637.185 218.294 626.855 207.847 613.972 207.847Z" fill="#3F3D56"/>
<path d="M176.411 183.472C162.251 183.472 150.876 172.099 150.876 157.939C150.876 143.779 162.251 132.405 176.411 132.405C190.571 132.405 201.945 143.779 201.945 157.939C201.945 172.099 190.571 183.472 176.411 183.472ZM176.411 134.726C163.644 134.726 153.198 145.172 153.198 157.939C153.198 170.706 163.644 181.152 176.411 181.152C189.178 181.152 199.624 170.706 199.624 157.939C199.624 145.172 189.294 134.726 176.411 134.726Z" fill="#3F3D56"/>
<path d="M39.9189 286.306C39.9189 285.842 39.9189 285.379 40.035 284.912L41.0796 220.73L42.7045 220.614H42.8206L175.134 225.953C180.821 226.185 185.231 231.061 184.999 236.747L182.678 288.163C182.446 293.849 177.571 298.262 171.884 298.03L46.1864 292.922C42.7045 292.691 39.9189 289.788 39.9189 286.306Z" fill="#8DADFF"/>
<path d="M34 281.545C34 281.43 34 281.198 34 281.082L36.2052 230.71C36.4373 224.791 41.5442 220.15 47.4635 220.382L168.286 225.721C173.973 225.953 178.384 230.825 178.152 236.515L175.83 287.93C175.598 293.617 170.724 298.029 165.037 297.794L44.3297 292.34C38.5265 292.108 34 287.351 34 281.545Z" fill="#2F2E41"/>
<path d="M146.698 266.342C150.737 266.342 154.01 263.069 154.01 259.03C154.01 254.992 150.737 251.718 146.698 251.718C142.66 251.718 139.386 254.992 139.386 259.03C139.386 263.069 142.66 266.342 146.698 266.342Z" fill="#8DADFF"/>
<path d="M588.322 642.739L576.019 471.659L578.342 414.557L530.29 425.235L547.933 649.355C541.895 661.772 547.119 676.746 559.538 682.781C571.957 688.815 586.929 683.595 592.966 671.175C597.723 661.772 595.75 650.282 588.322 642.739Z" fill="#9E616A"/>
<path d="M160.162 311.028L114.2 281.198C110.138 267.968 96.2106 260.54 82.9793 264.485C69.748 268.547 62.3198 282.476 66.2659 295.706C69.8639 307.43 81.4703 314.858 93.6572 313.233C94.0052 313.233 94.3534 313.117 94.5857 313.001L143.797 348.865L160.162 311.028Z" fill="#9E616A"/>
<path d="M222.256 413.861L113.04 333.195L152.618 302.438L200.784 338.882L378.246 266.922C383.469 265.995 388.924 267.272 393.218 270.52C397.514 273.654 400.298 278.298 400.996 283.521L401.112 284.101L368.614 334.936L222.256 413.861Z" fill="#88C6FF"/>
<path d="M542.941 589.93L512.184 376.024V375.793L543.755 251.603L546.771 251.255C564.413 249.282 580.778 261.119 584.376 278.53L586.697 596.544L542.941 589.93Z" fill="#88C6FF"/>
<path d="M552.689 218.059H392.638V145.752C392.638 101.531 428.386 65.7837 472.605 65.7837C516.828 65.7837 552.573 101.531 552.573 145.752V218.059H552.689Z" fill="#2F2E41"/>
<path d="M470.865 220.151C506.955 220.151 536.209 190.894 536.209 154.805C536.209 118.717 506.955 89.4612 470.865 89.4612C434.777 89.4612 405.521 118.717 405.521 154.805C405.521 190.894 434.777 220.151 470.865 220.151Z" fill="#9E616A"/>
<path d="M502.32 99.3262C526.356 99.3262 545.844 79.8398 545.844 55.8023C545.844 31.7644 526.356 12.2783 502.32 12.2783C478.281 12.2783 458.796 31.7644 458.796 55.8023C458.796 79.8398 478.281 99.3262 502.32 99.3262Z" fill="#2F2E41"/>
<path d="M543.871 158.287H373.721V157.358C373.721 113.254 411.906 77.3901 458.796 77.3901C505.684 77.3901 543.871 113.254 543.871 157.358V158.287Z" fill="#2F2E41"/>
<path d="M571.146 259.494V259.262C570.564 251.487 563.718 245.568 555.94 246.148C555.824 246.148 555.708 246.148 555.592 246.148L384.863 263.558C379.292 264.138 374.532 267.852 372.791 273.191L360.14 310.912C357.24 314.16 318.241 358.845 341.455 420.012L350.16 469.921L334.259 499.632C301.644 534.566 282.726 616.391 277.851 737.794C316.036 749.286 355.847 755.089 395.657 755.089C396.005 755.089 396.352 755.089 396.584 755.089L407.378 677.673L430.591 753.695C468.544 750.561 505.918 741.974 541.432 728.393L514.157 540.253L508.702 469.338L570.914 259.726L571.146 259.494Z" fill="#2F2E41"/>
</g>
</g>
<defs>
<clipPath id="clip0_6_2271">
<rect width="755" height="755" fill="white"/>
</clipPath>
</defs>
</svg>
