<svg width="297" height="158" viewBox="0 0 297 158" fill="none" xmlns="http://www.w3.org/2000/svg">
<g clip-path="url(#clip0_2_129)">
<path d="M295.092 157.603H129.703C128.659 157.603 127.795 156.738 127.795 155.693V1.91056C127.795 0.865161 128.659 0 129.703 0H295.092C296.136 0 297 0.865161 297 1.91056V155.657C297 156.738 296.136 157.603 295.092 157.603ZM129.703 0.757016C129.055 0.757016 128.551 1.26169 128.551 1.91056V155.657C128.551 156.306 129.055 156.81 129.703 156.81H295.092C295.74 156.81 296.244 156.306 296.244 155.657V1.91056C296.244 1.26169 295.74 0.757016 295.092 0.757016H129.703Z" fill="#E6E6E6"/>
<path d="M207.842 39.9416C207.122 39.9416 206.546 40.5184 206.546 41.2393C206.546 41.9603 207.122 42.5371 207.842 42.5371H279.464C280.184 42.5371 280.76 41.9603 280.76 41.2393C280.76 40.5184 280.184 39.9416 279.464 39.9416H207.842Z" fill="#E6E6E6"/>
<path d="M207.842 47.8002C207.122 47.8002 206.546 48.3769 206.546 49.0979C206.546 49.8189 207.122 50.3957 207.842 50.3957H244.391C245.111 50.3957 245.688 49.8189 245.688 49.0979C245.688 48.3769 245.111 47.8002 244.391 47.8002H207.842Z" fill="#E6E6E6"/>
<path d="M145.259 85.723C144.539 85.723 143.963 86.2998 143.963 87.0208C143.963 87.7417 144.539 88.3185 145.259 88.3185H279.536C280.256 88.3185 280.832 87.7417 280.832 87.0208C280.832 86.2998 280.256 85.723 279.536 85.723H145.259Z" fill="#E6E6E6"/>
<path d="M145.259 93.5815C144.539 93.5815 143.963 94.1583 143.963 94.8793C143.963 95.6003 144.539 96.177 145.259 96.177H244.463C245.183 96.177 245.76 95.6003 245.76 94.8793C245.76 94.1583 245.183 93.5815 244.463 93.5815H145.259Z" fill="#E6E6E6"/>
<path d="M145.259 101.224C144.539 101.224 143.963 101.801 143.963 102.522C143.963 103.243 144.539 103.819 145.259 103.819H279.536C280.256 103.819 280.832 103.243 280.832 102.522C280.832 101.801 280.256 101.224 279.536 101.224H145.259Z" fill="#E6E6E6"/>
<path d="M145.259 109.082C144.539 109.082 143.963 109.659 143.963 110.38C143.963 111.101 144.539 111.678 145.259 111.678H244.463C245.183 111.678 245.76 111.101 245.76 110.38C245.76 109.659 245.183 109.082 244.463 109.082H145.259Z" fill="#E6E6E6"/>
<path d="M189.766 67.4825H85.9528C84.9086 67.4825 84.0444 66.6174 84.0444 65.572V19.9347C84.0444 18.8893 84.9086 18.0242 85.9528 18.0242H189.766C190.81 18.0242 191.674 18.8893 191.674 19.9347V65.5359C191.674 66.6174 190.81 67.4825 189.766 67.4825Z" fill="url(#paint0_linear_2_129)"/>
<path d="M278.708 139.579H239.35C238.306 139.579 237.442 138.714 237.442 137.669V131.36C237.442 130.315 238.306 129.45 239.35 129.45H278.708C279.752 129.45 280.616 130.315 280.616 131.36V137.669C280.616 138.714 279.752 139.579 278.708 139.579Z" fill="#008CCF"/>
<path d="M45.515 77.1796C43.8226 75.9179 43.3185 73.5387 44.3988 71.8805C44.5068 71.7363 44.6148 71.556 44.7589 71.4118L44.8669 37.7066L49.8721 38.6439L50.0881 71.7723C51.2404 73.1061 51.4565 75.0167 50.5202 76.4226C49.476 78.1529 47.2074 78.4413 45.515 77.1796Z" fill="#FFB8B8"/>
<path d="M71.5493 152.593H76.6986L79.1472 132.694H71.5493V152.593Z" fill="#FFB8B8"/>
<path d="M70.217 150.898H80.3715C83.9364 150.898 86.8531 153.782 86.8531 157.387V157.603H70.217V150.898Z" fill="#2F2E41"/>
<path d="M23.5857 152.593H28.735L31.1836 132.694H23.5857V152.593Z" fill="#FFB8B8"/>
<path d="M22.2894 150.898H32.4439C36.0087 150.898 38.9254 153.782 38.9254 157.387V157.603H22.2894V150.898Z" fill="#2F2E41"/>
<path d="M71.2253 147.041L70.7932 144.446C70.3611 144.302 69.965 143.977 69.7129 143.581C69.2448 142.86 69.1728 141.814 69.4968 140.517L66.004 111.101L47.8916 92.2117L36.2248 120.365L31.6157 142.643V145.852L22.3974 147.041L22.8295 144.013C22.4695 143.869 22.1814 143.617 22.0013 143.256C21.4612 142.391 21.4972 141.021 22.0373 139.183L22.0734 139.111L22.0373 138.822C22.0013 138.642 22.1454 120.438 27.5467 111.425L32.948 84.0648C32.804 83.6682 32.1198 81.4333 33.3801 77.6482C34.6404 73.8991 38.1332 67.8791 47.7476 60.4171L47.7836 60.381H47.8196C47.9276 60.345 58.5142 58.2541 63.9875 65.4278L64.0235 65.4638V65.5359C64.0235 65.9685 64.0235 76.2783 63.1953 78.5854L76.1945 102.485C76.4465 102.738 78.7151 105.369 77.9229 112.291L80.0114 135.83C80.2635 136.299 82.424 140.625 80.0474 142.319L80.4795 145.275L71.2253 147.041Z" fill="#2F2E41"/>
<path d="M49.512 48.1606C47.0634 48.1606 43.8226 47.2955 41.8421 43.3301L41.8061 43.258L46.7033 32.8761C48.0356 30.0283 51.4205 28.8027 54.2652 30.1725C57.0018 31.4702 58.2621 34.7146 57.0738 37.4903L52.8608 47.6199L52.7888 47.6559C51.7085 47.9804 50.6283 48.1606 49.512 48.1606Z" fill="#008CCF"/>
<path d="M63.0513 68.7082L47.6395 61.4264L49.7641 35.5437L53.617 30.8214L54.3732 30.6772C57.794 29.9562 61.3949 30.1365 64.7077 31.254L64.7797 31.29L71.1172 44.8442C71.1532 44.9163 75.7264 52.9911 69.4248 57.2448L63.0513 68.7082Z" fill="#008CCF"/>
<path d="M84.2244 60.4892C84.0444 60.5613 83.8643 60.6694 83.6843 60.7776L67.4444 53.3516L67.0123 49.0258L60.4227 48.8095V56.5239C60.4227 57.8216 61.2509 58.9391 62.5112 59.2996L81.9919 64.9952C82.532 67.0139 84.6205 68.2035 86.637 67.6628C88.6535 67.1221 89.8418 65.0313 89.3017 63.0126C88.7615 60.9939 86.673 59.8043 84.6565 60.345C84.5125 60.381 84.3685 60.4171 84.2244 60.4892Z" fill="#FFB8B8"/>
<path d="M64.3836 50.8282C62.5472 50.8282 60.4587 50.1794 58.4422 48.1967L58.3701 48.1246L59.7385 36.7333C60.0986 33.5971 62.9433 31.3982 66.04 31.7586C69.0647 32.1191 71.2613 34.7867 71.0452 37.8148L70.253 48.7735L70.181 48.8095C70.145 48.8816 67.6244 50.8282 64.3836 50.8282Z" fill="#008CCF"/>
<path d="M60.2426 27.2165C65.9502 27.2165 70.5771 22.5845 70.5771 16.8707C70.5771 11.1568 65.9502 6.52478 60.2426 6.52478C54.535 6.52478 49.9081 11.1568 49.9081 16.8707C49.9081 22.5845 54.535 27.2165 60.2426 27.2165Z" fill="#FFB8B8"/>
<path d="M70.7932 11.3913C70.289 8.39928 67.8765 5.94799 65.0318 4.90259C62.1871 3.89324 58.9823 4.21767 56.1736 5.37122C55.7055 5.55146 55.2374 5.76775 54.8053 6.02009C53.797 4.07348 51.2764 2.95598 49.0079 3.06412C46.2352 3.20832 43.7506 4.6863 41.338 6.05614C38.9254 7.42598 36.3688 8.79581 33.5961 8.75976C28.5549 8.68767 24.846 4.03743 20.0209 2.63154C14.2955 1.00937 8.28201 4.32582 6.66162 10.0936C5.7614 13.1937 6.30153 16.5462 8.13798 19.2138C10.1905 15.5008 15.0156 14.2752 19.1927 14.7798C23.3697 15.2845 27.2586 17.123 31.3636 18.0963C35.4686 19.0696 40.2218 19.0336 43.3905 16.2578C45.191 14.6717 46.2352 12.4367 47.8196 10.6343C48.8638 9.40864 50.3762 8.39928 51.9246 8.14694C50.4122 9.51678 49.2599 11.2471 48.5398 13.1577C47.3155 16.6904 47.9636 20.9081 50.5203 23.6117C53.2569 26.4956 57.578 27.2886 61.5749 27.2526L61.6469 27.1805C60.4226 25.342 59.4504 22.8186 60.8187 21.0523C62.1511 19.3219 64.7797 19.5743 66.7962 18.8173C69.6409 17.6998 71.2973 14.3833 70.7932 11.3913Z" fill="#2F2E41"/>
<path d="M98.6639 158H0.360087C0.144035 158 0 157.856 0 157.64C0 157.423 0.144035 157.279 0.360087 157.279H98.6639C98.88 157.279 99.024 157.423 99.024 157.64C99.024 157.856 98.88 158 98.6639 158Z" fill="#CCCCCC"/>
<path d="M133.196 34.0297C132.728 34.0297 132.368 34.6064 132.368 35.3274C132.368 36.0484 132.728 36.6251 133.196 36.6251H171.69C172.158 36.6251 172.518 36.0484 172.518 35.3274C172.518 34.6064 172.158 34.0297 171.69 34.0297H133.196Z" fill="white"/>
<path d="M133.196 41.5998C132.728 41.5998 132.368 42.1766 132.368 42.8975C132.368 43.6185 132.728 44.1953 133.196 44.1953H171.69C172.158 44.1953 172.518 43.6185 172.518 42.8975C172.518 42.1766 172.158 41.5998 171.69 41.5998H133.196Z" fill="white"/>
<path d="M133.196 49.0618C132.728 49.0618 132.368 49.6386 132.368 50.3596C132.368 51.0805 132.728 51.6573 133.196 51.6573H149.76C150.228 51.6573 150.589 51.0805 150.589 50.3596C150.589 49.6386 150.228 49.0618 149.76 49.0618H133.196Z" fill="white"/>
<path d="M113.644 53.2074C119.411 53.2074 124.086 48.5269 124.086 42.7533C124.086 36.9797 119.411 32.2993 113.644 32.2993C107.876 32.2993 103.201 36.9797 103.201 42.7533C103.201 48.5269 107.876 53.2074 113.644 53.2074Z" fill="white"/>
</g>
<defs>
<linearGradient id="paint0_linear_2_129" x1="84.0273" y1="42.7505" x2="191.673" y2="42.7505" gradientUnits="userSpaceOnUse">
<stop stop-color="#88B8FF"/>
<stop offset="1" stop-color="#6FA8FF"/>
</linearGradient>
<clipPath id="clip0_2_129">
<rect width="297" height="158" fill="white"/>
</clipPath>
</defs>
</svg>
