<svg width="273" height="183" viewBox="0 0 273 183" fill="none" xmlns="http://www.w3.org/2000/svg">
<g clip-path="url(#clip0_2_200)">
<path d="M217.502 80.9791L218.313 74.4869C218.921 69.6756 223.295 66.2556 228.103 66.8643C232.912 67.4729 236.33 71.8494 235.721 76.6606L234.91 83.1528C234.823 83.7905 234.244 84.2542 233.607 84.1672L218.545 82.2833C217.879 82.2254 217.415 81.6457 217.502 80.9791Z" fill="#2E3241"/>
<path d="M224.714 82.921C228.266 82.921 231.145 80.0403 231.145 76.4867C231.145 72.9332 228.266 70.0524 224.714 70.0524C221.163 70.0524 218.284 72.9332 218.284 76.4867C218.284 80.0403 221.163 82.921 224.714 82.921Z" fill="#FFB8B8"/>
<path d="M216.17 74.7477C216.662 70.9509 220.109 68.2555 223.903 68.7192L225.207 68.8931C229.001 69.3858 231.695 72.8348 231.232 76.6316L231.203 76.7475L228.451 76.3997L227.843 73.6463L227.321 76.2548L225.902 76.0809L225.583 74.6897L225.323 75.994L216.112 74.8347L216.17 74.7477Z" fill="#2E3241"/>
<path d="M193.258 99.4414C194.011 100.891 195.778 101.47 197.255 100.746C197.4 100.659 197.545 100.572 197.69 100.456L203.541 103.876L206.495 100.833L198.182 96.1083C197.11 94.862 195.228 94.7171 193.982 95.8185C192.91 96.717 192.621 98.2241 193.258 99.4414Z" fill="#FFB8B8"/>
<path d="M212.404 105.615C208.088 105.615 200.499 103.673 200.094 103.586L199.949 103.557L201.137 97.4995L212.723 99.7892L219.008 90.9203L226.221 90.1957L226.018 90.4566C225.931 90.5725 216.604 102.832 215.156 104.89C214.837 105.412 213.766 105.615 212.404 105.615Z" fill="#3F3D56"/>
<path d="M213.563 128.28L213.389 128.193C213.36 128.164 209.681 126.396 207.799 122.918C205.916 119.469 214.75 104.774 215.359 103.76V99.0936L218.545 90.5146L222.6 88.2249L219.124 96.3402L213.563 128.28Z" fill="#3F3D56"/>
<path d="M209.508 178.421H205.626L203.772 163.465H209.508V178.421Z" fill="#FFB8B8"/>
<path d="M210.492 182.188H198.008V182.015C198.008 179.319 200.181 177.145 202.874 177.145H210.492V182.188Z" fill="#2E3241"/>
<path d="M251.102 175.03L247.423 176.218L241.022 162.596L246.439 160.828L251.102 175.03Z" fill="#FFB8B8"/>
<path d="M253.217 178.276L241.341 182.16L241.283 182.015C240.443 179.464 241.833 176.711 244.382 175.87L251.623 173.494L253.217 178.276Z" fill="#2E3241"/>
<path d="M243.6 172.566L232.564 154.133L223.237 134.424L214.837 151.843L211.506 174.392L199.833 174.566L199.891 174.392L217.763 103.296L231.782 105.383L231.145 114.629L231.521 115.179C234.679 119.672 237.952 124.338 236.069 129.352L241.399 145.148L253.159 171.465L243.6 172.566Z" fill="#2E3241"/>
<path d="M218.4 118.657C216.372 118.657 214.055 116.339 215.243 112.368L215.156 112.31L218.052 99.5573C215.532 95.9634 218.863 92.9781 219.153 92.7173L220.746 89.8769L227.727 85.4425L231.261 114.86L231.203 114.918C228.683 117.353 220.109 118.657 218.4 118.657Z" fill="#8DC8FF"/>
<path d="M232.709 125.294C232.419 125.294 232.159 125.265 231.869 125.207C231.608 125.149 231.145 124.802 230.479 122.57C227.785 113.759 224.57 87.2395 226.887 84.6599L226.945 84.602L230.739 85.2396C231.058 85.0077 232.709 83.8484 234.244 84.0513C234.881 84.1382 235.461 84.486 235.837 84.9788L235.866 85.0077L237.083 102.282L241.514 122.599L241.399 122.657C241.196 122.802 235.663 125.294 232.709 125.294Z" fill="#3F3D56"/>
<path d="M230.16 118.541C231.782 118.483 233.085 117.121 233.028 115.469C233.028 115.295 232.999 115.121 232.97 114.947L238.531 111.093L237.025 107.122L229.233 112.658C227.64 113.092 226.742 114.745 227.177 116.339C227.553 117.701 228.77 118.599 230.16 118.541Z" fill="#FFB8B8"/>
<path d="M236.677 114.223L231.724 110.571L238.705 101.035L233.346 91.5869L235.75 84.7179L235.895 85.0077C235.953 85.1526 243.108 98.7748 244.382 100.977C245.686 103.238 237.141 113.672 236.793 114.107L236.677 114.223Z" fill="#3F3D56"/>
<path d="M124.986 157.089L120.757 155.321L117.861 134.105H79.2497L76.0924 155.234L72.2979 157.118C71.8635 157.35 71.6607 157.872 71.8924 158.335C72.0372 158.654 72.3559 158.828 72.7035 158.828H124.61C125.102 158.828 125.508 158.422 125.508 157.93C125.537 157.553 125.305 157.234 124.986 157.089Z" fill="#E6E6E6"/>
<path d="M193.606 136.917H3.91035C1.82483 136.917 0.173798 135.236 0.173798 133.149V106.397H197.342V133.149C197.342 135.236 195.662 136.917 193.606 136.917Z" fill="#CCCCCC"/>
<path d="M197.545 119.034H0V4.52138C0 2.02882 2.02759 0 4.51862 0H192.997C195.517 0 197.545 2.02882 197.545 4.52138V119.034Z" fill="#2E3241"/>
<path d="M185.756 110.745H11.789C9.84829 110.745 8.31311 109.18 8.28415 107.238V11.7962C8.28415 9.85428 9.84829 8.31817 11.789 8.28918H185.727C187.668 8.28918 189.203 9.85428 189.232 11.7962V107.238C189.232 109.18 187.668 110.745 185.756 110.745Z" fill="white"/>
<path d="M147.55 159.031H49.8207C49.6179 159.031 49.4441 158.886 49.3862 158.712C49.3283 158.48 49.4731 158.219 49.7048 158.161C49.7338 158.161 49.7917 158.132 49.8207 158.132H147.55C147.782 158.132 147.956 158.277 148.014 158.48C148.072 158.712 147.927 158.944 147.666 159.002C147.608 159.031 147.579 159.031 147.55 159.031Z" fill="#CCCCCC"/>
<path d="M183.902 23.7372H141.902V55.8506H183.902V23.7372Z" fill="#F2F2F2"/>
<path d="M181.817 25.3313H143.988V54.2565H181.817V25.3313Z" fill="white"/>
<path d="M163.568 46.7789C169.159 46.4891 173.417 41.7358 173.127 36.171C172.866 31.099 168.869 27.0123 163.8 26.6356C163.742 26.6356 163.684 26.6645 163.626 26.6935C163.568 26.7225 163.539 26.8095 163.539 26.8674L163.308 46.547C163.337 46.663 163.423 46.7789 163.568 46.7789Z" fill="#008CCF"/>
<path d="M155.632 29.9106C155.719 29.9106 155.777 29.9396 155.834 29.9976L162.612 36.9246C162.67 36.9825 162.699 37.0695 162.699 37.1275L162.583 46.547C162.583 46.634 162.554 46.7209 162.497 46.7499C162.439 46.8079 162.352 46.8368 162.265 46.8368C156.674 46.4311 152.474 41.5329 152.909 35.9392C153.083 33.7364 153.952 31.6496 155.4 29.9976C155.487 29.9396 155.545 29.9106 155.632 29.9106Z" fill="#E6E6E6"/>
<path d="M162.525 26.5486C162.612 26.5486 162.67 26.5776 162.728 26.6356C162.786 26.6936 162.815 26.7805 162.815 26.8385L162.728 35.3306C162.728 35.5045 162.583 35.6204 162.439 35.6204C162.352 35.6204 162.294 35.5914 162.236 35.5334L156.327 29.4759C156.211 29.36 156.211 29.1571 156.327 29.0702C158.036 27.5631 160.237 26.6936 162.525 26.5486Z" fill="url(#paint0_linear_2_200)"/>
<path d="M159.484 50.8656C159.484 51.88 158.644 52.6625 157.659 52.6625C156.674 52.6625 155.863 51.822 155.863 50.8366C155.863 49.8222 156.703 49.0396 157.688 49.0396C158.702 49.0396 159.484 49.8511 159.484 50.8656Z" fill="#8DC8FF"/>
<path d="M164.669 50.9235C164.669 51.9379 163.829 52.7204 162.844 52.7204C161.859 52.7204 161.048 51.8799 161.048 50.8945C161.048 49.8801 161.888 49.0975 162.873 49.0975C163.858 49.0975 164.669 49.9091 164.669 50.9235Z" fill="#3F3D56"/>
<path d="M169.825 50.9815C169.825 51.9959 168.985 52.7784 168 52.7784C166.986 52.7784 166.204 51.9379 166.204 50.9525C166.204 49.9381 167.044 49.1555 168.029 49.1555C169.043 49.1555 169.854 49.967 169.825 50.9815Z" fill="#E6E6E6"/>
<path d="M183.439 60.8937H141.439V93.0071H183.439V60.8937Z" fill="#F2F2F2"/>
<path d="M181.353 62.4878H143.524V91.413H181.353V62.4878Z" fill="white"/>
<path d="M149.954 71.9943C150.818 71.9943 151.519 71.2936 151.519 70.4292C151.519 69.5649 150.818 68.8641 149.954 68.8641C149.091 68.8641 148.39 69.5649 148.39 70.4292C148.39 71.2936 149.091 71.9943 149.954 71.9943Z" fill="#3F3D56"/>
<path d="M175.183 69.2119C175.763 69.2119 176.255 69.6756 176.255 70.2843C176.255 70.8929 175.792 71.3567 175.183 71.3567H158.673C158.094 71.3567 157.601 70.8929 157.601 70.2843C157.601 69.6756 158.065 69.2119 158.673 69.2119H175.183ZM175.183 68.951H158.673C157.949 68.951 157.341 69.5307 157.341 70.2843C157.341 71.0378 157.92 71.6175 158.673 71.6175H175.183C175.908 71.6175 176.516 71.0378 176.516 70.2843C176.516 69.5307 175.908 68.951 175.183 68.951Z" fill="#3F3D56"/>
<path d="M168.666 71.5885H156.24C155.516 71.5885 154.908 71.0088 154.908 70.2553C154.908 69.5307 155.487 68.9221 156.24 68.9221H168.666C169.39 68.9221 169.999 69.5307 169.999 70.2553C169.999 71.0088 169.39 71.5885 168.666 71.5885Z" fill="url(#paint1_linear_2_200)"/>
<path d="M149.954 78.5155C150.818 78.5155 151.519 77.8148 151.519 76.9504C151.519 76.086 150.818 75.3853 149.954 75.3853C149.091 75.3853 148.39 76.086 148.39 76.9504C148.39 77.8148 149.091 78.5155 149.954 78.5155Z" fill="#3F3D56"/>
<path d="M175.183 75.7331C175.763 75.7331 176.255 76.1969 176.255 76.8055C176.255 77.4142 175.792 77.8779 175.183 77.8779H158.673C158.094 77.8779 157.601 77.4142 157.601 76.8055C157.601 76.1969 158.065 75.7331 158.673 75.7331H175.183ZM175.183 75.4723H158.673C157.949 75.4723 157.341 76.052 157.341 76.8055C157.341 77.5591 157.92 78.1387 158.673 78.1387H175.183C175.908 78.1387 176.516 77.5591 176.516 76.8055C176.516 76.052 175.908 75.4723 175.183 75.4723Z" fill="#3F3D56"/>
<path d="M173.359 78.1098H156.24C155.516 78.1098 154.908 77.5301 154.908 76.7765C154.908 76.0519 155.487 75.4433 156.24 75.4433H173.359C174.083 75.4433 174.691 76.0519 174.691 76.7765C174.691 77.5301 174.083 78.1098 173.359 78.1098Z" fill="url(#paint2_linear_2_200)"/>
<path d="M149.954 85.0367C150.818 85.0367 151.519 84.336 151.519 83.4716C151.519 82.6073 150.818 81.9066 149.954 81.9066C149.091 81.9066 148.39 82.6073 148.39 83.4716C148.39 84.336 149.091 85.0367 149.954 85.0367Z" fill="#3F3D56"/>
<path d="M175.183 82.2544C175.763 82.2544 176.255 82.7181 176.255 83.3268C176.255 83.9354 175.792 84.3991 175.183 84.3991H158.673C158.094 84.3991 157.601 83.9354 157.601 83.3268C157.601 82.7181 158.065 82.2544 158.673 82.2544H175.183ZM175.183 81.9935H158.673C157.949 81.9935 157.341 82.5732 157.341 83.3268C157.341 84.0803 157.92 84.66 158.673 84.66H175.183C175.908 84.66 176.516 84.0803 176.516 83.3268C176.516 82.5732 175.908 81.9935 175.183 81.9935Z" fill="#3F3D56"/>
<path d="M163.192 84.66H156.24C155.516 84.66 154.908 84.0803 154.908 83.3268C154.908 82.6022 155.487 81.9935 156.24 81.9935H163.192C163.916 81.9935 164.524 82.6022 164.524 83.3268C164.524 84.0513 163.916 84.631 163.192 84.66Z" fill="url(#paint3_linear_2_200)"/>
<path d="M132.17 29.418H14.8304V89.5871H132.17V29.418Z" fill="#F2F2F2"/>
<path d="M128.259 32.4032H18.7407V86.6018H128.259V32.4032Z" fill="white"/>
<path d="M114.674 78.3416H34.8455C34.7007 78.3416 34.5848 78.2257 34.5848 78.0808V39.7939C34.5848 39.649 34.7007 39.5331 34.8455 39.5331C34.9904 39.5331 35.1062 39.649 35.1062 39.7939V77.8199H114.703C114.848 77.8199 114.964 77.9358 114.964 78.0808C114.935 78.2257 114.819 78.3416 114.674 78.3416Z" fill="#3F3D56"/>
<path d="M51.9062 75.5882H44.6359C44.2303 75.5882 43.8828 75.2694 43.8828 74.8347V64.8065C43.8828 64.4007 44.2014 64.0529 44.6359 64.0529H51.9062C52.3117 64.0529 52.6593 64.3717 52.6593 64.8065V74.8347C52.6303 75.2404 52.3117 75.5882 51.9062 75.5882Z" fill="#88BFFF"/>
<path d="M65.1434 75.5882H57.8731C57.4676 75.5882 57.12 75.2694 57.12 74.8346V55.3289C57.12 54.9232 57.4386 54.5754 57.8731 54.5754H65.1434C65.549 54.5754 65.8965 54.8942 65.8965 55.3289V74.8346C65.8676 75.2404 65.549 75.5882 65.1434 75.5882Z" fill="#00AEEF"/>
<path d="M78.3807 75.5882H71.1103C70.7048 75.5882 70.3572 75.2694 70.3572 74.8347V64.8065C70.3572 64.4007 70.6759 64.0529 71.1103 64.0529H78.3807C78.7862 64.0529 79.1338 64.3717 79.1338 64.8065V74.8347C79.1048 75.2404 78.7862 75.5882 78.3807 75.5882Z" fill="#88BFFF"/>
<path d="M91.6179 75.5882H84.3476C83.9421 75.5882 83.6234 75.2694 83.5945 74.8926V51.5611C83.5945 51.1554 83.9421 50.8366 84.3476 50.8655H91.6179C92.0234 50.8655 92.3421 51.1844 92.371 51.5611V74.8926C92.3421 75.2694 92.0234 75.5882 91.6179 75.5882Z" fill="#00AEEF"/>
<path d="M104.855 75.5882H97.6138C97.2083 75.5882 96.8607 75.2694 96.8607 74.8347V44.8371C96.8607 44.4313 97.1793 44.0835 97.6138 44.0835H104.855C105.261 44.0835 105.608 44.4023 105.608 44.8371V74.8637C105.608 75.2404 105.261 75.5882 104.855 75.5882Z" fill="#00AEEF"/>
<path d="M48.2565 61.0966C49.0884 61.0966 49.7628 60.4218 49.7628 59.5895C49.7628 58.7571 49.0884 58.0823 48.2565 58.0823C47.4247 58.0823 46.7503 58.7571 46.7503 59.5895C46.7503 60.4218 47.4247 61.0966 48.2565 61.0966Z" fill="#3F3D56"/>
<path d="M61.4938 51.3293C62.3256 51.3293 63 50.6545 63 49.8221C63 48.9898 62.3256 48.315 61.4938 48.315C60.6619 48.315 59.9876 48.9898 59.9876 49.8221C59.9876 50.6545 60.6619 51.3293 61.4938 51.3293Z" fill="#3F3D56"/>
<path d="M74.76 61.0966C75.5918 61.0966 76.2662 60.4218 76.2662 59.5895C76.2662 58.7571 75.5918 58.0823 74.76 58.0823C73.9281 58.0823 73.2538 58.7571 73.2538 59.5895C73.2538 60.4218 73.9281 61.0966 74.76 61.0966Z" fill="#3F3D56"/>
<path d="M87.9972 46.605C88.8291 46.605 89.5034 45.9303 89.5034 45.0979C89.5034 44.2655 88.8291 43.5908 87.9972 43.5908C87.1654 43.5908 86.491 44.2655 86.491 45.0979C86.491 45.9303 87.1654 46.605 87.9972 46.605Z" fill="#3F3D56"/>
<path d="M101.234 41.0982C102.066 41.0982 102.741 40.4234 102.741 39.5911C102.741 38.7587 102.066 38.0839 101.234 38.0839C100.403 38.0839 99.7283 38.7587 99.7283 39.5911C99.7283 40.4234 100.403 41.0982 101.234 41.0982Z" fill="#3F3D56"/>
<path d="M74.789 59.9083L61.4938 49.967L48.4014 59.7923L48.1117 59.3866L61.4938 49.3584L74.7021 59.2417L87.8524 44.866H87.8814L101.148 39.5041L101.321 39.9678L88.1421 45.3007L74.789 59.9083Z" fill="#3F3D56"/>
<path d="M272.71 183H162.352C162.178 183 162.062 182.884 162.062 182.71C162.062 182.536 162.178 182.42 162.352 182.42H272.71C272.884 182.42 273 182.536 273 182.71C273 182.884 272.884 183 272.71 183Z" fill="#CCCCCC"/>
</g>
<defs>
<linearGradient id="paint0_linear_2_200" x1="156.229" y1="31.1065" x2="162.824" y2="31.1065" gradientUnits="userSpaceOnUse">
<stop stop-color="#88BFFF"/>
<stop offset="1" stop-color="#00AEEF"/>
</linearGradient>
<linearGradient id="paint1_linear_2_200" x1="154.907" y1="70.2686" x2="169.993" y2="70.2686" gradientUnits="userSpaceOnUse">
<stop stop-color="#8894FF"/>
<stop offset="1" stop-color="#00AEEF"/>
</linearGradient>
<linearGradient id="paint2_linear_2_200" x1="154.907" y1="76.7941" x2="174.689" y2="76.7941" gradientUnits="userSpaceOnUse">
<stop stop-color="#88BFFF"/>
<stop offset="1" stop-color="#00AEEF"/>
</linearGradient>
<linearGradient id="paint3_linear_2_200" x1="154.907" y1="83.3197" x2="164.515" y2="83.3197" gradientUnits="userSpaceOnUse">
<stop stop-color="#88A9FF"/>
<stop offset="1" stop-color="#00AEEF"/>
</linearGradient>
<clipPath id="clip0_2_200">
<rect width="273" height="183" fill="white"/>
</clipPath>
</defs>
</svg>
