<svg width="329" height="145" viewBox="0 0 329 145" fill="none" xmlns="http://www.w3.org/2000/svg">
<g clip-path="url(#clip0_2_316)">
<path d="M103.549 5.49442C108.267 3.51124 114.157 3.70631 118.03 7.08747C112.563 8.06281 107.584 10.9238 104.004 15.1828C102.638 16.8408 101.271 18.824 99.1881 19.2142C97.8865 19.4742 96.5197 19.0191 95.3807 18.3038C94.2743 17.5886 93.3631 16.5807 92.4519 15.6054L92.1265 15.4754C95.1529 11.3464 98.8302 7.47761 103.549 5.49442Z" fill="#F0F0F0"/>
<path d="M117.965 7.18499C113.832 6.3397 109.504 6.79485 105.631 8.51795C104.785 8.87557 104.004 9.36324 103.321 9.94844C102.67 10.5662 102.182 11.3139 101.954 12.1592C101.694 12.9395 101.531 13.7848 101.108 14.5C100.653 15.2478 99.8715 15.7354 99.0255 15.8655C97.9841 16.0605 96.9102 15.8655 95.8689 15.6704C94.7299 15.4103 93.5258 15.1502 92.3869 15.4428C92.2567 15.4753 92.1916 15.2478 92.3543 15.2153C94.3719 14.7276 96.3245 15.833 98.3746 15.7354C99.3183 15.7029 100.262 15.3453 100.815 14.565C101.303 13.8823 101.466 13.0045 101.726 12.1917C101.954 11.3464 102.41 10.5987 102.996 9.98095C103.646 9.36324 104.395 8.84306 105.241 8.45292C107.096 7.57512 109.081 6.98992 111.099 6.72983C113.409 6.40472 115.785 6.50225 118.063 6.95741C118.16 6.98992 118.095 7.2175 117.965 7.18499Z" fill="white"/>
<path d="M106.836 7.90023C106.412 6.46974 107.096 4.97422 108.43 4.324C108.56 4.25898 108.658 4.45404 108.528 4.51907C107.291 5.10427 106.673 6.53476 107.063 7.83521C107.096 7.96526 106.901 8.03028 106.836 7.90023Z" fill="white"/>
<path d="M102.019 11.7691C103.288 12.4843 104.818 12.6794 106.217 12.3543C106.347 12.3218 106.412 12.5493 106.25 12.5818C104.753 12.9395 103.191 12.7119 101.857 11.9641C101.792 11.8991 101.889 11.704 102.019 11.7691Z" fill="white"/>
<path d="M113.311 6.69728C113.344 7.28249 113.702 7.77015 114.19 8.06275C114.32 8.12778 114.19 8.32284 114.06 8.25782C113.507 7.96522 113.149 7.38002 113.084 6.76231C113.084 6.69728 113.116 6.63226 113.181 6.63226C113.246 6.59975 113.279 6.63226 113.311 6.69728Z" fill="white"/>
<path d="M117.542 24.3834C117.477 24.3509 117.379 24.2859 117.281 24.2533C116.175 23.7007 115.069 23.2455 113.897 22.8879C113.799 22.8554 113.702 22.8229 113.637 22.7903C110.806 21.9451 107.877 21.6199 104.948 21.8475C103.777 21.9451 102.638 22.1076 101.499 22.4002C99.9366 22.7578 98.2444 23.3105 96.6824 23.148C96.5197 23.148 96.357 23.1155 96.1942 23.0829L92.0289 15.8655C92.0289 15.8329 92.0289 15.8329 92.0289 15.8004L91.8336 15.5078C91.8987 15.4753 91.9638 15.4753 91.9963 15.4428C92.0289 15.4428 92.0614 15.4103 92.094 15.4103C92.1265 15.4103 92.1265 15.4103 92.159 15.3778C92.159 15.3778 92.159 15.3778 92.1916 15.3778C92.2241 15.3778 92.2241 15.3778 92.2567 15.3453C92.5821 15.2477 92.94 15.1502 93.2655 15.0527C95.8363 14.3049 98.5047 13.8823 101.173 13.7847C101.238 13.7847 101.336 13.7847 101.401 13.7847C102.605 13.7522 103.809 13.8172 104.981 13.9798C105.631 14.0773 106.282 14.2074 106.901 14.3699C108.56 14.7926 110.122 15.4428 111.554 16.3531C114.418 18.1412 116.663 20.8397 117.444 24.0908C117.509 24.2208 117.542 24.3184 117.542 24.3834Z" fill="#F0F0F0"/>
<path d="M117.444 24.4159C114.646 21.2298 110.936 19.019 106.803 18.0762C105.924 17.8486 105.013 17.7836 104.102 17.8486C103.223 17.9462 102.377 18.2713 101.661 18.7914C100.978 19.2791 100.36 19.8318 99.5786 20.1569C98.7651 20.4495 97.8539 20.417 97.1054 19.9944C96.1292 19.5067 95.4132 18.7264 94.7298 17.9462C93.9488 17.0684 93.1678 16.1255 92.0939 15.6704C91.9638 15.6054 92.0614 15.4103 92.1916 15.4753C94.1115 16.2881 94.9902 18.3688 96.6824 19.5067C97.4634 20.0269 98.4071 20.352 99.3508 20.0269C100.164 19.7668 100.815 19.1816 101.499 18.6939C102.182 18.1737 102.996 17.8161 103.842 17.6861C104.753 17.5885 105.664 17.621 106.543 17.8161C108.56 18.2388 110.48 18.954 112.27 19.9619C114.32 21.0997 116.143 22.5953 117.672 24.3509C117.737 24.4159 117.542 24.5459 117.444 24.4159Z" fill="white"/>
<path d="M108.17 18.3038C108.69 16.9058 110.155 16.1256 111.587 16.4182C111.717 16.4507 111.684 16.6783 111.554 16.6458C110.187 16.3857 108.853 17.1334 108.365 18.4014C108.3 18.5314 108.105 18.4339 108.17 18.3038Z" fill="white"/>
<path d="M101.954 18.4989C102.54 19.8319 103.614 20.9047 104.981 21.4899C105.111 21.555 105.013 21.75 104.883 21.685C103.484 21.0673 102.377 19.9619 101.759 18.5639C101.694 18.4664 101.922 18.3689 101.954 18.4989Z" fill="white"/>
<path d="M114.027 21.2298C113.734 21.7175 113.669 22.3352 113.897 22.8554C113.962 22.9854 113.734 23.0504 113.669 22.9204C113.409 22.3352 113.442 21.685 113.8 21.1323C113.832 21.0673 113.897 21.0673 113.962 21.0673C114.027 21.1323 114.06 21.1973 114.027 21.2298Z" fill="white"/>
<path d="M281.651 137.23H277.942L276.184 122.99H281.651V137.23Z" fill="#A0616A"/>
<path d="M282.562 140.806H270.652V140.643C270.652 138.075 272.735 135.994 275.306 135.994H282.595L282.562 140.806Z" fill="#2F2E41"/>
<path d="M310.418 135.637L306.774 136.189L302.901 122.372L307.685 121.527L310.418 135.637Z" fill="#A0616A"/>
<path d="M311.883 139.018L300.103 140.806L300.07 140.644C299.68 138.108 301.437 135.734 303.975 135.377L311.167 134.304L311.883 139.018Z" fill="#2F2E41"/>
<path d="M204.95 140.806H94.4695V30.4305H204.95V140.806Z" fill="white"/>
<path d="M204.95 140.806H94.4695V30.4305H204.95V140.806ZM96.1292 139.18H203.355V32.056H96.1292V139.18Z" fill="#F0F0F0"/>
<path d="M188.093 77.8969H117.249V80.4002H188.093V77.8969Z" fill="url(#paint0_linear_2_316)"/>
<path d="M188.093 84.3666H117.249V86.8699H188.093V84.3666Z" fill="url(#paint1_linear_2_316)"/>
<path d="M188.093 90.8688H117.249V93.3722H188.093V90.8688Z" fill="url(#paint2_linear_2_316)"/>
<path d="M112.953 81.1155C113.852 81.1155 114.58 80.3877 114.58 79.4899C114.58 78.5922 113.852 77.8644 112.953 77.8644C112.055 77.8644 111.326 78.5922 111.326 79.4899C111.326 80.3877 112.055 81.1155 112.953 81.1155Z" fill="url(#paint3_linear_2_316)"/>
<path d="M188.093 49.9047H117.249V52.4081H188.093V49.9047Z" fill="#F0F0F0"/>
<path d="M188.093 56.3745H117.249V58.8778H188.093V56.3745Z" fill="#F0F0F0"/>
<path d="M188.093 62.8767H117.249V65.3801H188.093V62.8767Z" fill="#F0F0F0"/>
<path d="M112.953 52.8632C113.852 52.8632 114.58 52.1355 114.58 51.2377C114.58 50.3399 113.852 49.6121 112.953 49.6121C112.055 49.6121 111.326 50.3399 111.326 51.2377C111.326 52.1355 112.055 52.8632 112.953 52.8632Z" fill="#F0F0F0"/>
<path d="M188.093 106.149H117.249V108.652H188.093V106.149Z" fill="#F0F0F0"/>
<path d="M188.093 112.651H117.249V115.155H188.093V112.651Z" fill="#F0F0F0"/>
<path d="M188.093 119.154H117.249V121.657H188.093V119.154Z" fill="#F0F0F0"/>
<path d="M112.953 109.108C113.852 109.108 114.58 108.38 114.58 107.482C114.58 106.584 113.852 105.857 112.953 105.857C112.055 105.857 111.326 106.584 111.326 107.482C111.326 108.38 112.055 109.108 112.953 109.108Z" fill="#E5E5E5"/>
<path d="M264.274 97.2085H199.971C198.995 97.2085 198.214 95.6155 198.214 93.6323V45.8408C198.214 43.8576 198.995 42.2646 199.971 42.2646H264.241C265.218 42.2646 265.999 43.8576 265.999 45.8408V93.6323C265.999 95.6155 265.218 97.2085 264.274 97.2085Z" fill="white"/>
<path d="M264.274 97.2085H199.971C198.995 97.2085 198.214 95.6155 198.214 93.6323V45.8408C198.214 43.8576 198.995 42.2646 199.971 42.2646H264.241C265.218 42.2646 265.999 43.8576 265.999 45.8408V93.6323C265.999 95.6155 265.218 97.2085 264.274 97.2085ZM199.971 43.7276C199.385 43.7276 198.929 44.6704 198.929 45.8733V93.6648C198.929 94.8352 199.385 95.8106 199.971 95.8106H264.241C264.827 95.8106 265.283 94.8677 265.283 93.6648V45.8733C265.283 44.7029 264.827 43.7276 264.241 43.7276H199.971Z" fill="#E6E6E6"/>
<path d="M240.844 81.2455H223.531V82.5459H240.844V81.2455Z" fill="url(#paint4_linear_2_316)"/>
<path d="M242.991 84.6267H221.221V85.9272H242.991V84.6267Z" fill="url(#paint5_linear_2_316)"/>
<path d="M243.414 64.8599C243.414 71.102 238.338 76.1413 232.122 76.1413C230.267 76.1413 228.413 75.6861 226.785 74.8083C221.286 71.8498 219.236 64.9899 222.197 59.528C225.158 54.0662 232.025 51.9854 237.492 54.944C241.136 56.8946 243.414 60.6984 243.414 64.8599Z" fill="#CACACA"/>
<path d="M232.187 64.3072C233.877 64.3072 235.246 62.9389 235.246 61.2511C235.246 59.5633 233.877 58.1951 232.187 58.1951C230.498 58.1951 229.128 59.5633 229.128 61.2511C229.128 62.9389 230.498 64.3072 232.187 64.3072Z" fill="white"/>
<path d="M237.427 70.6468C233.977 71.8498 230.235 71.8498 226.818 70.6143L229.096 66.0953H235.246L237.427 70.6468Z" fill="white"/>
<path d="M186.824 114.277H235.084V93.1771H234.335V113.562H186.824V114.277Z" fill="#3F3D56"/>
<path d="M234.693 100.655C236.94 100.655 238.761 98.8352 238.761 96.5908C238.761 94.3464 236.94 92.5269 234.693 92.5269C232.447 92.5269 230.625 94.3464 230.625 96.5908C230.625 98.8352 232.447 100.655 234.693 100.655Z" fill="#3F3D56"/>
<path d="M97.6587 67.9484H33.3556C32.3793 67.9484 31.5983 66.3554 31.5983 64.3722V16.5807C31.5983 14.5975 32.3793 13.0045 33.3556 13.0045H97.6261C98.6024 13.0045 99.3834 14.5975 99.3834 16.5807V64.3722C99.3834 66.3554 98.6024 67.9484 97.6587 67.9484Z" fill="white"/>
<path d="M97.6587 67.9484H33.3556C32.3793 67.9484 31.5983 66.3554 31.5983 64.3722V16.5807C31.5983 14.5975 32.3793 13.0045 33.3556 13.0045H97.6261C98.6024 13.0045 99.3834 14.5975 99.3834 16.5807V64.3722C99.3834 66.3554 98.6024 67.9484 97.6587 67.9484ZM33.3556 14.4675C32.7698 14.4675 32.3143 15.4103 32.3143 16.6132V64.4047C32.3143 65.5751 32.7698 66.5504 33.3556 66.5504H97.6261C98.2119 66.5504 98.6675 65.6076 98.6675 64.4047V16.6132C98.6675 15.4428 98.2119 14.4675 97.6261 14.4675H33.3556Z" fill="#E6E6E6"/>
<path d="M79.7931 27.9596C76.9294 24.9361 72.9918 23.148 68.8264 22.9854V38.9484L79.7931 27.9596Z" fill="#00AEEF"/>
<path d="M79.7931 29.9428L68.8264 40.8991H84.1537C84.1537 36.8352 82.5917 32.9013 79.7931 29.9428Z" fill="#E4E4E4"/>
<path d="M84.1537 42.037C84.1537 43.0448 84.0561 44.0201 83.8934 44.9955C83.8934 45.0605 83.8608 45.158 83.8608 45.2231C83.5029 46.9137 82.8846 48.5717 82.0059 50.0672C81.9734 50.1323 81.9083 50.2298 81.8758 50.2948C80.9971 51.7253 79.9233 52.9932 78.6541 54.0986C78.589 54.1636 78.5239 54.1962 78.4589 54.2612C75.7579 56.537 72.3735 57.8374 68.8264 57.9675V42.0045H84.1537V42.037Z" fill="#F0F0F0"/>
<path d="M67.2644 58C67.4922 58 67.6874 58 67.8827 58V42.037L56.2977 53.6435C59.2591 56.472 63.1966 58.0325 67.2644 58Z" fill="#88DBFF"/>
<path d="M67.2969 24.9361C58.478 24.9361 51.3188 32.0886 51.3188 40.8991H67.9478V24.9686C67.72 24.9361 67.4922 24.9361 67.2969 24.9361Z" fill="url(#paint6_linear_2_316)"/>
<path d="M63.4895 42.037L60.1377 45.3857L60.04 45.4832L57.1113 48.4092L57.0136 48.5067L53.8571 51.6603L53.7594 51.7579L51.9371 53.5785C48.748 50.5549 46.9256 46.361 46.9256 41.972L63.4895 42.037Z" fill="url(#paint7_linear_2_316)"/>
<path d="M117.444 85.667H69.2169V64.5673H69.9654V84.9518H117.444V85.667Z" fill="#3F3D56"/>
<path d="M69.5749 72.0449C71.8215 72.0449 73.6427 70.2254 73.6427 67.981C73.6427 65.7365 71.8215 63.9171 69.5749 63.9171C67.3283 63.9171 65.5071 65.7365 65.5071 67.981C65.5071 70.2254 67.3283 72.0449 69.5749 72.0449Z" fill="#3F3D56"/>
<path d="M299.029 66.6155L294.928 67.6883L295.189 74.3531L295.221 86.4473C294.115 87.1951 293.855 88.7231 294.603 89.8285C295.352 90.9339 296.881 91.194 297.987 90.4462C299.094 89.6984 299.354 88.1704 298.606 87.065C298.541 87 298.508 86.935 298.443 86.8375L299.712 74.6783L299.029 66.6155Z" fill="#A0616A"/>
<path d="M300.168 70.6144L294.18 68.5987V68.5011C294.18 68.4361 293.301 62.7792 293.301 58.8778C293.269 58 293.627 57.1547 294.31 56.5695C295.221 55.7242 296.556 55.5292 297.695 56.0168C298.899 56.5045 299.712 57.6749 299.777 59.0079L300.168 70.6144Z" fill="#E4E4E4"/>
<path d="M289.006 70.0617L279.829 67.6884L275.599 81.9608L275.436 135.149L282.465 135.117L285.394 92.0718L304.105 131.833L311.655 130.923L295.221 88.3005C295.221 88.3005 296.133 80.7579 293.269 76.9866L293.887 73.0852L289.006 70.0617Z" fill="#2F2E41"/>
<path d="M294.115 74.1256H293.432L279.341 68.5011L286.077 53.481L289.266 54.0662L288.68 51.7254L295.775 50.0023L297.011 54.9114L298.833 56.5695C299.777 57.4148 300.103 58.7478 299.712 59.9507L295.482 72.4675C295.612 73.2478 295.091 73.963 294.343 74.0931C294.278 74.1256 294.18 74.1256 294.115 74.1256Z" fill="#E4E4E4"/>
<path d="M283.506 62.8767L279.796 60.8285L275.403 65.8352L267.04 74.6132C265.706 74.4182 264.469 75.296 264.274 76.6289C264.079 77.9619 264.957 79.1973 266.291 79.3924C267.626 79.5875 268.862 78.7097 269.058 77.3767C269.058 77.2792 269.09 77.2141 269.09 77.1166L278.397 69.2164L283.506 62.8767Z" fill="#A0616A"/>
<path d="M281.554 66.583L278.625 60.991L278.69 60.926C278.723 60.8935 282.009 56.1794 284.71 53.3509C285.296 52.7007 286.142 52.3431 287.021 52.3756C288.257 52.4081 289.364 53.1558 289.852 54.3262C290.373 55.5292 290.177 56.9271 289.299 57.9025L281.554 66.583Z" fill="#E4E4E4"/>
<path d="M290.503 49.0919C293.612 49.0919 296.133 46.5737 296.133 43.4675C296.133 40.3612 293.612 37.843 290.503 37.843C287.394 37.843 284.873 40.3612 284.873 43.4675C284.873 46.5737 287.394 49.0919 290.503 49.0919Z" fill="#A0616A"/>
<path d="M283.734 40.1513C284.678 38.4608 285.036 37.7455 286.272 36.7377C287.346 35.8273 288.68 35.5673 289.754 36.4126C293.008 35.0146 296.783 36.5101 298.183 39.7612C299.582 43.0123 298.085 46.7836 294.831 48.1816C291.577 49.5796 287.802 48.0841 286.402 44.833C286.044 44.0202 285.882 43.1749 285.882 42.2971C285.882 42.0695 285.882 41.8094 285.914 41.5818C285.003 41.4518 284.678 40.2814 283.734 40.1513Z" fill="#2F2E41"/>
<path d="M35.0152 89.2758C36.024 88.6906 36.3495 87.3901 35.7312 86.3823C35.6661 86.2847 35.601 86.1872 35.5034 86.0897L38.2369 58.5527L33.6485 58.8453L32.3793 85.9596C31.5332 86.7724 31.5332 88.1379 32.3793 88.9507C33.0952 89.6659 34.1691 89.7959 35.0152 89.2758Z" fill="#FFB8B8"/>
<path d="M31.8261 57.5448L33.0302 66.6805L32.8675 72.2724L37.9115 72.7276L38.9203 68.0785L39.4735 55.7567C39.5711 53.8386 38.1393 52.148 36.2193 51.9529C34.2342 51.7253 32.4119 53.1233 32.1515 55.1065L31.8261 57.5448Z" fill="#2F2E41"/>
<path d="M51.1235 137.848H54.1825L55.6469 126.046H51.1235V137.848Z" fill="#FFB7B7"/>
<path d="M50.3425 136.84H56.3628C58.478 136.84 60.2028 138.563 60.2028 140.676V140.806H50.3425V136.84Z" fill="#2F2E41"/>
<path d="M25.8709 137.848H28.9299L30.3943 126.046H25.8709V137.848Z" fill="#FFB7B7"/>
<path d="M25.0899 136.84H31.1102C33.2254 136.84 34.9501 138.563 34.9501 140.676V140.806H25.0899V136.84Z" fill="#2F2E41"/>
<path d="M37.7813 47.5964C41.4477 47.5964 44.4199 44.627 44.4199 40.9641C44.4199 37.3012 41.4477 34.3318 37.7813 34.3318C34.1149 34.3318 31.1427 37.3012 31.1427 40.9641C31.1427 44.627 34.1149 47.5964 37.7813 47.5964Z" fill="#FFB8B8"/>
<path d="M38.6274 50.2949L34.039 50.815C31.761 54.0337 31.1753 58.1301 32.477 61.8689L35.959 71.9148C35.959 71.9148 31.1427 81.5706 31.1427 90.5437C31.1427 99.5168 21.9659 131.508 21.9659 131.508L34.8851 132.841L40.5148 98.7691L48.2924 132.711L57.1764 131.28L52.2951 86.7724L49.0734 72.1099L48.9432 64.9574C48.9432 64.9574 50.31 59.5931 46.8931 56.1794L42.6952 50.3274L38.6274 50.2949Z" fill="#2F2E41"/>
<path d="M71.0718 73.898C71.0067 72.63 69.9328 71.6222 68.6637 71.6872C68.5335 71.6872 68.4033 71.7197 68.2732 71.7522L43.2483 54.6188L41.1331 59.1704L66.5159 74.6783C66.8739 75.9137 68.1756 76.6289 69.4121 76.2713C70.421 75.9462 71.1043 74.9709 71.0718 73.898Z" fill="#FFB8B8"/>
<path d="M38.8552 60.2433L48.2598 63.8846L53.5642 67.0056L56.6557 62.4216L52.7181 58.9754L41.1657 51.9529C39.3433 50.8476 37.0003 51.3352 35.7962 53.0583C34.5271 54.8464 34.9176 57.3498 36.7074 58.6503L38.8552 60.2433Z" fill="#2F2E41"/>
<path d="M45.4937 38.6233H35.7637V34.3644C37.9114 33.5191 39.9941 32.8038 41.2633 34.3644C43.6063 34.3644 45.4937 36.25 45.4937 38.6233Z" fill="#2F2E41"/>
<path d="M37.4884 33.9417C31.6634 33.9742 30.0363 41.2242 30.0363 45.3531C30.0363 47.6614 31.0777 48.4742 32.7048 48.7343L33.2905 45.6782L34.6247 48.8969C35.0803 48.8969 35.5685 48.8969 36.0566 48.8969L36.5122 47.954L37.521 48.8643C41.6213 48.8643 47.5439 48.5067 44.908 45.3856C41.426 41.1592 42.565 33.9092 37.4884 33.9417Z" fill="#2F2E41"/>
<path d="M304.528 56.7971C304.268 55.8217 304.236 54.8139 304.431 53.806C304.691 51.8879 305.309 50.0347 305.863 48.1816C306.416 46.3285 306.937 44.4428 307.002 42.5247C307.067 40.6065 306.644 38.5908 305.505 37.0303C304.366 35.4697 302.381 34.4619 300.461 34.7545C298.638 35.0471 297.044 36.6726 297.044 38.4933C296.718 39.0785 297.141 39.8912 297.727 40.2489C298.345 40.6065 299.126 40.6715 299.81 40.8666C301.209 41.3217 302.348 42.3296 302.966 43.63C303.552 44.963 303.715 46.426 303.422 47.8565C303.162 49.222 302.511 50.4899 302.023 51.8229C301.535 53.1558 301.242 54.5863 301.6 55.9518C302.25 58 304.333 59.2679 306.448 58.9103C305.505 58.5527 304.789 57.7724 304.528 56.7971Z" fill="#2F2E41"/>
<path d="M328.675 140.969H4.88133C4.68608 140.969 4.55591 140.839 4.55591 140.643C4.55591 140.448 4.68608 140.318 4.88133 140.318H328.675C328.87 140.318 329 140.448 329 140.643C329 140.839 328.87 140.969 328.675 140.969Z" fill="#CACACA"/>
<path d="M254.804 125.168C254.186 120.096 251.029 115.09 246.181 113.432C248.101 118.666 248.101 124.388 246.181 129.59C245.432 131.605 244.391 133.751 245.107 135.799C245.53 137.067 246.604 138.01 247.808 138.628C249.012 139.246 250.313 139.506 251.615 139.798L251.875 140.026C253.926 135.344 255.422 130.24 254.804 125.168Z" fill="#F0F0F0"/>
<path d="M246.115 113.529C248.947 116.683 250.704 120.649 251.127 124.843C251.225 125.753 251.192 126.664 251.029 127.541C250.834 128.419 250.411 129.2 249.793 129.85C249.239 130.467 248.589 131.02 248.198 131.768C247.808 132.548 247.743 133.426 248.035 134.239C248.393 135.247 249.077 136.059 249.793 136.84C250.574 137.717 251.42 138.595 251.745 139.733C251.778 139.863 252.006 139.798 251.973 139.668C251.387 137.652 249.435 136.515 248.524 134.726C248.1 133.881 247.905 132.906 248.328 132.028C248.686 131.248 249.337 130.663 249.923 130.045C250.541 129.427 250.964 128.679 251.225 127.834C251.452 126.956 251.517 126.046 251.42 125.136C251.257 123.087 250.769 121.104 249.988 119.186C249.109 117.008 247.873 115.025 246.311 113.269C246.181 113.269 246.018 113.432 246.115 113.529Z" fill="white"/>
<path d="M251.062 123.51C252.494 123.152 253.47 121.82 253.372 120.357C253.372 120.226 253.145 120.226 253.145 120.357C253.242 121.722 252.331 122.99 250.997 123.283C250.867 123.315 250.932 123.543 251.062 123.51Z" fill="white"/>
<path d="M250.118 129.622C248.849 128.874 247.938 127.672 247.515 126.274C247.482 126.143 247.254 126.209 247.287 126.339C247.71 127.802 248.686 129.037 249.988 129.817C250.151 129.882 250.248 129.687 250.118 129.622Z" fill="white"/>
<path d="M248.882 117.333C248.361 117.593 247.743 117.561 247.254 117.235C247.124 117.17 247.027 117.365 247.157 117.431C247.71 117.756 248.361 117.788 248.947 117.528C249.012 117.496 249.044 117.431 249.012 117.398C248.979 117.333 248.914 117.3 248.882 117.333Z" fill="white"/>
<path d="M231.406 122.502C231.472 122.567 231.569 122.6 231.634 122.665C232.643 123.348 233.619 124.095 234.53 124.908C234.596 124.973 234.661 125.038 234.726 125.103C236.873 127.119 238.631 129.525 239.9 132.158C240.388 133.198 240.811 134.304 241.169 135.409C241.625 136.97 242.015 138.66 242.926 139.928C243.024 140.058 243.122 140.188 243.219 140.318H251.55C251.583 140.318 251.583 140.286 251.615 140.286H251.94C251.94 140.221 251.908 140.156 251.908 140.123C251.908 140.091 251.875 140.058 251.875 140.026C251.875 139.993 251.875 139.993 251.875 139.961C251.875 139.961 251.875 139.961 251.875 139.928C251.875 139.896 251.875 139.896 251.875 139.863C251.778 139.538 251.713 139.181 251.615 138.855C250.964 136.255 250.02 133.751 248.751 131.378C248.719 131.313 248.686 131.248 248.621 131.15C248.035 130.11 247.385 129.102 246.636 128.159C246.246 127.639 245.79 127.151 245.334 126.664C244.163 125.461 242.796 124.42 241.299 123.64C238.305 122.047 234.856 121.462 231.634 122.437C231.569 122.47 231.504 122.47 231.406 122.502Z" fill="#F0F0F0"/>
<path d="M231.439 122.6C235.604 123.413 239.379 125.526 242.275 128.647C242.894 129.297 243.447 130.045 243.837 130.858C244.195 131.67 244.326 132.548 244.228 133.459C244.163 134.271 243.968 135.117 244.098 135.962C244.228 136.807 244.749 137.587 245.465 138.043C246.343 138.628 247.417 138.888 248.426 139.083C249.565 139.311 250.769 139.506 251.745 140.221C251.875 140.318 252.006 140.123 251.875 140.026C250.216 138.79 247.97 139.05 246.148 138.173C245.302 137.75 244.553 137.1 244.358 136.124C244.163 135.279 244.358 134.434 244.423 133.589C244.521 132.743 244.423 131.865 244.13 131.053C243.772 130.207 243.284 129.46 242.666 128.777C241.299 127.249 239.705 125.948 237.947 124.908C235.93 123.705 233.749 122.86 231.439 122.405C231.309 122.372 231.276 122.6 231.439 122.6Z" fill="white"/>
<path d="M241.397 127.606C242.341 126.469 242.308 124.811 241.332 123.705C241.234 123.608 241.071 123.738 241.169 123.835C242.08 124.876 242.113 126.404 241.234 127.476C241.104 127.574 241.299 127.704 241.397 127.606Z" fill="white"/>
<path d="M244.326 133.036C242.861 133.198 241.397 132.808 240.225 131.931C240.095 131.833 239.965 132.028 240.095 132.126C241.332 133.036 242.861 133.426 244.358 133.263C244.488 133.263 244.456 133.036 244.326 133.036Z" fill="white"/>
<path d="M235.897 123.998C235.637 124.518 235.116 124.843 234.563 124.908C234.433 124.908 234.465 125.136 234.596 125.136C235.214 125.071 235.8 124.681 236.092 124.128C236.125 124.063 236.125 123.998 236.06 123.965C235.995 123.933 235.93 123.933 235.897 123.998Z" fill="white"/>
<path d="M67.0692 125.168C67.6875 120.096 70.844 115.09 75.6928 113.432C73.7728 118.666 73.7728 124.388 75.6928 129.59C76.4413 131.605 77.4826 133.751 76.7667 135.799C76.3436 137.067 75.2697 138.01 74.0657 138.628C72.8616 139.246 71.56 139.506 70.2583 139.798L69.9979 140.026C67.9478 135.344 66.4509 130.24 67.0692 125.168Z" fill="#F0F0F0"/>
<path d="M75.7253 113.529C72.8941 116.683 71.1369 120.649 70.7138 124.843C70.6162 125.753 70.6487 126.664 70.8115 127.541C71.0067 128.419 71.4298 129.2 72.0481 129.85C72.6013 130.467 73.2521 131.02 73.6426 131.768C74.0331 132.548 74.0982 133.426 73.8053 134.239C73.4474 135.247 72.764 136.059 72.0481 136.84C71.267 137.717 70.4209 138.595 70.0955 139.733C70.063 139.863 69.8352 139.798 69.8677 139.668C70.4535 137.652 72.406 136.515 73.3172 134.726C73.7402 133.881 73.9355 132.906 73.5124 132.028C73.1545 131.248 72.5036 130.663 71.9179 130.045C71.2996 129.427 70.8765 128.679 70.6162 127.834C70.3884 126.956 70.3233 126.046 70.4209 125.136C70.5837 123.087 71.0718 121.104 71.8528 119.186C72.7314 117.008 73.968 115.025 75.5301 113.269C75.6928 113.269 75.8229 113.432 75.7253 113.529Z" fill="white"/>
<path d="M70.7789 123.51C69.3471 123.152 68.3708 121.82 68.4684 120.357C68.4684 120.226 68.6962 120.226 68.6962 120.357C68.5986 121.722 69.5098 122.99 70.844 123.283C71.0067 123.315 70.9416 123.543 70.7789 123.51Z" fill="white"/>
<path d="M71.7552 129.622C73.0243 128.874 73.9355 127.672 74.3586 126.274C74.3911 126.143 74.6189 126.209 74.5864 126.339C74.1633 127.802 73.1871 129.037 71.8854 129.817C71.7227 129.882 71.625 129.687 71.7552 129.622Z" fill="white"/>
<path d="M72.9918 117.333C73.5125 117.593 74.1308 117.561 74.6189 117.235C74.7491 117.17 74.8467 117.365 74.7165 117.431C74.1633 117.756 73.5125 117.788 72.9267 117.528C72.8616 117.496 72.8291 117.431 72.8616 117.398C72.8616 117.333 72.9267 117.3 72.9918 117.333Z" fill="white"/>
<path d="M90.4343 122.502C90.3692 122.567 90.2716 122.6 90.2065 122.665C89.1977 123.348 88.2214 124.095 87.3103 124.908C87.2452 124.973 87.1801 125.038 87.115 125.103C84.9672 127.119 83.21 129.525 81.9408 132.158C81.4527 133.198 81.0296 134.304 80.6717 135.409C80.2161 136.97 79.8256 138.66 78.9144 139.928C78.8168 140.058 78.7192 140.188 78.6215 140.318H70.2908C70.2582 140.318 70.2582 140.286 70.2257 140.286H69.9003C69.9003 140.221 69.9328 140.156 69.9328 140.123C69.9328 140.091 69.9654 140.058 69.9654 140.026C69.9654 139.993 69.9654 139.993 69.9654 139.961C69.9654 139.961 69.9654 139.961 69.9654 139.928C69.9654 139.896 69.9654 139.896 69.9654 139.863C70.063 139.538 70.1281 139.181 70.2257 138.855C70.8765 136.255 71.8202 133.751 73.0894 131.378C73.1219 131.313 73.1545 131.248 73.2196 131.15C73.8053 130.11 74.4562 129.102 75.2046 128.159C75.5951 127.639 76.0507 127.151 76.5063 126.664C77.6778 125.461 79.0446 124.42 80.5415 123.64C83.5354 122.047 86.9848 121.462 90.2065 122.437C90.2716 122.47 90.3692 122.47 90.4343 122.502Z" fill="#F0F0F0"/>
<path d="M90.4343 122.6C86.269 123.413 82.4941 125.526 79.5978 128.647C78.9796 129.297 78.4263 130.045 78.0358 130.858C77.6779 131.67 77.5477 132.548 77.6453 133.459C77.7104 134.271 77.9057 135.117 77.7755 135.962C77.6453 136.807 77.1247 137.587 76.4087 138.043C75.5301 138.628 74.4562 138.888 73.4474 139.083C72.3084 139.311 71.1044 139.506 70.1281 140.221C69.9979 140.318 69.8678 140.123 69.9979 140.026C71.6576 138.79 73.903 139.05 75.7253 138.173C76.5714 137.75 77.3199 137.1 77.5152 136.124C77.7104 135.279 77.5152 134.434 77.4501 133.589C77.3524 132.743 77.4501 131.865 77.7429 131.053C78.1009 130.207 78.589 129.46 79.2073 128.777C80.5741 127.249 82.1687 125.948 83.9259 124.908C85.9435 123.705 88.1239 122.86 90.4343 122.405C90.5645 122.372 90.5645 122.6 90.4343 122.6Z" fill="white"/>
<path d="M80.4765 127.606C79.5328 126.469 79.5653 124.811 80.5416 123.705C80.6392 123.608 80.8019 123.738 80.7043 123.835C79.7931 124.876 79.7606 126.404 80.6392 127.476C80.7368 127.574 80.5741 127.704 80.4765 127.606Z" fill="white"/>
<path d="M77.5476 133.036C79.012 133.198 80.4764 132.808 81.6479 131.931C81.7781 131.833 81.9083 132.028 81.7781 132.126C80.5415 133.036 79.012 133.426 77.5151 133.263C77.3524 133.263 77.4175 133.036 77.5476 133.036Z" fill="white"/>
<path d="M85.9436 123.998C86.2039 124.518 86.7246 124.843 87.2778 124.908C87.408 124.908 87.3754 125.136 87.2452 125.136C86.6269 125.071 86.0412 124.681 85.7483 124.128C85.7158 124.063 85.7158 123.998 85.7808 123.965C85.8459 123.933 85.911 123.933 85.9436 123.998Z" fill="white"/>
</g>
<defs>
<linearGradient id="paint0_linear_2_316" x1="117.264" y1="79.1337" x2="188.117" y2="79.1337" gradientUnits="userSpaceOnUse">
<stop stop-color="#88A9FF"/>
<stop offset="1" stop-color="#00AEEF"/>
</linearGradient>
<linearGradient id="paint1_linear_2_316" x1="117.264" y1="85.6305" x2="188.117" y2="85.6305" gradientUnits="userSpaceOnUse">
<stop stop-color="#88B0FF"/>
<stop offset="1" stop-color="#00AEEF"/>
</linearGradient>
<linearGradient id="paint2_linear_2_316" x1="117.264" y1="92.1273" x2="188.117" y2="92.1273" gradientUnits="userSpaceOnUse">
<stop stop-color="#8296FF"/>
<stop offset="1" stop-color="#00AEEF"/>
</linearGradient>
<linearGradient id="paint3_linear_2_316" x1="111.331" y1="79.4998" x2="114.596" y2="79.4998" gradientUnits="userSpaceOnUse">
<stop stop-color="#889BFF"/>
<stop offset="1" stop-color="#00AEEF"/>
</linearGradient>
<linearGradient id="paint4_linear_2_316" x1="223.526" y1="81.9042" x2="240.829" y2="81.9042" gradientUnits="userSpaceOnUse">
<stop stop-color="#88A9FF"/>
<stop offset="1" stop-color="#00AEEF"/>
</linearGradient>
<linearGradient id="paint5_linear_2_316" x1="221.211" y1="85.2804" x2="242.987" y2="85.2804" gradientUnits="userSpaceOnUse">
<stop stop-color="#88A2FF"/>
<stop offset="1" stop-color="#00AEEF"/>
</linearGradient>
<linearGradient id="paint6_linear_2_316" x1="51.3092" y1="32.926" x2="67.9352" y2="32.926" gradientUnits="userSpaceOnUse">
<stop stop-color="#889BFF"/>
<stop offset="1" stop-color="#00AEEF"/>
</linearGradient>
<linearGradient id="paint7_linear_2_316" x1="46.8641" y1="47.8511" x2="63.474" y2="47.8511" gradientUnits="userSpaceOnUse">
<stop stop-color="#88A2FF"/>
<stop offset="1" stop-color="#00AEEF"/>
</linearGradient>
<clipPath id="clip0_2_316">
<rect width="329" height="145" fill="white"/>
</clipPath>
</defs>
</svg>
