<svg width="28" height="25" viewBox="0 0 28 25" fill="none" xmlns="http://www.w3.org/2000/svg">
<path d="M8.58784 24.8536C18.9049 24.8536 24.5486 15.2893 24.5486 7.00965C24.5486 6.74201 24.5486 6.47055 24.5384 6.20291C25.6372 5.31298 26.5855 4.2112 27.3389 2.94918C26.3125 3.4555 25.2249 3.7892 24.1112 3.93945C25.2843 3.15495 26.1629 1.92062 26.5837 0.465871C25.4816 1.19638 24.2753 1.7092 23.0177 1.98186C22.1722 0.974431 21.0534 0.307041 19.8345 0.083065C18.6157 -0.140911 17.3649 0.0910253 16.2758 0.742949C15.1867 1.39487 14.3201 2.4304 13.8103 3.68913C13.3005 4.94786 13.176 6.35954 13.4559 7.70552C11.2256 7.5804 9.04374 6.93217 7.0518 5.80287C5.05987 4.67358 3.30234 3.08844 1.89322 1.15026C1.17786 2.53259 0.959551 4.16771 1.28262 5.72358C1.60568 7.27946 2.4459 8.63945 3.63266 9.52738C2.74336 9.49357 1.87361 9.2264 1.09356 8.7474V8.83343C1.09509 10.2815 1.54346 11.6846 2.36289 12.8055C3.18232 13.9264 4.32253 14.6964 5.59081 14.9853C5.10941 15.1337 4.61212 15.2077 4.1128 15.2052C3.76078 15.2064 3.40947 15.1699 3.06367 15.0962C3.42213 16.3427 4.1201 17.4326 5.05983 18.2132C5.99956 18.9938 7.13398 19.4259 8.30419 19.4492C6.31624 21.1961 3.8606 22.1435 1.33277 22.1389C0.887354 22.141 0.442246 22.1123 0 22.0529C2.56561 23.8829 5.54518 24.8546 8.58784 24.8536Z" fill="#3F8CFF"/>
</svg>
