<svg width="3224" height="126" viewBox="0 0 3224 126" fill="none" xmlns="http://www.w3.org/2000/svg">
<path d="M208.5 39.5C119.368 56.9361 0.5 125.304 0.5 125.304H3224C3224 125.304 3094.15 18.9832 2993.5 2.80433C2878.34 -15.7069 2818.55 63.3161 2702 67.8043C2608.4 71.4089 2556.78 33.7065 2463.5 42.3043C2388.42 49.2247 2351.9 90.3844 2276.5 90.3043C2184.18 90.2063 2143.38 26.7832 2051.5 17.8043C1925.84 5.5246 1859.17 101.272 1734.5 81.3043C1664.34 70.0672 1634.77 24.1218 1564 17.8043C1500.46 12.1325 1466.24 39.6626 1402.5 42.3043C1300.33 46.5391 1243.27 -12.7602 1143 7.30433C1054 25.1132 1028.41 108.804 938 116.806C862.192 123.516 824.825 75.821 749 69.3043C667.767 62.3228 622.488 89.9958 541 87.3043C405.43 82.8265 341.621 13.4586 208.5 39.5Z" fill="white"/>
</svg>
